<?xml version="1.0" encoding="UTF-8" standalone="no"?>
<svg
   xmlns:dc="http://purl.org/dc/elements/1.1/"
   xmlns:cc="http://creativecommons.org/ns#"
   xmlns:rdf="http://www.w3.org/1999/02/22-rdf-syntax-ns#"
   xmlns:svg="http://www.w3.org/2000/svg"
   xmlns="http://www.w3.org/2000/svg"
   xmlns:sodipodi="http://sodipodi.sourceforge.net/DTD/sodipodi-0.dtd"
   xmlns:inkscape="http://www.inkscape.org/namespaces/inkscape"
   width="168.80417mm"
   height="49.477081mm"
   viewBox="0 0 168.80417 49.477081"
   version="1.1"
   id="svg8"
   inkscape:version="1.0.1 (3bc2e813f5, 2020-09-07)"
   sodipodi:docname="logo-header.svg">
  <defs
     id="defs2" />
  <sodipodi:namedview
     id="base"
     pagecolor="#ffffff"
     bordercolor="#666666"
     borderopacity="1.0"
     inkscape:pageopacity="0.0"
     inkscape:pageshadow="2"
     inkscape:zoom="0.98994949"
     inkscape:cx="430.01009"
     inkscape:cy="229.71321"
     inkscape:document-units="mm"
     inkscape:current-layer="layer1"
     inkscape:document-rotation="0"
     showgrid="false"
     fit-margin-top="0"
     fit-margin-left="0"
     fit-margin-right="0"
     fit-margin-bottom="0"
     inkscape:window-width="1258"
     inkscape:window-height="1040"
     inkscape:window-x="233"
     inkscape:window-y="0"
     inkscape:window-maximized="0" />
  <metadata
     id="metadata5">
    <rdf:RDF>
      <cc:Work
         rdf:about="">
        <dc:format>image/svg+xml</dc:format>
        <dc:type
           rdf:resource="http://purl.org/dc/dcmitype/StillImage" />
        <dc:title></dc:title>
      </cc:Work>
    </rdf:RDF>
  </metadata>
  <g
     inkscape:label="Capa 1"
     inkscape:groupmode="layer"
     id="layer1"
     transform="translate(-15.429481,-114.38892)">
    <g
       id="g24"
       transform="translate(0.80180425,0.03221939)">
      <path
         style="fill:#fefefe;stroke-width:0.264583"
         d="M 14.627677,139.09524 V 114.3567 h 84.402085 84.402088 v 24.73854 24.73854 H 99.029762 14.627677 Z m 86.488203,22.01204 c 2.79371,-1.84879 4.22624,-7.21239 4.78372,-17.911 0.34478,-6.61638 0.34478,-10.22112 2e-5,-10.86531 -0.38226,-0.71425 -2.01258,-0.69305 -2.7889,0.0363 -0.56221,0.52818 -0.63408,0.53297 -1.9833,0.13229 -1.946322,-0.57799 -4.415665,-0.53097 -6.147717,0.11708 -2.157124,0.80708 -4.446445,3.01945 -5.655107,5.46501 -0.872466,1.76531 -0.987896,2.22986 -0.998487,4.01839 -0.01193,2.01728 -0.01394,2.02288 -0.805722,2.24541 -1.887186,0.53039 -2.336562,0.39605 -2.975097,-0.88941 -0.418611,-0.84271 -0.644332,-1.90671 -0.764929,-3.60569 l -0.171082,-2.41021 0.757187,-0.36305 c 1.058892,-0.50772 1.485924,-1.44263 1.309907,-2.86782 -0.29333,-2.37506 -2.411939,-4.24957 -4.787958,-4.2363 -4.177858,0.0233 -10.151748,6.74975 -11.216079,12.62898 -1.020723,5.63834 3.016178,8.13678 7.596399,4.70142 0.836221,-0.62721 1.93712,-1.74276 2.446443,-2.47902 0.974199,-1.40827 1.322917,-1.65175 1.322917,-0.92368 0,1.04027 0.985912,3.43048 1.748544,4.2391 0.717785,0.76108 0.998712,0.87726 2.119156,0.8764 1.481731,-10e-4 2.664714,-0.60976 3.572968,-1.83824 l 0.600734,-0.81254 0.940237,0.91326 c 1.19132,1.15713 2.043927,1.47392 3.966903,1.47392 2.892541,0 5.375608,-1.37598 7.225643,-4.00408 l 1.12477,-1.59782 0.0789,1.61549 c 0.10448,2.13923 -0.60045,7.44642 -1.2823,9.654 -0.65328,2.11507 -1.685899,3.39439 -2.739827,3.39439 -0.991817,0 -1.621917,-0.69214 -2.353844,-2.58562 -0.740307,-1.91515 -1.3984,-2.16866 -2.617801,-1.00839 -1.226312,1.16683 -1.367306,1.57956 -0.994481,2.91116 0.406831,1.45306 2.358151,3.68628 3.818289,4.3699 1.477291,0.69166 3.473096,0.53007 4.869884,-0.39428 z M 73.326261,144.14257 c -0.621012,-1.36297 0.643464,-4.41471 3.025777,-7.30255 1.470742,-1.78283 3.473136,-3.12162 4.232873,-2.83008 0.232294,0.0891 0.625602,0.47227 0.87402,0.8514 0.435848,0.6652 0.430847,0.70392 -0.14283,1.10574 -0.326972,0.22902 -0.943669,1.19464 -1.370436,2.14582 -2.234031,4.97924 -5.671384,8.11035 -6.619404,6.02967 z m 19.750376,0.32165 c -1.25389,-0.71911 -1.605013,-1.99305 -1.056241,-3.83224 0.743768,-2.49271 3.362423,-4.57069 5.767724,-4.57686 1.33604,-0.003 3.2691,0.49716 3.63847,0.94222 0.39214,0.4725 -1.17492,3.76123 -2.561182,5.37505 -1.622457,1.88879 -4.395518,2.89086 -5.788771,2.09183 z M 49.65673,160.42858 c 1.808967,-0.63824 2.407161,-1.1155 3.100229,-2.47345 0.940713,-1.84316 1.285849,-4.10144 1.285132,-8.40885 -7.94e-4,-4.6621 -0.387358,-7.00254 -1.491819,-9.0318 -1.48004,-2.71932 -3.801568,-3.81734 -7.644479,-3.61564 -3.664607,0.19234 -5.692692,1.68741 -6.989025,5.15217 -0.834083,2.22928 -1.219622,6.80978 -0.869877,10.3348 0.429712,4.33098 1.431179,6.67336 3.256768,7.61741 2.410844,1.2467 6.498278,1.43259 9.353071,0.42536 z m -6.062096,-8.07601 c -2.147255,-0.93562 -3.226587,-3.51455 -2.368476,-5.65918 1.158581,-2.89558 4.621205,-3.74137 7.02755,-1.71656 3.778446,3.17935 -0.121285,9.35298 -4.659074,7.37574 z m -12.575306,3.43399 c -0.868627,-3.13253 -1.045817,-6.6679 -1.045817,-20.86651 v -13.77642 l -0.690859,0.64143 c -2.094746,1.94488 -4.840466,6.50274 -5.885327,9.76956 -2.3703,7.41088 -0.929737,15.59612 3.853451,21.89522 1.196441,1.57562 4.031512,4.40086 4.223509,4.20887 0.02763,-0.0276 -0.177099,-0.8701 -0.454957,-1.87215 z m 32.951652,-5.04965 c 4.643533,-8.17954 4.010787,-18.82461 -1.559393,-26.23458 -3.04976,-4.05708 -7.303027,-6.96745 -12.329743,-8.43683 -2.703462,-0.79027 -8.4377,-0.72348 -11.217524,0.13064 l -2.089399,0.64198 0.170202,3.72023 c 0.09361,2.04612 0.170638,5.7096 0.17117,8.14107 l 9.68e-4,4.42084 1.256771,-0.7682 c 2.869398,-1.75393 7.176704,-2.39856 10.517187,-1.57399 5.441493,1.34319 9.621944,5.86799 11.2287,12.15363 0.942129,3.6856 1.00402,9.56936 0.129845,12.34344 -0.319469,1.01379 2.569464,-2.50942 3.721216,-4.53823 z m 55.57455,-0.54293 c 1.88018,-0.48959 3.4471,-1.36688 4.88575,-2.73544 1.22579,-1.16606 1.38327,-2.18837 0.50845,-3.30053 -0.65391,-0.83131 -1.3129,-0.88873 -1.96244,-0.171 -1.4892,1.64556 -4.71668,2.89058 -6.58475,2.54013 -1.35309,-0.25384 -2.81069,-1.58377 -2.81069,-2.56451 0,-0.42149 0.0893,-0.76821 0.19843,-0.77048 0.10914,-0.002 1.86532,-0.24029 3.90261,-0.52892 3.86611,-0.54772 4.47901,-0.79284 5.5399,-2.21562 0.86468,-1.15963 0.76848,-3.87881 -0.19533,-5.52108 -1.58287,-2.69714 -5.09952,-3.63825 -8.0678,-2.15909 -1.69354,0.84393 -3.20078,2.52045 -4.34344,4.83127 -0.72976,1.47582 -0.99093,1.77489 -1.61217,1.84616 -0.87417,0.10028 -1.30991,0.9842 -1.18981,2.41356 0.064,0.7617 0.23938,1.01659 0.92053,1.33785 0.6563,0.30955 0.90655,0.65215 1.13724,1.55692 0.45784,1.79563 1.20691,3.0602 2.43584,4.11212 1.92811,1.65039 4.31761,2.08905 7.23768,1.32866 z m -5.6991,-11.47346 c 0,-0.7209 1.04389,-1.78465 2.24299,-2.28567 1.17087,-0.48922 1.8232,-0.48234 2.81335,0.0297 0.63268,0.32717 0.77979,0.5587 0.71446,1.12448 -0.0709,0.61366 -0.26429,0.75739 -1.39478,1.03637 -0.72188,0.17814 -2.0018,0.40188 -2.84427,0.4972 -1.44949,0.16399 -1.53175,0.14239 -1.53175,-0.40207 z m 37.5071,10.67568 c 1.7219,-0.85806 2.82786,-2.11542 3.93462,-4.47322 0.47993,-1.02244 0.87688,-1.64588 0.88211,-1.38543 0.0147,0.73421 0.93607,2.35774 1.80783,3.18568 0.90369,0.85826 2.50113,1.18416 3.72059,0.75905 0.67682,-0.23594 0.84491,-0.20024 1.14303,0.24278 0.47678,0.70855 2.37215,1.32224 3.44861,1.11661 2.08443,-0.39818 4.32589,-2.10076 6.21304,-4.71934 0.42033,-0.58325 0.60313,-0.6885 0.68929,-0.39688 0.0645,0.21828 0.31855,1.08583 0.56458,1.92789 0.24603,0.84206 0.8094,1.94339 1.25192,2.4474 0.72591,0.82676 0.94035,0.91638 2.1927,0.91638 1.10998,0 1.59912,-0.15286 2.44126,-0.7629 1.27676,-0.92489 1.86446,-2.15946 1.50639,-3.16448 -0.2646,-0.74268 -0.76613,-0.82436 -2.6402,-0.43003 -0.68403,0.14394 -0.91319,0.0563 -1.36944,-0.52372 -0.68297,-0.86827 -1.11635,-2.82754 -1.11635,-5.04698 0,-1.60535 0.0424,-1.72189 0.76169,-2.09385 0.91057,-0.47088 1.0904,-0.87206 1.0904,-2.43261 0,-1.35861 -0.42944,-2.31106 -1.49774,-3.32183 -1.96221,-1.85655 -4.54933,-1.70369 -7.46259,0.44093 -3.11267,2.29141 -6.16013,6.9145 -6.93621,10.52245 -0.35425,1.64687 -0.69821,1.86136 -1.77522,1.10699 -1.77715,-1.24476 -2.2973,-4.45434 -2.03844,-12.57812 0.13567,-4.25773 0.10484,-6.14124 -0.10699,-6.53706 -0.55062,-1.02884 -2.82797,-0.99262 -3.52824,0.0561 -0.10691,0.16011 -0.19621,2.17987 -0.19844,4.48835 l -0.004,4.19723 -1.25677,-0.22848 c -3.34633,-0.60836 -5.76774,0.1033 -7.92407,2.32893 -3.28393,3.38946 -3.83903,9.69242 -1.14179,12.96465 1.74169,2.11297 4.75716,2.68479 7.34848,1.39348 z m -3.67179,-3.68719 c -1.70756,-0.92796 -2.26848,-4.74512 -1.02294,-6.96126 0.86311,-1.53569 1.95037,-2.16642 3.73136,-2.16457 1.7668,0.002 3.38881,0.43348 3.58897,0.9551 0.0833,0.21695 0.0269,1.01321 -0.1253,1.76946 -0.77616,3.85737 -2.76534,6.80953 -4.57402,6.78837 -0.49789,-0.006 -1.21702,-0.18002 -1.59807,-0.3871 z m 18.07594,-1.24273 c -0.4322,-0.4322 -0.3991,-1.76593 0.0773,-3.11632 0.98636,-2.79564 4.52775,-6.91018 6.27858,-7.29472 0.70532,-0.15492 0.93571,-0.0715 1.44829,0.52441 0.73483,0.8543 0.76143,1.12443 0.13047,1.32469 -0.27759,0.0881 -1.0727,1.34037 -1.89059,2.97757 -2.1701,4.34402 -4.82837,6.8001 -6.04409,5.58437 z m -25.18833,4.02167 c 0.67388,-0.67388 0.66619,-1.00114 -0.13454,-5.72789 -1.61815,-9.55195 -3.44314,-13.35348 -6.21546,-12.94707 -1.22296,0.17928 -2.18131,1.2746 -2.95336,3.37545 l -0.61499,1.67347 -0.21212,-1.93234 c -0.30001,-2.73313 -0.52967,-3.22704 -1.50048,-3.22704 -0.49812,0 -1.09567,0.27236 -1.59635,0.72761 l -0.80022,0.7276 0.25937,2.21856 c 0.14266,1.22021 0.39128,4.85161 0.55249,8.06979 0.16121,3.21818 0.40017,6.11913 0.531,6.44655 0.18447,0.46163 0.44981,0.59531 1.18164,0.59531 1.7332,0 2.06001,-0.6429 2.59461,-5.10414 0.25793,-2.15243 0.70042,-4.81848 0.98331,-5.92455 0.82602,-3.22972 1.48818,-3.56748 2.37053,-1.20918 0.61785,1.65132 1.61589,6.27865 2.12593,9.85662 0.17632,1.23693 0.43916,2.39779 0.58409,2.57969 0.42478,0.53314 2.23957,0.40653 2.84455,-0.19844 z"
         id="path56" />
      <path
         style="fill:#c4f1dc;stroke-width:0.264583"
         d="m 60.95065,150.45028 c 0.0127,-0.30823 0.07539,-0.37092 0.159851,-0.15985 0.07643,0.19099 0.06703,0.41919 -0.02088,0.50711 -0.08792,0.0879 -0.150453,-0.0684 -0.138964,-0.34726 z"
         id="path52" />
      <path
         style="fill:#66dcab;stroke-width:0.264583"
         d="m 42.352079,160.54737 c -2.657111,-0.76292 -3.806863,-2.01001 -4.589946,-4.97854 -0.542011,-2.05467 -0.737666,-6.62013 -0.407922,-9.51856 0.519684,-4.568 1.836316,-7.03854 4.426416,-8.30576 1.318871,-0.64526 1.840225,-0.74704 3.826761,-0.74704 2.029571,0 2.47926,0.0922 3.826277,0.78431 1.785586,0.91747 3.043767,2.54112 3.758777,4.85061 0.666941,2.15423 0.670531,11.39788 0.0053,13.5451 -0.715639,2.3098 -1.451615,3.19811 -3.257555,3.93181 -1.92419,0.78174 -5.643319,0.99645 -7.58807,0.43807 z m 5.017855,-8.12272 c 2.717059,-1.31531 3.440306,-4.78282 1.48281,-7.10917 -0.931276,-1.10676 -1.955771,-1.59003 -3.370744,-1.59003 -2.835482,0 -4.679891,1.75727 -4.700973,4.47888 -0.02763,3.56708 3.401331,5.7634 6.588907,4.22032 z m -18.140807,3.05763 c -4.389634,-4.5139 -6.66395,-10.1574 -6.66395,-16.53596 0,-1.74744 0.173076,-3.94655 0.39282,-4.99118 0.841318,-3.99948 2.976744,-8.21264 5.642108,-11.13177 l 1.08712,-1.19063 0.01544,13.62604 c 0.01533,13.53329 0.186171,17.24655 0.923359,20.06956 0.21134,0.8093 0.32723,1.52848 0.257535,1.59818 -0.06969,0.0697 -0.814188,-0.58021 -1.654428,-1.44424 z m 31.635965,-1.83495 c 0.108328,-0.72761 0.191421,-2.8112 0.184647,-4.63021 -0.01476,-3.96818 -0.667668,-6.90798 -2.285743,-10.29207 -1.887196,-3.94694 -5.54006,-6.98198 -9.752481,-8.103 -3.113662,-0.82861 -7.153135,-0.34129 -10.013714,1.20807 -0.792878,0.42944 -1.4655,0.75149 -1.494715,0.71567 -0.02922,-0.0358 -0.09821,-3.57206 -0.153326,-7.85831 l -0.100208,-7.79318 1.5875,-0.52319 c 1.292658,-0.42601 2.349178,-0.52653 5.688542,-0.54119 3.594873,-0.0158 4.344813,0.0585 6.076093,0.60218 8.899314,2.79448 15.034705,10.29803 16.165635,19.77049 0.739764,6.19612 -1.303401,13.16296 -5.193605,17.70932 l -0.905589,1.05833 z"
         id="path38" />
      <path
         style="fill:#000000;stroke-width:0.264583"
         d="m 95.724299,160.85722 c -1.462673,-1.00896 -2.756435,-2.69228 -3.029781,-3.94207 -0.239186,-1.09361 0.210814,-2.08957 1.29196,-2.85941 l 0.785535,-0.55935 0.380463,0.60463 c 0.209256,0.33255 0.541319,1.06494 0.737917,1.62752 0.538382,1.54063 1.349566,2.28441 2.491415,2.28441 2.370842,0 3.717512,-3.58475 4.323662,-11.50937 0.12244,-1.60073 0.1662,-3.05925 0.0972,-3.24115 -0.23333,-0.61544 -0.72724,-0.33451 -1.46497,0.83326 -1.78572,2.82663 -4.444672,4.44665 -7.378171,4.49531 -1.557763,0.0258 -1.894763,-0.0634 -2.895959,-0.76693 -3.200668,-2.24905 -3.373729,-7.39588 -0.385191,-11.45553 1.338688,-1.81847 3.407634,-3.26971 5.548884,-3.89219 1.669584,-0.48536 2.736963,-0.41693 5.118497,0.32813 l 1.39,0.43486 0.74115,-0.71007 c 0.9266,-0.88774 1.5024,-0.89877 2.06537,-0.0396 0.40139,0.61259 0.41328,1.29247 0.1376,7.87135 -0.32578,7.7746 -0.76184,11.79602 -1.61714,14.91363 -1.23926,4.51714 -2.968,6.44243 -5.784729,6.44243 -1.042654,0 -1.559417,-0.174 -2.553742,-0.8599 z m 0.07945,-16.11927 c 1.697069,-0.42429 4.147796,-2.86796 5.298901,-5.28366 0.46064,-0.96669 0.83753,-1.95503 0.83753,-2.19631 0,-1.21255 -4.739545,-1.79549 -6.711408,-0.82547 -1.260266,0.61997 -2.614226,1.98486 -3.250483,3.27671 -0.667416,1.35513 -0.647192,3.52043 0.04002,4.28426 0.959715,1.06674 1.81982,1.23589 3.78544,0.74447 z m 18.758131,5.21227 c -2.06431,-0.79061 -3.58918,-2.59345 -4.32005,-5.10754 -0.33968,-1.16847 -0.55434,-1.47564 -1.18484,-1.69543 -0.89585,-0.3123 -1.16742,-1.0719 -0.83789,-2.34361 0.17906,-0.69101 0.41407,-0.93561 1.05969,-1.1029 0.69978,-0.18134 0.97638,-0.52014 1.76754,-2.16502 1.6644,-3.46043 4.94575,-5.75749 7.55063,-5.2857 3.68102,0.6667 5.95248,4.43937 4.56346,7.57949 -0.73488,1.6613 -1.59994,2.04917 -6.0067,2.69316 l -3.70417,0.54132 -0.0832,0.86324 c -0.10815,1.12264 1.00623,2.28037 2.61089,2.71246 2.08289,0.56086 5.18233,-0.44781 6.84495,-2.2276 0.35279,-0.37765 0.85574,-0.68664 1.11768,-0.68664 0.48451,0 1.28359,1.22669 1.28359,1.97047 0,0.79729 -1.91977,2.53199 -3.86733,3.49453 -1.58975,0.7857 -2.30671,0.98101 -3.87057,1.05438 -1.24444,0.0584 -2.27257,-0.0452 -2.92373,-0.29461 z m 3.47134,-11.02872 c 1.37066,-0.23287 1.72623,-0.40056 1.96623,-0.9273 0.2526,-0.55441 0.19651,-0.73948 -0.40702,-1.34301 -1.29674,-1.29675 -4.0674,-0.80058 -5.58219,0.99964 -0.70588,0.83888 -0.84969,1.33009 -0.49454,1.68911 0.20437,0.2066 1.59891,0.0774 4.51752,-0.41844 z m 29.04496,10.75105 c -5.76099,-1.46277 -5.90777,-12.14769 -0.21645,-15.75702 2.10794,-1.33681 3.41771,-1.50281 6.87064,-0.87075 l 0.85989,0.1574 v -4.26337 c 0,-3.91058 0.0438,-4.30715 0.52917,-4.79253 0.29104,-0.29104 0.87178,-0.52916 1.29052,-0.52916 1.45692,0 1.4876,0.17683 1.4876,8.57428 0,7.45116 0.0198,7.74657 0.61748,9.22737 0.60051,1.48775 1.16445,2.07327 2.33121,2.4204 0.7731,0.23002 1.30512,-0.36654 1.51884,-1.70309 0.60998,-3.81458 5.03757,-9.72128 8.51071,-11.35384 3.26053,-1.53264 6.73322,0.50401 6.73322,3.94886 0,1.12309 -0.88083,2.37977 -1.66803,2.37977 -0.29331,0 -0.34708,0.42129 -0.2617,2.05052 0.14906,2.84443 0.54063,4.41537 1.30658,5.24184 0.55189,0.59551 0.78494,0.67464 1.49825,0.50869 1.5586,-0.36258 2.08724,-0.29265 2.3127,0.30595 0.44307,1.17634 -1.31071,3.25268 -3.13385,3.71026 -1.62072,0.40678 -3.21767,-1.34854 -3.89079,-4.27664 -0.17893,-0.77837 -0.46565,-1.35411 -0.69655,-1.39871 -0.22687,-0.0438 -0.8202,0.5453 -1.40631,1.39629 -1.57212,2.28265 -4.22901,4.0834 -6.04583,4.09765 -0.93359,0.007 -2.1483,-0.61138 -2.67407,-1.36203 -0.35334,-0.50446 -0.49016,-0.53796 -1.08685,-0.26609 -2.16171,0.98494 -4.33676,-0.30256 -5.20368,-3.08027 -0.18995,-0.60865 -0.4788,-1.10663 -0.64188,-1.10663 -0.16308,0 -0.51073,0.56555 -0.77255,1.25677 -1.58476,4.18379 -4.7966,6.34019 -8.16827,5.48408 z m 3.45113,-3.73395 c 1.78927,-0.84906 3.52386,-4.37377 3.61707,-7.3499 l 0.049,-1.56487 -1.32292,-0.34826 c -2.59734,-0.68373 -4.64651,-0.33371 -5.87803,1.00404 -1.30186,1.41415 -1.77179,4.3745 -0.99104,6.24309 0.94473,2.26106 2.5255,2.96516 4.52591,2.0159 z m 17.47279,-1.40569 c 1.26817,-0.77326 2.8897,-2.98948 4.22898,-5.77992 0.76495,-1.59378 1.38166,-2.54688 1.70223,-2.63071 0.69898,-0.18279 0.62732,-0.91634 -0.17396,-1.78094 -0.5604,-0.60468 -0.82065,-0.70132 -1.51477,-0.5625 -1.93713,0.38743 -4.45012,2.98014 -6.14906,6.34414 -1.06712,2.11294 -1.26934,4.16641 -0.4569,4.63961 0.70197,0.40886 1.43271,0.33785 2.36348,-0.22968 z m -84.540746,3.81749 c -1.057174,-0.88955 -1.472173,-1.68081 -1.905299,-3.63276 -0.41879,-1.88735 -0.895069,-1.97049 -1.927389,-0.33646 -0.411385,0.65117 -1.343528,1.7194 -2.071428,2.37385 -2.544191,2.28744 -5.504053,2.54594 -6.890745,0.6018 -0.532495,-0.74655 -0.608603,-1.16758 -0.608603,-3.3668 0,-2.36194 0.06028,-2.63978 0.999406,-4.60672 3.152613,-6.60292 8.427339,-10.51581 11.814508,-8.76424 1.60732,0.83118 2.937137,3.32609 2.515212,4.71887 -0.233916,0.77215 -1.168345,1.77293 -1.655387,1.77293 -0.32576,0 -0.365985,0.4218 -0.24669,2.58677 0.160589,2.91434 0.62162,4.30161 1.654448,4.97835 0.593772,0.38905 0.84193,0.41333 1.56224,0.15287 1.301409,-0.4706 1.715643,-0.38569 1.910747,0.39168 0.368284,1.46735 -1.390007,3.37748 -3.410876,3.70542 -0.704414,0.11431 -1.060093,-0.003 -1.740144,-0.57556 z m -7.996661,-3.69004 c 1.289064,-0.6666 2.929216,-2.80838 4.413668,-5.76356 0.857073,-1.70622 1.586656,-2.84427 1.823406,-2.84427 0.221199,0 0.394665,-0.23786 0.394665,-0.54119 0,-0.62645 -1.114994,-1.84006 -1.690542,-1.84006 -1.931334,0 -5.797253,4.07177 -7.085893,7.4632 -1.136351,2.99063 -0.103579,4.68851 2.144696,3.52588 z m 62.770557,4.12691 c -0.21128,-0.13395 -0.65548,-2.04386 -1.12208,-4.82459 -0.79279,-4.7246 -1.58684,-7.85276 -2.25976,-8.90233 -0.54166,-0.84484 -1.33319,-0.75203 -1.83323,0.21496 -0.57462,1.11119 -1.3376,4.82108 -1.71065,8.31785 -0.38205,3.58113 -0.61889,4.25269 -1.62329,4.60283 -0.63754,0.22225 -0.86535,0.18517 -1.25473,-0.2042 -0.40122,-0.40122 -0.50293,-1.1354 -0.64921,-4.68615 -0.0954,-2.31572 -0.31503,-6.01764 -0.48807,-8.2265 -0.34525,-4.40697 -0.30756,-4.58021 1.10338,-5.07206 1.07528,-0.37485 1.33746,0.0571 1.66268,2.73904 0.18073,1.49048 0.38521,2.24808 0.60675,2.24808 0.18379,0 0.59198,-0.77473 0.90708,-1.72162 1.01439,-3.04823 2.75146,-4.07244 4.46357,-2.63179 1.6339,1.37483 2.80928,4.94726 4.12601,12.5405 0.77507,4.46959 0.71449,5.10174 -0.53437,5.57656 -0.821,0.31214 -0.94409,0.31474 -1.39408,0.0294 z"
         id="path26" />
    </g>
  </g>
</svg>
