<?xml version="1.0" encoding="UTF-8" standalone="no"?>
<svg
   xmlns:dc="http://purl.org/dc/elements/1.1/"
   xmlns:cc="http://creativecommons.org/ns#"
   xmlns:rdf="http://www.w3.org/1999/02/22-rdf-syntax-ns#"
   xmlns:svg="http://www.w3.org/2000/svg"
   xmlns="http://www.w3.org/2000/svg"
   xmlns:sodipodi="http://sodipodi.sourceforge.net/DTD/sodipodi-0.dtd"
   xmlns:inkscape="http://www.inkscape.org/namespaces/inkscape"
   width="53.974998mm"
   height="49.741665mm"
   viewBox="0 0 53.974998 49.741665"
   version="1.1"
   id="svg8"
   inkscape:version="1.0.1 (3bc2e813f5, 2020-09-07)">
  <defs
     id="defs2" />
  <sodipodi:namedview
     id="base"
     pagecolor="#ffffff"
     bordercolor="#666666"
     borderopacity="1.0"
     inkscape:pageopacity="0.0"
     inkscape:pageshadow="2"
     inkscape:zoom="2.8"
     inkscape:cx="27.946587"
     inkscape:cy="86.670436"
     inkscape:document-units="mm"
     inkscape:current-layer="layer1"
     inkscape:document-rotation="0"
     showgrid="false"
     fit-margin-top="0"
     fit-margin-left="0"
     fit-margin-right="0"
     fit-margin-bottom="0"
     inkscape:window-width="1258"
     inkscape:window-height="1040"
     inkscape:window-x="182"
     inkscape:window-y="0"
     inkscape:window-maximized="0" />
  <metadata
     id="metadata5">
    <rdf:RDF>
      <cc:Work
         rdf:about="">
        <dc:format>image/svg+xml</dc:format>
        <dc:type
           rdf:resource="http://purl.org/dc/dcmitype/StillImage" />
        <dc:title></dc:title>
      </cc:Work>
    </rdf:RDF>
  </metadata>
  <g
     inkscape:label="Capa 1"
     inkscape:groupmode="layer"
     id="layer1"
     transform="translate(-103.17667,-122.79239)">
    <g
       id="g78"
       transform="translate(0.26726911,0.1336343)">
      <path
         style="fill:#fefefe;stroke-width:0.264583"
         d="m 103.17667,147.66322 v -24.87083 h 26.9875 26.9875 v 24.87083 24.87083 h -26.9875 -26.9875 z m 31.88229,20.93307 c 3.29534,-1.14902 4.14057,-3.11323 4.30697,-10.00889 0.24641,-10.21128 -2.15264,-13.82298 -8.9885,-13.53194 -5.04888,0.21496 -7.25128,2.90198 -7.93857,9.68537 -0.53196,5.25039 0.33461,10.67521 1.99048,12.46055 1.88156,2.02869 6.91689,2.68947 10.62962,1.39491 z m -6.09034,-8.07262 c -2.14725,-0.93561 -3.22658,-3.51455 -2.36847,-5.65917 1.15858,-2.89559 4.6212,-3.74137 7.02755,-1.71657 3.77845,3.17935 -0.12129,9.35299 -4.65908,7.37574 z m -12.5753,3.434 c -0.86863,-3.13254 -1.04582,-6.66791 -1.04582,-20.86652 v -13.77642 l -0.69086,0.64144 c -7.38632,6.85789 -9.13624,19.92354 -3.87759,28.95184 1.51784,2.60592 5.65571,7.33532 6.06219,6.92884 0.0315,-0.0315 -0.17006,-0.87714 -0.44792,-1.87918 z m 31.42183,-2.66691 c 8.99274,-11.963 4.49859,-29.77279 -9.04646,-35.85004 -4.28494,-1.92252 -10.31676,-2.36814 -14.53038,-1.07348 l -2.0894,0.64199 0.1702,3.72022 c 0.0936,2.04613 0.17064,5.70961 0.17117,8.14107 l 9.7e-4,4.42085 1.25677,-0.76821 c 6.34597,-3.87899 14.91944,-1.78082 19.20181,4.69922 3.04901,4.61375 4.27681,12.96617 2.66701,18.14301 l -0.17716,0.56971 0.59059,-0.5278 c 0.32483,-0.29029 1.12803,-1.24274 1.78488,-2.11654 z"
         id="path102" />
      <path
         style="fill:#e6f9f0;stroke-width:0.264583"
         d="m 122.32205,157.71739 c 0,-1.38245 0.0446,-1.948 0.0991,-1.25677 0.0545,0.69122 0.0545,1.82232 0,2.51354 -0.0545,0.69122 -0.0991,0.12568 -0.0991,-1.25677 z m -6.95366,0.63941 c 0.0127,-0.30823 0.0754,-0.37092 0.15985,-0.15985 0.0764,0.19099 0.067,0.41919 -0.0209,0.50712 -0.0879,0.0879 -0.15045,-0.0684 -0.13896,-0.34727 z m 6.95491,-30.9342 c 6.9e-4,-1.45521 0.0451,-2.01677 0.0987,-1.2479 0.0536,0.76886 0.053,1.95948 -10e-4,2.64583 -0.0543,0.68635 -0.0982,0.0573 -0.0975,-1.39793 z"
         id="path100" />
      <path
         style="fill:#66dcab;stroke-width:0.264583"
         d="m 127.13098,168.47026 c -2.92433,-1.02339 -3.94448,-2.83898 -4.44639,-7.91335 -0.58012,-5.86515 0.41145,-10.80742 2.64802,-13.1985 2.88895,-3.08852 8.47814,-3.05788 11.28305,0.0619 1.90346,2.1171 2.32816,3.71009 2.47752,9.29283 0.25557,9.55247 -1.27834,11.98875 -7.73839,12.29069 -2.02697,0.0947 -2.65538,0.0154 -4.22381,-0.53353 z m 5.56753,-7.81503 c 2.58186,-1.17262 3.47059,-4.31897 1.88469,-6.67229 -2.90122,-4.30512 -9.48369,-1.53876 -8.34953,3.50899 0.66436,2.95684 3.67543,4.43019 6.46484,3.1633 z m -18.02136,2.96578 c -8.78659,-8.89641 -9.0226,-23.37318 -0.5337,-32.73677 l 0.93947,-1.03626 0.007,13.60397 c 0.007,13.61512 0.17282,17.36245 0.88973,20.08591 0.21064,0.80017 0.34556,1.49227 0.29982,1.538 -0.0457,0.0457 -0.7667,-0.60895 -1.60215,-1.45485 z m 31.55932,-1.80258 c 0.45756,-3.03304 0.20277,-8.05221 -0.54892,-10.8132 -2.87383,-10.55565 -12.45784,-15.50075 -21.34604,-11.014 l -1.58567,0.80044 v -4.1953 c 0,-2.30742 -0.0767,-5.79455 -0.17044,-7.74917 l -0.17044,-3.55386 0.69019,-0.31447 c 2.98391,-1.35956 9.57035,-1.46897 13.27673,-0.22055 15.61903,5.26098 20.97538,24.77924 10.31553,37.58928 l -0.66052,0.79375 z"
         id="path80" />
    </g>
  </g>
</svg>
