<?xml version="1.0" encoding="UTF-8" standalone="no"?>
<svg
   xmlns:dc="http://purl.org/dc/elements/1.1/"
   xmlns:cc="http://creativecommons.org/ns#"
   xmlns:rdf="http://www.w3.org/1999/02/22-rdf-syntax-ns#"
   xmlns:svg="http://www.w3.org/2000/svg"
   xmlns="http://www.w3.org/2000/svg"
   xmlns:sodipodi="http://sodipodi.sourceforge.net/DTD/sodipodi-0.dtd"
   xmlns:inkscape="http://www.inkscape.org/namespaces/inkscape"
   width="157.42708mm"
   height="67.20417mm"
   viewBox="0 0 157.42708 67.20417"
   version="1.1"
   id="svg8"
   inkscape:version="1.0.1 (3bc2e813f5, 2020-09-07)"
   sodipodi:docname="logo_header_svg.svg">
  <defs
     id="defs2" />
  <sodipodi:namedview
     id="base"
     pagecolor="#ffffff"
     bordercolor="#666666"
     borderopacity="1.0"
     inkscape:pageopacity="0.0"
     inkscape:pageshadow="2"
     inkscape:zoom="1.4"
     inkscape:cx="288.63334"
     inkscape:cy="4.9524713"
     inkscape:document-units="mm"
     inkscape:current-layer="layer1"
     inkscape:document-rotation="0"
     showgrid="false"
     fit-margin-top="0"
     fit-margin-left="0"
     fit-margin-right="0"
     fit-margin-bottom="0"
     inkscape:window-width="1702"
     inkscape:window-height="1040"
     inkscape:window-x="143"
     inkscape:window-y="7"
     inkscape:window-maximized="0" />
  <metadata
     id="metadata5">
    <rdf:RDF>
      <cc:Work
         rdf:about="">
        <dc:format>image/svg+xml</dc:format>
        <dc:type
           rdf:resource="http://purl.org/dc/dcmitype/StillImage" />
        <dc:title></dc:title>
      </cc:Work>
    </rdf:RDF>
  </metadata>
  <g
     inkscape:label="Capa 1"
     inkscape:groupmode="layer"
     id="layer1"
     transform="translate(-38.993617,-91.443185)">
    <g
       id="g24"
       transform="translate(0.53453673,1.0690781)">
      <path
         style="fill:#fefefe;stroke-width:0.264583"
         d="M 38.45908,123.97619 V 90.374107 h 78.71354 78.71354 v 33.602083 33.60209 H 117.17262 38.45908 Z m 34.377026,31.28657 c 0.498978,-0.25443 1.153821,-0.79849 1.455208,-1.20901 0.518211,-0.70586 0.5524,-1.14775 0.629449,-8.13594 l 0.08147,-7.38953 h 4.218006 4.218004 v 5.1714 c 0,5.13785 0.0042,5.17561 0.649433,5.82083 l 0.64943,0.64943 h 7.531013 c 4.142054,0 7.723745,-0.074 7.959311,-0.16435 1.07325,-0.41184 1.20248,-1.34679 1.20248,-8.69919 0,-7.80817 -0.0905,-8.30204 -1.618944,-8.83485 -0.462698,-0.1613 -2.252255,-0.29327 -3.976788,-0.29327 h -3.135519 v -2.77813 -2.77812 h 4.7625 4.762501 v 3.23402 3.23403 l 1.646,1.66076 1.64601,1.66077 h 5.1599 5.1599 l 1.66076,-1.646 c 1.0706,-1.06109 1.66076,-1.86027 1.66076,-2.24896 v -0.60296 h -5.95312 -5.95312 v -1.85208 -1.85208 h 4.16054 4.16055 l 1.79258,-1.77885 1.79257,-1.77884 v -3.18919 -3.18919 l -1.85208,-1.83789 -1.85208,-1.83789 -5.3e-4,-9.92898 c -5.3e-4,-11.073698 -0.0133,-11.161056 -1.82465,-12.37109 l -0.89891,-0.600586 H 97.990329 83.251918 l -0.899025,0.600586 c -1.73836,1.161301 -1.824193,1.609119 -1.824654,9.51973 l -4.1e-4,7.0776 h -4.233333 -4.233333 v -4.90793 c 0,-5.103294 -0.197787,-6.183846 -1.202479,-6.569382 -0.558948,-0.214488 -15.027761,-0.214488 -15.586709,0 -1.075365,0.412657 -1.202654,1.342141 -1.198578,8.752192 0.0028,5.17384 0.09412,7.26956 0.337627,7.7522 0.488688,0.9686 1.791257,1.29123 5.280868,1.30799 l 3.108854,0.0149 v 2.76913 2.76913 l -10.167417,0.0751 c -9.805048,0.0725 -10.194027,0.0947 -10.914062,0.62312 -1.711013,1.25574 -1.671924,0.86013 -1.671287,16.91452 5.58e-4,14.05442 0.01856,14.58158 0.526337,15.4144 0.289168,0.47428 0.913801,1.09891 1.388074,1.38808 0.832823,0.50778 1.359982,0.52578 15.414397,0.52633 13.332584,5.3e-4 14.628111,-0.0382 15.459318,-0.46203 z m -30.552594,-1.7735 -0.649432,-0.64943 V 138.42277 124.0057 l 0.638316,-0.74236 0.638317,-0.74236 9.945016,-0.0753 9.945017,-0.0754 4.23e-4,6.55765 c 4.5e-4,7.33561 0.104936,7.85091 1.824654,8.99976 0.833885,0.55708 1.183672,0.60059 4.828633,0.60059 h 3.929623 v 6.99115 6.99116 l -0.684977,0.81405 -0.68498,0.81405 H 57.473533 42.932944 Z m 42.918623,-5.08321 c -0.09701,-0.097 -0.176389,-2.3592 -0.176389,-5.02708 v -4.85069 h 1.719791 c 1.673455,0 1.719792,0.0184 1.719792,0.68444 0,0.51752 -0.193577,0.75751 -0.79375,0.98405 -0.619821,0.23395 -0.79375,0.46082 -0.79375,1.03535 0,0.53875 0.130701,0.73574 0.488159,0.73574 0.268488,0 0.707564,0.24244 0.975728,0.53875 0.432829,0.47828 0.44918,0.64491 0.145663,1.48427 -0.290351,0.80296 -0.282551,1.00487 0.05174,1.33916 0.304752,0.30475 0.516178,0.32806 0.936281,0.10323 1.091948,-0.58439 1.896887,-0.36331 2.314273,0.63563 0.457494,1.09494 1.324353,1.25982 1.681726,0.31986 0.40735,-1.07142 1.007726,-1.38895 1.952151,-1.03247 0.676101,0.2552 0.900679,0.24315 1.20872,-0.0649 0.314807,-0.3148 0.322027,-0.51426 0.04299,-1.18791 -0.283707,-0.68493 -0.270393,-0.9087 0.08647,-1.45334 0.231995,-0.35408 0.692635,-0.6822 1.023642,-0.72917 0.385206,-0.0547 0.631758,-0.29584 0.684979,-0.67006 0.0647,-0.45494 -0.126079,-0.67208 -0.859895,-0.97869 -0.740363,-0.30934 -0.943047,-0.54283 -0.943047,-1.08638 0,-0.38079 0.130686,-0.93654 0.290412,-1.23499 0.224832,-0.42011 0.201523,-0.63153 -0.10323,-0.93628 -0.338225,-0.33823 -0.531791,-0.34369 -1.374965,-0.0388 -0.923899,0.33408 -1.010759,0.3185 -1.48427,-0.26627 -0.276622,-0.34161 -0.502947,-0.78651 -0.502947,-0.98867 0,-0.20216 -0.221615,-0.36756 -0.492477,-0.36756 -0.382637,0 -0.464275,-0.14753 -0.36603,-0.66146 l 0.126445,-0.66146 h 3.380433 c 2.838434,0 3.406179,0.0671 3.54103,0.41851 0.209539,0.54605 0.209539,13.16901 0,13.71506 -0.140902,0.36718 -1.027878,0.41851 -7.231944,0.41851 -3.88924,0 -7.150721,-0.0794 -7.247734,-0.17639 z m 6.805578,-6.81651 c -0.263437,-0.6865 0.105802,-1.25391 0.755912,-1.16159 0.437285,0.0621 0.596496,0.26125 0.596496,0.74616 0,0.48491 -0.159211,0.68407 -0.596496,0.74616 -0.35779,0.0508 -0.660291,-0.0815 -0.755912,-0.33073 z m -27.071097,-5.3459 c -0.521476,-0.66295 -0.54837,-1.02075 -0.54837,-7.29556 v -6.59843 l 3.82986,0.0857 c 5.408067,0.12096 5.012375,-0.49027 5.11276,7.89775 l 0.07908,6.60771 h -3.962479 -3.96248 z m 10.034963,-5.72909 c 0,-6.14386 -0.02617,-6.47725 -0.595312,-7.5872 -0.951601,-1.85579 -1.741739,-2.12616 -6.213581,-2.12616 h -3.77444 v -2.77812 -2.77813 h 2.654332 c 2.86835,0 4.245874,-0.37347 4.732705,-1.28312 0.157234,-0.2938 0.28588,-1.19684 0.28588,-2.00678 v -1.4726 h 4.233333 4.233333 l 5.29e-4,6.54844 c 5.29e-4,7.20144 0.105291,7.76031 1.671609,8.91088 0.664077,0.48781 1.194204,0.55728 4.828645,0.63274 l 4.082669,0.0848 v 2.73163 2.73163 l -3.198262,0.0944 c -3.124493,0.0923 -3.212981,0.11154 -3.836458,0.83637 -0.519872,0.60426 -0.638315,1.03384 -0.638315,2.3147 v 1.57275 h -4.233334 -4.233333 z m 10.105956,5.05244 0.0805,-1.40434 2.976563,-0.0748 2.976562,-0.0748 v 0.81444 c 0,0.49357 -0.234542,1.04668 -0.595312,1.40389 -0.515845,0.51076 -0.923931,0.59949 -3.057065,0.66471 l -2.461752,0.0753 z m -1.544833,-10.79482 c -1.340189,-0.54083 -1.417373,-0.9692 -1.417373,-7.86631 v -6.42342 h 3.949547 3.949546 l 0.54837,0.69714 c 0.521377,0.66283 0.54837,1.02098 0.54837,7.27604 v 6.57891 l -3.505729,-0.0168 c -1.928151,-0.009 -3.76088,-0.11974 -4.072731,-0.24558 z m 9.119576,-6.56301 c -0.09503,-7.55018 -0.133104,-7.72775 -1.88622,-8.79669 -0.736949,-0.44935 -1.346652,-0.51568 -4.748125,-0.51654 l -3.902604,-9.9e-4 v -7.03181 -7.031811 l 0.773398,-0.773398 0.773396,-0.773397 h 14.328206 14.328201 l 0.7734,0.773397 0.7734,0.773398 v 9.942231 9.94222 h -4.12394 -4.12395 l -1.69689,1.62944 -1.69689,1.62944 v 3.52994 3.52994 h -4.742736 -4.742738 z m 14.598472,3.38578 v -1.85208 h 3.30729 3.30729 v 1.85208 1.85209 h -3.30729 -3.30729 z m -51.474358,-8.53716 c -0.07072,-0.18429 -0.09675,-3.42874 -0.05784,-7.20989 l 0.07074,-6.874824 h 7.276041 7.276042 l 0.07198,4.960934 0.07198,4.96094 -2.585524,0.0453 c -3.06261,0.0536 -3.161231,0.0611 -4.133521,0.31239 -0.417409,0.1079 -1.149016,0.0647 -1.638219,-0.0968 -0.875125,-0.28881 -0.878831,-0.29688 -0.370235,-0.80547 0.96016,-0.96016 0.345843,-2.63678 -0.962302,-2.62636 -1.596628,0.0127 -2.115138,2.08645 -0.717292,2.86872 0.36409,0.20376 0.241422,0.3109 -0.667844,0.58332 -1.365653,0.40916 -1.565916,0.63803 -1.791242,2.04714 l -0.177712,1.11135 h 2.679649 c 2.50326,0 2.679649,0.0348 2.679649,0.52917 0,0.5021 -0.176389,0.52917 -3.447887,0.52917 -2.538076,0 -3.481816,-0.0884 -3.576467,-0.33508 z m 10.662375,-4.90158 c 0.478904,-0.60923 0.406839,-1.30182 -0.198438,-1.90709 -0.848442,-0.84844 -1.75426,-0.67004 -2.350949,0.46302 -0.800788,1.52063 1.475599,2.81006 2.549387,1.44407 z m -2.844271,-2.47663 c 0,-0.1121 0.446485,-0.32452 0.992188,-0.47204 2.890975,-0.78153 3.467322,-3.05486 1.082881,-4.27131 -2.454935,-1.252415 -6.308402,-0.0255 -6.308402,2.00855 0,0.70632 1.417883,1.91535 2.628494,2.24134 1.03696,0.27922 1.112078,0.35822 0.963792,1.01364 -0.15313,0.67683 -0.14165,0.68626 0.240114,0.19723 0.220513,-0.28248 0.400933,-0.60531 0.400933,-0.71741 z m -1.852083,-2.47317 c 0,-0.3638 0.119062,-0.66146 0.264583,-0.66146 0.145521,0 0.264583,0.29766 0.264583,0.66146 0,0.3638 -0.119062,0.66146 -0.264583,0.66146 -0.145521,0 -0.264583,-0.29766 -0.264583,-0.66146 z m 1.322916,-0.26458 c 0,-0.50933 0.119063,-0.92605 0.264584,-0.92605 0.145521,0 0.264583,0.41672 0.264583,0.92605 0,0.50932 -0.119062,0.92604 -0.264583,0.92604 -0.145521,0 -0.264584,-0.41672 -0.264584,-0.92604 z m 1.058334,-0.26459 c 0,-0.88194 0.102893,-1.19062 0.396875,-1.19062 0.293981,0 0.396875,0.30868 0.396875,1.19062 0,0.88195 -0.102894,1.19063 -0.396875,1.19063 -0.293982,0 -0.396875,-0.30868 -0.396875,-1.19063 z m 0.264583,10.20626 c 0,-0.47393 0.205466,-0.53445 2.050521,-0.60398 l 2.050521,-0.0773 -0.08609,-0.85989 c -0.08461,-0.84516 -0.06737,-0.8599 1.006015,-0.8599 h 1.092102 l -0.07997,1.38906 -0.07997,1.38907 -2.976562,0.0748 c -2.820586,0.0709 -2.976563,0.0472 -2.976563,-0.45189 z m 102.443134,35.64215 c 0.0688,-0.70577 0.21802,-0.8781 0.87666,-1.01239 1.75217,-0.35724 2.35156,-1.06475 2.30449,-2.72016 -0.0704,-2.47535 -3.72322,-3.37449 -5.34306,-1.31519 -0.29332,0.3729 -0.53331,0.9655 -0.53331,1.31691 0,0.72525 0.69223,2.20013 1.03263,2.20013 0.12391,0 0.1649,0.53578 0.0911,1.19063 -0.13317,1.18145 -0.12796,1.19062 0.67719,1.19062 0.72001,0 0.82074,-0.0958 0.89431,-0.85055 z m -0.82781,-2.43827 c -0.17273,-0.20813 -0.2766,-0.83104 -0.23084,-1.38425 0.0686,-0.82921 0.21344,-1.05135 0.82479,-1.26507 1.40432,-0.49094 2.5042,1.08398 1.65846,2.37475 -0.48649,0.74248 -1.73752,0.89498 -2.25241,0.27457 z m -57.23147,0.91047 c 0.51211,-0.31224 0.8599,-0.73988 0.8599,-1.05734 0,-0.76156 0.34464,-0.6581 0.73339,0.22015 0.64563,1.45857 2.67378,1.80183 4.0088,0.67848 0.67956,-0.57181 0.81406,-0.87536 0.81406,-1.83733 0,-1.69334 -0.8837,-2.63707 -2.46932,-2.63707 -1.40608,0 -2.42322,0.78035 -2.71603,2.08375 l -0.18572,0.82667 -0.25515,-0.75225 c -0.19589,-0.57755 -0.64751,-0.92829 -1.94467,-1.51029 -1.26965,-0.56965 -1.68953,-0.89104 -1.68953,-1.29323 0,-0.73617 0.96823,-0.92945 2.32112,-0.46334 1.18163,0.4071 1.38305,0.35282 1.38305,-0.37278 0,-0.48842 -0.28714,-0.62615 -1.90099,-0.91188 -2.75248,-0.48731 -4.50505,1.80551 -2.60327,3.40575 0.43308,0.36441 1.15149,0.74253 1.59647,0.84026 1.0391,0.22823 1.79102,1.28431 1.31919,1.85284 -0.41481,0.49981 -1.34313,0.5043 -2.52094,0.0122 -0.50465,-0.21085 -0.91755,-0.28012 -0.91755,-0.15393 0,0.12619 -0.0699,0.41168 -0.1554,0.63441 -0.11146,0.29048 0.0942,0.47684 0.72761,0.65923 1.43332,0.41275 2.6775,0.33513 3.59498,-0.22427 z m 2.99436,-1.02798 c -0.67315,-1.25778 -0.0672,-2.79842 1.03755,-2.63807 0.73838,0.10718 1.11855,1.15826 0.82252,2.27409 -0.24756,0.93312 -1.43149,1.16479 -1.86007,0.36398 z m 7.07921,0.93701 c 0.0492,-0.25391 -0.0831,-0.44109 -0.31183,-0.44109 -0.98639,0 -1.22893,-0.73478 -1.22893,-3.72307 v -2.89152 h -0.79375 -0.79375 v 2.89012 c 0,2.70716 0.0425,2.94056 0.67049,3.68695 0.91754,1.09043 2.28738,1.35718 2.45777,0.47861 z m 4.27777,-0.13349 c 0.50102,-0.50103 0.8102,-1.1473 0.92951,-1.94296 0.28079,-1.87243 0.11503,-2.45232 -0.72877,-2.5494 -0.71572,-0.0824 -0.7276,-0.06 -0.7276,1.37183 0,2.10171 -0.3488,2.86883 -1.2569,2.76434 -0.71605,-0.0824 -0.72869,-0.11591 -0.80475,-2.13423 l -0.0773,-2.05052 h -0.78262 -0.78262 v 1.87244 c 0,1.71676 0.0643,1.93674 0.7734,2.64583 1.05782,1.05783 2.41358,1.06671 3.45763,0.0227 z m 5.49241,0.58397 c 0.32742,-0.0877 0.5955,-0.35401 0.59574,-0.5917 2.6e-4,-0.33771 -0.26751,-0.43217 -1.22544,-0.43217 -1.0058,0 -1.31697,-0.12134 -1.73331,-0.67594 -0.73167,-0.97463 -0.29079,-2.10218 0.82196,-2.10218 0.43293,0 0.88776,0.17977 1.01072,0.3995 0.19618,0.35054 0.28695,0.35241 0.74075,0.0153 0.50975,-0.37872 0.50861,-0.39293 -0.0795,-0.9888 -0.94456,-0.95709 -2.55297,-0.84163 -3.53147,0.25349 -1.04948,1.17458 -1.04702,2.46215 0.007,3.5159 0.7875,0.7875 1.9461,0.9946 3.39379,0.60663 z m 2.57969,-2.47907 v -2.51355 l -0.72761,-0.0837 -0.7276,-0.0837 v 2.68098 2.68098 l 0.7276,-0.0837 0.72761,-0.0837 z m 4.62131,2.25356 c 0.87246,-0.45117 1.44384,-1.84736 1.18237,-2.88916 -0.0951,-0.37888 -0.54104,-0.99865 -0.99099,-1.37726 -1.65574,-1.39321 -4.15124,-0.20972 -4.15124,1.96874 0,2.15011 2.00051,3.31089 3.95986,2.29768 z m -2.25826,-1.01495 c -0.0811,-0.21138 -0.1102,-0.90396 -0.0646,-1.53907 0.0779,-1.08603 0.12969,-1.15475 0.87022,-1.15475 0.96584,0 1.45246,1.01668 1.04476,2.18281 -0.28964,0.82846 -1.59065,1.18776 -1.85034,0.51101 z m 5.49671,-0.48329 c 0.0599,-1.45614 0.18412,-1.95736 0.54076,-2.18146 0.33665,-0.21154 0.58939,-0.21154 0.92604,0 0.35663,0.2241 0.48088,0.72532 0.54076,2.18146 l 0.0777,1.89051 h 0.78216 c 0.77223,0 0.78216,-0.0186 0.78216,-1.46371 0,-2.07832 -0.51885,-3.16703 -1.69419,-3.55492 -0.7344,-0.24238 -1.16889,-0.24238 -1.90329,0 -1.17533,0.38789 -1.69419,1.4766 -1.69419,3.55492 0,1.44513 0.01,1.46371 0.78216,1.46371 h 0.78216 z m 7.48476,1.62642 c 0.89444,-0.34006 0.61392,-0.79424 -0.49056,-0.79424 -0.81393,0 -1.49251,-0.38495 -1.49251,-0.84667 0,-0.11642 0.77391,-0.21167 1.7198,-0.21167 1.6698,0 1.71979,-0.0197 1.71979,-0.67885 0,-1.02499 -0.47312,-1.70598 -1.47651,-2.12522 -2.1985,-0.9186 -4.33816,1.48157 -3.18135,3.5687 0.64552,1.16465 1.88854,1.58708 3.20134,1.08795 z m -1.92322,-3.22274 c 0.20177,-0.6053 0.9279,-0.86988 1.37319,-0.50033 0.664,0.55108 0.49394,0.81216 -0.52904,0.81216 -0.61023,0 -0.91105,-0.11112 -0.84415,-0.31183 z m 6.56607,3.21618 c 0.27814,-0.14885 0.63596,-0.51402 0.79516,-0.81149 0.39197,-0.7324 -0.25333,-1.7006 -1.47315,-2.21027 -0.50646,-0.21162 -0.92084,-0.50989 -0.92084,-0.66284 0,-0.38331 1.67297,-0.35136 2.06375,0.0394 0.24694,0.24694 0.3175,0.19021 0.3175,-0.25528 0,-1.06769 -1.96541,-1.51467 -3.11613,-0.70868 -0.66706,0.46722 -0.77326,1.48177 -0.2137,2.04133 0.20589,0.20589 0.74167,0.5265 1.19063,0.71246 0.44895,0.18596 0.81628,0.51775 0.81628,0.7373 0,0.3166 -0.24632,0.37142 -1.19062,0.26499 -1.0185,-0.1148 -1.19063,-0.0656 -1.19063,0.34041 0,0.26104 0.14883,0.53467 0.33073,0.60807 0.58805,0.23728 2.07144,0.18265 2.59102,-0.0954 z m 9.07217,-0.51941 c 1.78036,-1.56318 1.86165,-4.4986 0.16413,-5.92697 -0.89133,-0.75 -2.01441,-1.03589 -3.57073,-0.90896 l -1.04669,0.0854 -0.0744,3.42559 c -0.041,1.88408 -0.0149,3.58072 0.0578,3.77032 0.0899,0.23429 0.68292,0.34472 1.85117,0.34472 1.53081,0 1.81735,-0.0865 2.61872,-0.79006 z m -2.99809,-2.89849 c 0,-1.44662 0.0893,-2.6793 0.19844,-2.73929 0.43368,-0.23835 1.92405,0.38808 2.2145,0.9308 0.16967,0.31703 0.30849,1.20891 0.30849,1.98194 0,1.72348 -0.54812,2.45677 -1.83639,2.45677 h -0.88504 z m 6.35,1.04272 v -2.64584 h -0.79375 -0.79375 v 2.64584 2.64583 h 0.79375 0.79375 z m 8.46667,0.52916 c 0,-2.08139 0.011,-2.11666 0.66146,-2.11666 0.65043,0 0.66146,0.0353 0.66146,2.11666 0,2.08139 0.011,2.11667 0.66146,2.11667 0.65043,0 0.66145,-0.0353 0.66145,-2.11667 0,-2.09747 0.006,-2.11666 0.68086,-2.11666 0.86845,0 0.79116,-0.88513 -0.0883,-1.01059 -0.51186,-0.073 -0.59261,-0.24427 -0.59261,-1.25677 0,-1.07399 -0.0554,-1.17223 -0.66145,-1.17223 -0.60757,0 -0.66146,0.097 -0.66146,1.19063 0,1.29418 -0.0239,1.30811 -2.05052,1.19716 l -0.8599,-0.0471 v 2.6661 2.66611 h 0.79375 0.79375 z m 9.26042,0.52305 c 0,-2.04314 -0.32946,-2.81762 -1.41977,-3.33755 -1.92626,-0.91857 -3.8719,0.25797 -3.8719,2.34137 0,0.79261 0.18006,1.22307 0.75005,1.79306 0.68411,0.6841 0.91673,0.75005 2.64584,0.75005 h 1.89578 z m -3.42426,0.15688 c -0.45031,-0.54259 -0.24157,-2.28728 0.3154,-2.63615 1.04491,-0.65451 1.969,1.15458 1.26332,2.47316 -0.33603,0.62788 -1.12528,0.70935 -1.57872,0.16299 z m 6.86384,0.93843 c 0,-0.27478 -0.23593,-0.56001 -0.52598,-0.63585 -0.78423,-0.20508 -1.06152,-1.26564 -1.06152,-4.06001 v -2.51389 l -0.7276,0.0837 c -0.72373,0.0833 -0.72801,0.0958 -0.80332,2.34877 -0.0987,2.95164 0.29714,4.19581 1.53092,4.81215 1.18816,0.59355 1.5875,0.58478 1.5875,-0.0349 z m 3.30599,0.23422 c 0.89443,-0.34006 0.61391,-0.79424 -0.49056,-0.79424 -0.81393,0 -1.49251,-0.38495 -1.49251,-0.84667 0,-0.11642 0.7739,-0.21167 1.71979,-0.21167 1.66981,0 1.71979,-0.0197 1.71979,-0.67885 0,-1.02499 -0.47312,-1.70598 -1.4765,-2.12522 -2.19851,-0.9186 -4.33816,1.48157 -3.18135,3.5687 0.64551,1.16465 1.88853,1.58708 3.20134,1.08795 z m -1.92323,-3.22274 c 0.20177,-0.6053 0.92791,-0.86988 1.37319,-0.50033 0.664,0.55108 0.49394,0.81216 -0.52904,0.81216 -0.61023,0 -0.91105,-0.11112 -0.84415,-0.31183 z m 7.08391,2.95766 c 0.98118,-0.98118 0.55167,-2.10306 -1.05062,-2.74416 -0.58633,-0.23461 -1.06605,-0.54658 -1.06605,-0.69328 0,-0.37488 1.67942,-0.33356 2.06375,0.0508 0.24694,0.24694 0.3175,0.16504 0.3175,-0.36857 0,-0.76918 -0.41162,-1.00727 -1.74143,-1.00727 -1.00209,0 -1.96274,0.75692 -1.96274,1.5465 0,0.55715 0.58289,1.1294 1.6904,1.65951 1.04544,0.50042 0.78901,0.89844 -0.56592,0.87841 -0.89587,-0.0133 -1.12448,0.0764 -1.12448,0.44097 0,0.56964 0.35753,0.71886 1.78594,0.74539 0.79181,0.0147 1.28103,-0.13566 1.65365,-0.50828 z m -62.04479,-6.05658 c 0,-0.88919 -0.7827,-1.3439 -1.34515,-0.78146 -0.65893,0.65894 -0.25637,1.59932 0.64025,1.49561 0.5442,-0.0629 0.7049,-0.22575 0.7049,-0.71415 z m 32.38362,0.40158 c 0.57981,-0.69862 -0.26949,-1.66263 -1.16279,-1.31985 -0.39918,0.15318 -0.54915,1.17813 -0.22049,1.5068 0.29902,0.29902 1.06599,0.19536 1.38328,-0.18695 z m 8.46667,0 c 0.5798,-0.69862 -0.2695,-1.66263 -1.16279,-1.31985 -0.39918,0.15318 -0.54916,1.17813 -0.22049,1.5068 0.29902,0.29902 1.06599,0.19536 1.38328,-0.18695 z m -44.09591,-11.74135 0.0706,-6.81302 1.83419,4.56406 1.83419,4.56406 h 1.36231 1.36231 l 1.69829,-4.29168 1.69829,-4.29169 0.16197,5.41617 c 0.0891,2.97889 0.17838,5.92218 0.19844,6.54064 l 0.0365,1.12448 h 2.38125 2.38125 v -13.63634 -13.63635 l -2.30612,0.0764 -2.30612,0.0765 -2.57979,6.35 c -1.41889,3.4925 -2.61954,6.45722 -2.6681,6.58827 -0.0486,0.13105 -1.28085,-2.72645 -2.73841,-6.35 l -2.65012,-6.58827 -2.29754,-0.0765 -2.29755,-0.0764 v 13.63635 13.63634 h 2.37679 2.37678 z m 22.95707,3.50573 0.87132,-3.30729 h 3.2573 3.25731 l 0.5228,1.78593 c 0.28753,0.98227 0.71774,2.47055 0.95601,3.3073 l 0.43323,1.52135 h 2.49477 c 1.37212,0 2.48883,-0.0298 2.48158,-0.0661 -0.007,-0.0364 -1.76689,-6.13833 -3.91032,-13.55989 l -3.89714,-13.49375 h -2.34515 -2.34515 l -3.79005,13.22916 c -2.08454,7.27605 -3.79395,13.378 -3.7987,13.5599 -0.006,0.24163 0.6581,0.33073 2.46612,0.33073 h 2.47476 z m 2.18589,-8.13594 c 0.0692,-0.1819 0.5203,-1.86369 1.0024,-3.7373 0.98665,-3.8344 0.90769,-3.85282 1.98742,0.46362 0.36849,1.4731 0.73194,2.88673 0.80767,3.14139 0.12274,0.41271 -0.0829,0.46302 -1.89281,0.46302 -1.51514,0 -1.99857,-0.084 -1.90468,-0.33073 z m 19.24536,5.88698 v -5.55625 h 3.3073 3.30729 v 5.55625 5.55625 h 2.64823 2.64824 l -0.0686,-13.5599 -0.0685,-13.55989 h -2.51354 -2.51354 l -0.0715,5.4901 -0.0715,5.49011 h -3.29655 -3.29656 l -0.0715,-5.49011 -0.0715,-5.4901 h -2.51354 -2.51354 l -0.0685,13.55989 -0.0685,13.5599 h 2.64824 2.64823 z"
         id="path62" />
      <path
         style="fill:#cfd1d4;stroke-width:0.264583"
         d="m 72.325746,153.77421 c 0,-0.0549 0.208359,-0.2633 0.463021,-0.46302 0.419645,-0.3291 0.429003,-0.31975 0.0999,0.0999 -0.345644,0.44073 -0.562917,0.58089 -0.562917,0.36312 z m 94.191664,-5.17615 c 0,-0.42798 0.0942,-0.83634 0.20929,-0.90748 0.11511,-0.0712 0.16161,0.27902 0.10334,0.77813 -0.12981,1.11197 -0.31263,1.1876 -0.31263,0.12935 z m 17.67747,-1.25469 c 0.191,-0.0764 0.4192,-0.067 0.50712,0.0209 0.0879,0.0879 -0.0684,0.15045 -0.34726,0.13896 -0.30823,-0.0127 -0.37092,-0.0754 -0.15986,-0.15985 z m -65.54616,-0.50277 c 0.0127,-0.30822 0.0754,-0.37092 0.15985,-0.15985 0.0764,0.191 0.067,0.4192 -0.0209,0.50712 -0.0879,0.0879 -0.15045,-0.0684 -0.13896,-0.34727 z m 12.50991,-1.96232 c 0,-1.38245 0.0446,-1.948 0.0991,-1.25677 0.0545,0.69122 0.0545,1.82231 0,2.51354 -0.0545,0.69122 -0.0991,0.12567 -0.0991,-1.25677 z m 24.61526,-1.19063 c 5.3e-4,-2.03729 0.0419,-2.83575 0.0923,-1.77436 0.0503,1.06139 0.05,2.72827 -7.9e-4,3.70417 -0.0507,0.9759 -0.0919,0.10748 -0.0915,-1.92981 z m -63.405957,3.13206 c 0.181901,-0.0734 0.479557,-0.0734 0.661458,0 0.181901,0.0734 0.03307,0.13346 -0.330729,0.13346 -0.363802,0 -0.51263,-0.0601 -0.330729,-0.13346 z m 16.470317,0.0753 c 0,-0.0549 0.20835,-0.2633 0.46302,-0.46302 0.41964,-0.32911 0.429,-0.31975 0.0999,0.0999 -0.34564,0.44073 -0.56291,0.58089 -0.56291,0.36313 z m 40.55243,-0.34804 c 0.25743,-0.0671 0.61461,-0.0627 0.79375,0.01 0.17913,0.0725 -0.0315,0.12736 -0.46806,0.12197 -0.43656,-0.005 -0.58313,-0.0647 -0.32569,-0.13177 z m 41.53958,0 c 0.25743,-0.0671 0.61462,-0.0627 0.79375,0.01 0.17913,0.0725 -0.0315,0.12736 -0.46806,0.12197 -0.43656,-0.005 -0.58312,-0.0647 -0.32569,-0.13177 z m -97.437848,-0.7103 c 0,-0.0549 0.20836,-0.2633 0.463021,-0.46302 0.419645,-0.3291 0.429003,-0.31975 0.0999,0.0999 -0.345644,0.44073 -0.562917,0.58089 -0.562917,0.36312 z m -5.060833,-0.6277 c -0.329108,-0.41965 -0.319749,-0.42901 0.0999,-0.0999 0.254661,0.19972 0.463021,0.40808 0.463021,0.46302 0,0.21776 -0.217274,0.0776 -0.562917,-0.36312 z m 7.706666,0.36312 c 0,-0.0549 0.20836,-0.2633 0.463021,-0.46302 0.419645,-0.32911 0.429004,-0.31975 0.0999,0.0999 -0.345643,0.44073 -0.562917,0.58088 -0.562917,0.36312 z m 37.103045,-0.69385 c 0,-0.50933 0.0545,-0.71769 0.12101,-0.46302 0.0665,0.25466 0.0665,0.67138 0,0.92604 -0.0666,0.25466 -0.12101,0.0463 -0.12101,-0.46302 z m -23.42137,0 c 0.0761,-0.29105 0.18402,-0.52917 0.23981,-0.52917 0.0558,0 0.10143,0.23812 0.10143,0.52917 0,0.29104 -0.10791,0.52916 -0.23981,0.52916 -0.1319,0 -0.17754,-0.23812 -0.10143,-0.52916 z m 27.10593,0 c 0,-0.36381 0.0601,-0.51263 0.13346,-0.33073 0.0734,0.1819 0.0734,0.47955 0,0.66146 -0.0734,0.1819 -0.13346,0.0331 -0.13346,-0.33073 z m -46.658047,0.0838 c 0.190995,-0.0764 0.419198,-0.067 0.507119,0.0209 0.08792,0.0879 -0.06835,0.15045 -0.347266,0.13896 -0.308226,-0.0127 -0.370919,-0.0754 -0.159853,-0.15985 z m 33.727367,-1.27447 c 0.002,-0.7276 0.0534,-0.99386 0.11418,-0.59167 0.0608,0.40218 0.0592,0.99749 -0.004,1.32291 -0.0628,0.32543 -0.11256,-0.004 -0.11058,-0.73124 z m 57.69887,-1.19062 c 0,-1.38245 0.0446,-1.948 0.0991,-1.25677 0.0545,0.69122 0.0545,1.82231 0,2.51354 -0.0545,0.69122 -0.0991,0.12567 -0.0991,-1.25677 z m -20.15213,1.19062 c 0.005,-0.43656 0.0647,-0.58312 0.13177,-0.32569 0.0671,0.25743 0.0627,0.61462 -0.01,0.79375 -0.0725,0.17913 -0.12736,-0.0315 -0.12197,-0.46806 z m -34.49702,-0.31303 c 0.19099,-0.0764 0.4192,-0.067 0.50711,0.0209 0.0879,0.0879 -0.0684,0.15045 -0.34726,0.13896 -0.30823,-0.0127 -0.37092,-0.0754 -0.15985,-0.15985 z m 20.12419,-0.28228 c -0.32911,-0.41965 -0.31975,-0.429 0.0999,-0.0999 0.44073,0.34565 0.58089,0.56292 0.36313,0.56292 -0.0549,0 -0.2633,-0.20836 -0.46302,-0.46302 z m 41.53958,0 c -0.32911,-0.41965 -0.31975,-0.429 0.0999,-0.0999 0.44073,0.34565 0.58088,0.56292 0.36312,0.56292 -0.0549,0 -0.2633,-0.20836 -0.46302,-0.46302 z m -38.64503,0.0177 c 0.191,-0.0764 0.41921,-0.067 0.50712,0.0209 0.0879,0.0879 -0.0684,0.15045 -0.34726,0.13896 -0.30823,-0.0127 -0.37092,-0.0754 -0.15986,-0.15985 z m 21.93891,-0.32722 c -0.11508,-0.44009 -0.0807,-0.54339 0.11569,-0.34706 0.15375,0.15375 0.22749,0.43573 0.16386,0.62661 -0.0661,0.19816 -0.18599,0.0782 -0.27955,-0.27955 z m 3.79618,0.089 c 0.0127,-0.30823 0.0754,-0.37092 0.15985,-0.15986 0.0764,0.191 0.067,0.4192 -0.0209,0.50712 -0.0879,0.0879 -0.15045,-0.0684 -0.13896,-0.34726 z m 15.78796,0.24369 c 0.1819,-0.0734 0.47956,-0.0734 0.66146,0 0.1819,0.0734 0.0331,0.13345 -0.33073,0.13345 -0.3638,0 -0.51263,-0.06 -0.33073,-0.13345 z m -64.82291,-0.79375 c 0.1819,-0.0734 0.47955,-0.0734 0.66145,0 0.1819,0.0734 0.0331,0.13345 -0.33073,0.13345 -0.3638,0 -0.51263,-0.0601 -0.33072,-0.13345 z m 12.96458,0 c 0.1819,-0.0734 0.47956,-0.0734 0.66146,0 0.1819,0.0734 0.0331,0.13345 -0.33073,0.13345 -0.3638,0 -0.51263,-0.0601 -0.33073,-0.13345 z m 26.9875,0 c 0.1819,-0.0734 0.47956,-0.0734 0.66146,0 0.1819,0.0734 0.0331,0.13345 -0.33073,0.13345 -0.3638,0 -0.51263,-0.0601 -0.33073,-0.13345 z m -68.419163,-1.14769 c 0,-0.3638 0.06005,-0.51263 0.133453,-0.33073 0.0734,0.1819 0.0734,0.47956 0,0.66146 -0.0734,0.1819 -0.133453,0.0331 -0.133453,-0.33073 z m -9.789583,-2.11667 c 0,-0.3638 0.06006,-0.51263 0.133453,-0.33073 0.0734,0.1819 0.0734,0.47956 0,0.66146 -0.0734,0.1819 -0.133453,0.0331 -0.133453,-0.33073 z m 7.916614,-0.15434 c 0.0127,-0.30822 0.07539,-0.37092 0.15985,-0.15985 0.07643,0.19099 0.06703,0.4192 -0.02088,0.50712 -0.08792,0.0879 -0.150453,-0.0684 -0.138965,-0.34727 z m 0.209944,-1.89618 c -0.329107,-0.41964 -0.319749,-0.429 0.0999,-0.0999 0.44073,0.34564 0.580887,0.56291 0.363125,0.56291 -0.05494,0 -0.2633,-0.20836 -0.463021,-0.46302 z m -28.475103,0.002 c 0.982265,-0.0509 2.589609,-0.0509 3.571874,0 0.982266,0.0509 0.178594,0.0926 -1.785937,0.0926 -1.964531,0 -2.768203,-0.0417 -1.785937,-0.0926 z m 8.863541,-5.3e-4 c 1.200547,-0.049 3.165078,-0.049 4.365625,0 1.200547,0.049 0.218281,0.0891 -2.182813,0.0891 -2.401093,0 -3.383359,-0.0401 -2.182812,-0.0891 z m 8.73125,0.005 c 0.472943,-0.0587 1.246849,-0.0587 1.719791,0 0.472943,0.0587 0.08599,0.10671 -0.859895,0.10671 -0.945886,0 -1.332839,-0.048 -0.859896,-0.10671 z m 30.75781,-1.52839 c 0.49366,-0.50933 0.95709,-0.92604 1.02985,-0.92604 0.0728,0 -0.27161,0.41671 -0.76526,0.92604 -0.49366,0.50932 -0.95709,0.92604 -1.02985,0.92604 -0.0728,0 0.27161,-0.41672 0.76526,-0.92604 z m 50.66411,-12.7 0.004,-13.49375 h 2.51355 2.51354 l 0.0715,5.4901 0.0715,5.49011 h 3.29655 3.29655 l 0.0715,-5.49011 0.0715,-5.4901 h 2.51355 2.51354 l 0.004,13.55993 0.004,13.55993 -0.0722,-13.49379 -0.0722,-13.49378 h -2.37348 -2.37348 l -0.0715,5.4901 -0.0715,5.49011 h -3.43958 -3.43959 l -0.0715,-5.49011 -0.0715,-5.4901 h -2.37348 -2.37347 l -0.0722,13.4276 -0.0721,13.42761 0.004,-13.49375 z m 5.01077,8.06979 c 0,-3.1287 0.0383,-4.40862 0.0851,-2.84427 0.0468,1.56435 0.0468,4.12419 0,5.68854 -0.0468,1.56435 -0.0851,0.28443 -0.0851,-2.84427 z m 6.87917,0 c 0,-3.1287 0.0383,-4.40862 0.085,-2.84427 0.0468,1.56435 0.0468,4.12419 0,5.68854 -0.0468,1.56435 -0.085,0.28443 -0.085,-2.84427 z m -86.589356,3.70417 c 0,-0.36381 0.06006,-0.51263 0.133453,-0.33073 0.0734,0.1819 0.0734,0.47955 0,0.66146 -0.0734,0.1819 -0.133453,0.0331 -0.133453,-0.33073 z m 45.411706,-6.50866 c -0.0426,-2.70663 0.01,-5.05811 0.11695,-5.22552 0.10691,-0.1674 0.19621,2.04712 0.19843,4.92115 0.002,2.87404 -0.0504,5.22553 -0.11694,5.22553 -0.0665,0 -0.15584,-2.21452 -0.19844,-4.92116 z m -45.354508,1.34928 c 5.29e-4,-1.60073 0.04417,-2.22146 0.09684,-1.3794 0.05267,0.84206 0.05218,2.15174 -0.0011,2.91041 -0.05326,0.75868 -0.09635,0.0697 -0.09575,-1.53101 z m 16.768218,-1.38747 c 1.20054,-0.049 3.16507,-0.049 4.36562,0 1.20055,0.049 0.21828,0.0891 -2.18281,0.0891 -2.4011,0 -3.38336,-0.0401 -2.18281,-0.0891 z m -16.752775,-9.32815 c 0,-3.56527 0.03745,-5.02378 0.08323,-3.24115 0.04578,1.78263 0.04578,4.69966 0,6.48229 -0.04578,1.78263 -0.08323,0.32412 -0.08323,-3.24114 z m 16.223605,4.83118 c 0.9095,-0.0517 2.39779,-0.0517 3.30729,0 0.90951,0.0517 0.16537,0.0939 -1.65364,0.0939 -1.81902,0 -2.56316,-0.0423 -1.65365,-0.0939 z m -35.157188,-1.59004 c -0.329107,-0.41964 -0.319749,-0.429 0.0999,-0.0999 0.44073,0.34565 0.580888,0.56292 0.363125,0.56292 -0.05494,0 -0.2633,-0.20836 -0.463021,-0.46302 z m -2.132525,-1.04063 c 0.190994,-0.0764 0.419197,-0.067 0.507119,0.0209 0.08792,0.0879 -0.06835,0.15045 -0.347266,0.13897 -0.308226,-0.0127 -0.370919,-0.0754 -0.159853,-0.15985 z m 37.433013,-1.33863 c 0.98831,-0.051 2.53612,-0.0507 3.43958,7.9e-4 0.90345,0.0515 0.0948,0.0933 -1.79694,0.0928 -1.89177,-5.3e-4 -2.63096,-0.0426 -1.64264,-0.0936 z m -5.23653,-2.97855 c 0.86402,-0.87313 1.63047,-1.5875 1.70323,-1.5875 0.0728,0 -0.57463,0.71437 -1.43865,1.5875 -0.86401,0.87312 -1.63046,1.5875 -1.70322,1.5875 -0.0728,0 0.57462,-0.71438 1.43864,-1.5875 z M 57.9721,115.04904 c 0.909506,-0.0517 2.397787,-0.0517 3.307292,0 0.909505,0.0517 0.165365,0.0939 -1.653646,0.0939 -1.81901,0 -2.563151,-0.0423 -1.653646,-0.0939 z m 7.814869,9e-5 c 0.842057,-0.0527 2.151745,-0.0522 2.910416,10e-4 0.758672,0.0533 0.06972,0.0964 -1.531014,0.0958 -1.600729,-6.1e-4 -2.22146,-0.0442 -1.379402,-0.0968 z m 41.939361,-0.26582 c 1.20746,-0.0491 3.11246,-0.0489 4.23333,6.1e-4 1.12088,0.0495 0.13296,0.0897 -2.19537,0.0893 -2.32834,-3.5e-4 -3.24542,-0.0408 -2.03796,-0.09 z m -53.161416,-0.53056 c -0.329107,-0.41964 -0.319749,-0.429 0.09989,-0.0999 0.440729,0.34564 0.580887,0.56291 0.363126,0.56291 -0.05494,0 -0.263302,-0.20835 -0.463021,-0.46302 z m 16.437915,0.36313 c 0,-0.0549 0.20836,-0.2633 0.463021,-0.46302 0.419645,-0.32911 0.429003,-0.31975 0.0999,0.0999 -0.345644,0.44073 -0.562917,0.58089 -0.562917,0.36313 z m -13.152017,-1.15489 c 0.988318,-0.051 2.53613,-0.0507 3.439584,8.5e-4 0.903453,0.0515 0.09483,0.0933 -1.796941,0.0928 -1.891771,-4.5e-4 -2.63096,-0.0426 -1.642643,-0.0937 z m 7.936157,6.3e-4 c 0.842057,-0.0527 2.151745,-0.0522 2.910416,0.001 0.758672,0.0533 0.06972,0.0964 -1.531014,0.0957 -1.600729,-6e-4 -2.22146,-0.0442 -1.379402,-0.0968 z m -7.145427,-1.3219 c 0.695615,-0.0547 1.767177,-0.054 2.38125,0.001 0.614073,0.0555 0.04493,0.10023 -1.264754,0.0994 -1.309688,-8e-4 -1.812111,-0.0462 -1.116496,-0.10089 z m 6.275871,0.0315 c 1.553456,-0.19733 3.645283,-0.21814 3.531608,-0.0351 -0.06779,0.10914 -1.038963,0.1806 -2.158161,0.15879 -1.119199,-0.0218 -1.737249,-0.0775 -1.373447,-0.12367 z m 3.175,-1.7419 c 0,-0.1163 0.565547,-0.20205 1.256771,-0.19056 1.383355,0.023 1.271441,0.15144 -0.264584,0.30368 -0.545703,0.0541 -0.992187,0.003 -0.992187,-0.11312 z m 6.01927,-0.14372 c 1.200547,-0.049 3.165078,-0.049 4.365625,0 1.200547,0.049 0.218282,0.0891 -2.182812,0.0891 -2.401094,0 -3.383359,-0.0401 -2.182813,-0.0891 z m 9.657292,6.4e-4 c 0.982265,-0.0509 2.589609,-0.0509 3.571875,0 0.982265,0.0509 0.178594,0.0926 -1.785938,0.0926 -1.964531,0 -2.768203,-0.0416 -1.785937,-0.0926 z m 41.605725,-0.86212 -2.38125,-0.16459 2.29949,-0.05 c 1.30459,-0.0284 2.37024,0.0645 2.46301,0.21459 0.0899,0.14552 0.12673,0.24208 0.0818,0.21458 -0.045,-0.0275 -1.15332,-0.12406 -2.46301,-0.21458 z m 27.29297,-0.0661 c 0.0675,-0.10914 1.12062,-0.19844 2.34037,-0.19844 1.21975,0 2.27291,0.0893 2.34037,0.19844 0.0675,0.10914 -0.98572,0.19844 -2.34037,0.19844 -1.35466,0 -2.40783,-0.0893 -2.34037,-0.19844 z m -13.06363,-0.12866 c 0.69562,-0.0547 1.76718,-0.054 2.38125,0.001 0.61407,0.0555 0.0449,0.10023 -1.26475,0.0994 -1.30969,-7.9e-4 -1.81211,-0.0462 -1.1165,-0.10089 z m -78.96957,-0.5151 c 0.190996,-0.0764 0.419199,-0.067 0.507118,0.0209 0.08792,0.0879 -0.06835,0.15045 -0.347265,0.13896 -0.308225,-0.0127 -0.37092,-0.0754 -0.159853,-0.15985 z m 1.68869,-5.5078 c 0.0054,-0.43656 0.06469,-0.58313 0.131773,-0.32569 0.06708,0.25743 0.06267,0.61461 -0.0098,0.79375 -0.07248,0.17913 -0.127363,-0.0315 -0.121971,-0.46806 z m 0.54431,-0.26458 c 0.0029,-0.58209 0.05712,-0.78906 0.120406,-0.45994 0.06329,0.32912 0.06088,0.80537 -0.0053,1.05833 -0.06622,0.25297 -0.118003,-0.0163 -0.115066,-0.59839 z m -3.241724,-1.02594 c 0,-0.0549 0.20836,-0.2633 0.463021,-0.46302 0.419644,-0.32911 0.429002,-0.31975 0.0999,0.0999 -0.345644,0.44073 -0.562916,0.58089 -0.562916,0.36313 z m 22.754166,-7.672918 c 0,-0.05494 0.20836,-0.263301 0.463021,-0.46302 0.419645,-0.329108 0.429004,-0.31975 0.0999,0.09989 -0.345643,0.44073 -0.562917,0.580888 -0.562917,0.363126 z"
         id="path60" />
      <path
         style="fill:#b5dece;stroke-width:0.264583"
         d="m 62.915457,128.87098 c -1.61e-4,-3.63802 0.0371,-5.163 0.08281,-3.38884 0.04571,1.77416 0.04584,4.75073 2.91e-4,6.61459 -0.04554,1.86386 -0.08294,0.41227 -0.0831,-3.22575 z m 1.322308,-0.26458 c 1.73e-4,-3.4925 0.03782,-4.88466 0.08366,-3.09368 0.04584,1.79098 0.0457,4.64848 -3.18e-4,6.35 -0.04601,1.70153 -0.08352,0.23618 -0.08335,-3.25632 z m 22.71587,5.22815 c 0.842057,-0.0527 2.151745,-0.0522 2.910416,0.001 0.758672,0.0533 0.06972,0.0964 -1.531014,0.0958 -1.600729,-5.3e-4 -2.22146,-0.0442 -1.379402,-0.0968 z m 7.266381,-9e-5 c 0.909506,-0.0517 2.397787,-0.0517 3.307292,0 0.909505,0.0517 0.165364,0.0939 -1.653646,0.0939 -1.81901,0 -2.563151,-0.0423 -1.653646,-0.0939 z m -7.266381,-1.58741 c 0.842057,-0.0527 2.151745,-0.0522 2.910416,0.001 0.758672,0.0533 0.06972,0.0964 -1.531014,0.0958 -1.600729,-5.3e-4 -2.22146,-0.0442 -1.379402,-0.0968 z m 7.266381,-9e-5 c 0.909506,-0.0517 2.397787,-0.0517 3.307292,0 0.909505,0.0517 0.165364,0.0939 -1.653646,0.0939 -1.81901,0 -2.563151,-0.0423 -1.653646,-0.0939 z M 62.899718,118.02307 c 6.09e-4,-1.60073 0.04418,-2.22146 0.09684,-1.37941 0.05267,0.84206 0.05218,2.15175 -0.0011,2.91042 -0.05326,0.75867 -0.09635,0.0697 -0.09576,-1.53101 z m 1.322917,0 c 6.08e-4,-1.60073 0.04418,-2.22146 0.09684,-1.37941 0.05267,0.84206 0.05218,2.15175 -0.0011,2.91042 -0.05326,0.75867 -0.09635,0.0697 -0.09575,-1.53101 z m -1.380112,-5.15938 c 0,-0.3638 0.06005,-0.51263 0.133452,-0.33073 0.0734,0.1819 0.0734,0.47956 0,0.66146 -0.0734,0.1819 -0.133452,0.0331 -0.133452,-0.33073 z m 1.302028,0.11024 c 0.01269,-0.30822 0.07539,-0.37091 0.159852,-0.15985 0.07643,0.191 0.06703,0.4192 -0.02089,0.50712 -0.08792,0.0879 -0.150453,-0.0684 -0.138965,-0.34727 z"
         id="path58" />
      <path
         style="fill:#abb4c6;stroke-width:0.264583"
         d="m 117.56949,134.47674 c 0,-0.0455 0.38696,-0.43249 0.8599,-0.8599 l 0.8599,-0.77711 -0.77711,0.8599 c -0.72437,0.80154 -0.94269,0.98151 -0.94269,0.77711 z m -31.960007,-8.05065 c 0.975899,-0.0508 2.642774,-0.0511 3.704166,-8e-4 1.061392,0.0503 0.26293,0.0919 -1.774362,0.0923 -2.037291,5.3e-4 -2.905704,-0.0408 -1.929804,-0.0915 z m 9.258609,-8e-4 c 1.265947,-0.0484 3.409072,-0.0486 4.7625,-5.2e-4 1.353428,0.0481 0.317653,0.0877 -2.301722,0.088 -2.619375,2.6e-4 -3.726725,-0.0391 -2.460778,-0.0875 z"
         id="path56" />
      <path
         style="fill:#8ce1b7;stroke-width:0.264583"
         d="m 88.78044,148.64944 c 1.846802,-0.0454 4.942427,-0.0455 6.879166,-2.6e-4 1.936742,0.0453 0.425723,0.0824 -3.357819,0.0826 -3.783541,1.5e-4 -5.368147,-0.0369 -3.521347,-0.0823 z m 12.50017,-7.34304 c 1.5e-4,-3.78354 0.0373,-5.29456 0.0826,-3.35782 0.0453,1.93674 0.0451,5.03237 -2.7e-4,6.87917 -0.0454,1.8468 -0.0825,0.26219 -0.0823,-3.52135 z m -10.117867,-6.61458 c 0.0054,-0.43656 0.06469,-0.58313 0.131773,-0.3257 0.06708,0.25744 0.06267,0.61462 -0.0098,0.79375 -0.07248,0.17913 -0.127363,-0.0315 -0.12197,-0.46805 z m 0.04739,-5.29167 c 5.29e-4,-1.60073 0.04418,-2.22146 0.09684,-1.3794 0.05267,0.84206 0.05218,2.15174 -0.0011,2.91041 -0.05326,0.75868 -0.09635,0.0697 -0.09576,-1.53101 z m 0.01545,-10.71562 c 0,-3.56527 0.03745,-5.02378 0.08323,-3.24115 0.04578,1.78263 0.04578,4.69966 0,6.48229 -0.04578,1.78263 -0.08323,0.32412 -0.08323,-3.24114 z"
         id="path54" />
      <path
         style="fill:#e79898;stroke-width:0.264583"
         d="m 50.166892,155.52793 c 4.038203,-0.0411 10.646172,-0.0411 14.684375,0 4.038203,0.0411 0.734219,0.0747 -7.342187,0.0747 -8.076406,0 -11.380391,-0.0336 -7.342188,-0.0747 z m 0.396875,-1.3229 c 3.819922,-0.0413 10.070703,-0.0413 13.890625,0 3.819922,0.0413 0.694531,0.0751 -6.945312,0.0751 -7.639844,0 -10.765235,-0.0338 -6.945313,-0.0751 z M 40.170152,138.26369 c 0,-8.0764 0.03361,-11.38039 0.07469,-7.34219 0.04108,4.03821 0.04108,10.64618 0,14.68438 -0.04108,4.0382 -0.07469,0.73422 -0.07469,-7.34219 z m 1.322463,0 c 0,-7.63984 0.03381,-10.76523 0.07512,-6.94531 0.04132,3.81992 0.04132,10.0707 0,13.89063 -0.04132,3.81992 -0.07512,0.69453 -0.07512,-6.94532 z m 33.32966,7.01146 c 1.51e-4,-3.78354 0.03731,-5.29456 0.08258,-3.35782 0.04527,1.93674 0.04514,5.03237 -2.65e-4,6.87917 -0.04542,1.8468 -0.08245,0.26219 -0.0823,-3.52135 z m -7.94e-4,-14.41979 c 0,-3.56526 0.03745,-5.02378 0.08323,-3.24115 0.04578,1.78263 0.04578,4.69966 0,6.4823 -0.04578,1.78263 -0.08323,0.32411 -0.08323,-3.24115 z M 72.556648,122.984 c -0.329107,-0.41964 -0.319749,-0.429 0.0999,-0.0999 0.44073,0.34564 0.580887,0.56292 0.363125,0.56292 -0.05494,0 -0.2633,-0.20836 -0.463021,-0.46303 z M 40.84033,122.2888 c 0,-0.0549 0.208359,-0.2633 0.463021,-0.46303 0.419644,-0.3291 0.429002,-0.31974 0.0999,0.0999 -0.345644,0.44073 -0.562916,0.58089 -0.562916,0.36313 z m 7.474479,-1.4211 c 2.728516,-0.043 7.193359,-0.043 9.921875,0 2.728515,0.043 0.496093,0.0782 -4.960938,0.0782 -5.457031,0 -7.689453,-0.0352 -4.960937,-0.0782 z m 17.727083,0.002 c 0.982266,-0.0509 2.589609,-0.0509 3.571875,0 0.982265,0.0509 0.178594,0.0926 -1.785938,0.0926 -1.964531,0 -2.768203,-0.0416 -1.785937,-0.0926 z m -1.703255,-19.56368 c 0.190996,-0.0764 0.419199,-0.067 0.507118,0.0209 0.08792,0.0879 -0.06835,0.15045 -0.347266,0.13896 -0.308224,-0.0127 -0.370919,-0.0754 -0.159852,-0.15985 z"
         id="path52" />
      <path
         style="fill:#a9afb7;stroke-width:0.264583"
         d="m 106.79276,147.34076 c 0.25743,-0.0671 0.61462,-0.0627 0.79375,0.01 0.17913,0.0725 -0.0315,0.12736 -0.46806,0.12197 -0.43656,-0.005 -0.58312,-0.0647 -0.32569,-0.13177 z m 5.70004,0.003 c 0.191,-0.0764 0.4192,-0.067 0.50712,0.0209 0.0879,0.0879 -0.0684,0.15045 -0.34726,0.13896 -0.30823,-0.0127 -0.37092,-0.0754 -0.15986,-0.15985 z m 8.73125,0 c 0.191,-0.0764 0.4192,-0.067 0.50712,0.0209 0.0879,0.0879 -0.0684,0.15045 -0.34726,0.13896 -0.30823,-0.0127 -0.37092,-0.0754 -0.15986,-0.15985 z m 8.85204,-0.003 c 0.25743,-0.0671 0.61462,-0.0627 0.79375,0.01 0.17913,0.0725 -0.0315,0.12736 -0.46805,0.12197 -0.43657,-0.005 -0.58313,-0.0647 -0.3257,-0.13177 z m 4.09601,0.008 c 0.1819,-0.0734 0.47956,-0.0734 0.66146,0 0.1819,0.0734 0.0331,0.13345 -0.33073,0.13345 -0.3638,0 -0.51263,-0.06 -0.33073,-0.13345 z m 3.3475,-0.19382 c -0.0779,-0.20298 -0.0942,-0.82806 -0.0362,-1.38907 0.10166,-0.98342 0.10704,-0.97559 0.14992,0.21836 0.0379,1.05658 0.13187,1.2552 0.63979,1.35303 l 0.59531,0.11467 -0.60361,0.036 c -0.33199,0.0198 -0.66735,-0.13005 -0.74524,-0.33302 z m 4.3116,0.19736 c 0.47751,-0.10354 0.60062,-0.34784 0.68847,-1.36626 l 0.10698,-1.24018 -0.027,1.32292 c -0.0248,1.21522 -0.0809,1.32644 -0.68847,1.36625 -0.55573,0.0364 -0.56851,0.0232 -0.08,-0.0827 z m 14.83522,-0.0201 c 0.47555,-0.0589 1.18992,-0.0577 1.5875,0.003 0.39758,0.0604 0.008,0.10855 -0.86463,0.10707 -0.87313,-0.002 -1.19842,-0.0509 -0.72287,-0.10977 z m 5.46565,-0.16109 c -0.0745,-0.19406 -0.1005,-1.35492 -0.0578,-2.57969 0.0754,-2.16483 0.096,-2.22805 0.73901,-2.27018 0.58289,-0.0382 0.59075,-0.0282 0.0661,0.0845 -0.56295,0.12093 -0.59531,0.25533 -0.59531,2.47233 0,2.22092 0.0314,2.35049 0.59531,2.45911 l 0.59531,0.11466 -0.60361,0.036 c -0.33199,0.0198 -0.66455,-0.12275 -0.73902,-0.31681 z m 8.46667,0 c -0.0745,-0.19406 -0.1005,-1.35492 -0.0579,-2.57969 0.0754,-2.16483 0.096,-2.22805 0.73902,-2.27018 0.58289,-0.0382 0.59075,-0.0282 0.0661,0.0845 -0.56295,0.12093 -0.59532,0.25533 -0.59532,2.47233 0,2.22092 0.0314,2.35049 0.59532,2.45911 l 0.59531,0.11466 -0.60362,0.036 c -0.33199,0.0198 -0.66454,-0.12275 -0.73901,-0.31681 z m 3.1336,0.16949 c 0.25743,-0.0671 0.61462,-0.0627 0.79375,0.01 0.17913,0.0725 -0.0315,0.12736 -0.46805,0.12197 -0.43657,-0.005 -0.58313,-0.0647 -0.3257,-0.13178 z m 4.64171,0.003 c 0.191,-0.0764 0.4192,-0.067 0.50712,0.0209 0.0879,0.0879 -0.0684,0.15046 -0.34727,0.13897 -0.30822,-0.0127 -0.37092,-0.0754 -0.15985,-0.15985 z m 1.83555,0.005 c 0.1819,-0.0734 0.47956,-0.0734 0.66146,0 0.1819,0.0734 0.0331,0.13345 -0.33073,0.13345 -0.36381,0 -0.51263,-0.06 -0.33073,-0.13345 z m -34.64388,-0.79926 c 0.19099,-0.0764 0.4192,-0.067 0.50712,0.0209 0.0879,0.0879 -0.0684,0.15046 -0.34727,0.13897 -0.30822,-0.0127 -0.37092,-0.0754 -0.15985,-0.15985 z m 12.43541,0 c 0.191,-0.0764 0.41921,-0.067 0.50712,0.0209 0.0879,0.0879 -0.0684,0.15046 -0.34726,0.13897 -0.30823,-0.0127 -0.37092,-0.0754 -0.15986,-0.15985 z m 29.10417,0 c 0.191,-0.0764 0.4192,-0.067 0.50712,0.0209 0.0879,0.0879 -0.0683,0.15046 -0.34727,0.13897 -0.30822,-0.0127 -0.37092,-0.0754 -0.15985,-0.15985 z m -66.84103,-2.38055 c -0.0439,-1.46683 -0.11025,-1.64705 -0.64425,-1.7499 l -0.59532,-0.11467 0.60362,-0.036 c 0.76346,-0.0456 0.90584,0.33838 0.78327,2.11218 l -0.0984,1.42367 z m 57.16244,0.70918 c 0,-0.50933 0.0544,-0.71769 0.121,-0.46302 0.0666,0.25466 0.0666,0.67138 0,0.92604 -0.0666,0.25466 -0.121,0.0463 -0.121,-0.46302 z m -34.43633,0.11024 c 0.0127,-0.30823 0.0754,-0.37092 0.15985,-0.15985 0.0764,0.19099 0.067,0.41919 -0.0209,0.50712 -0.0879,0.0879 -0.15045,-0.0684 -0.13897,-0.34727 z m 22.51047,-0.11024 c 0,-0.36381 0.0601,-0.51263 0.13346,-0.33073 0.0734,0.1819 0.0734,0.47955 0,0.66146 -0.0734,0.1819 -0.13346,0.0331 -0.13346,-0.33073 z m 19.02912,0.11024 c 0.0127,-0.30823 0.0754,-0.37092 0.15985,-0.15985 0.0764,0.19099 0.067,0.41919 -0.0209,0.50712 -0.0879,0.0879 -0.15045,-0.0684 -0.13896,-0.34727 z m -67.43523,-2.27465 c -0.0515,-2.42562 -0.0859,-2.56736 -0.64972,-2.67595 l -0.59532,-0.11467 0.60362,-0.036 c 0.80737,-0.0482 0.88864,0.2654 0.78467,3.02762 l -0.0888,2.36031 z m 27.46225,1.79532 c 0,-0.0575 0.47625,-0.14992 1.05834,-0.20543 0.58208,-0.0555 1.05833,-0.008 1.05833,0.1045 0,0.11299 -0.47625,0.20543 -1.05833,0.20543 -0.58209,0 -1.05834,-0.047 -1.05834,-0.1045 z m 41.53959,0 c 0,-0.0575 0.47625,-0.14992 1.05833,-0.20543 0.58208,-0.0555 1.05833,-0.008 1.05833,0.1045 0,0.11299 -0.47625,0.20543 -1.05833,0.20543 -0.58208,0 -1.05833,-0.047 -1.05833,-0.1045 z m -63.16424,-2.19552 c 0.25743,-0.0671 0.61462,-0.0627 0.79375,0.01 0.17913,0.0725 -0.0315,0.12736 -0.46805,0.12197 -0.43657,-0.005 -0.58313,-0.0647 -0.3257,-0.13177 z m 7.14375,0 c 0.25743,-0.0671 0.61462,-0.0627 0.79375,0.01 0.17913,0.0725 -0.0315,0.12736 -0.46805,0.12197 -0.43657,-0.005 -0.58313,-0.0647 -0.3257,-0.13177 z m 42.46059,0.008 c 0.1819,-0.0734 0.47956,-0.0734 0.66146,0 0.1819,0.0734 0.0331,0.13345 -0.33073,0.13345 -0.3638,0 -0.51263,-0.0601 -0.33073,-0.13345 z m 2.38125,0 c 0.1819,-0.0734 0.47956,-0.0734 0.66146,0 0.1819,0.0734 0.0331,0.13345 -0.33073,0.13345 -0.3638,0 -0.51263,-0.0601 -0.33073,-0.13345 z m -18.3849,-2.39589 c 0.40218,-0.0608 0.99749,-0.0592 1.32291,0.004 0.32543,0.0628 -0.004,0.11256 -0.73124,0.11058 -0.7276,-0.002 -0.99385,-0.0534 -0.59167,-0.11419 z m 17.19931,0.007 c 0.25743,-0.0671 0.61462,-0.0627 0.79375,0.01 0.17913,0.0725 -0.0315,0.12736 -0.46805,0.12197 -0.43657,-0.005 -0.58313,-0.0647 -0.3257,-0.13177 z m 8.46667,0 c 0.25743,-0.0671 0.61462,-0.0627 0.79375,0.01 0.17913,0.0725 -0.0315,0.12736 -0.46806,0.12197 -0.43656,-0.005 -0.58312,-0.0647 -0.32569,-0.13177 z m -75.12389,-9.87081 c 0,-1.09141 0.0467,-1.53789 0.10378,-0.99219 0.0571,0.5457 0.0571,1.43867 0,1.98438 -0.0571,0.5457 -0.10378,0.0992 -0.10378,-0.99219 z m 0,-8.46667 c 0,-1.0914 0.0467,-1.53789 0.10378,-0.99219 0.0571,0.54571 0.0571,1.43868 0,1.98438 -0.0571,0.5457 -0.10378,0.0992 -0.10378,-0.99219 z m -26.432874,-5.02708 c 0,-3.56526 0.03745,-5.02378 0.08323,-3.24115 0.04578,1.78263 0.04578,4.69966 0,6.48229 -0.04578,1.78263 -0.08323,0.32412 -0.08323,-3.24114 z m 34.665734,-11.50938 c 8e-5,-5.384268 0.0354,-7.549372 0.0784,-4.81134 0.043,2.73803 0.043,7.14335 -1.5e-4,9.78959 -0.0431,2.64623 -0.0783,0.40602 -0.0782,-4.97825 z m -61.122671,1.05834 c -1.42e-4,-3.92907 0.03668,-5.57329 0.08183,-3.65384 0.04515,1.91945 0.04526,5.13413 2.58e-4,7.14375 -0.045,2.00961 -0.08194,0.43915 -0.08208,-3.48991 z m 17.693257,5.55625 c 0.0016,-0.87313 0.05088,-1.19842 0.109765,-0.72287 0.05889,0.47555 0.05767,1.18992 -0.0027,1.5875 -0.06037,0.39758 -0.108551,0.008 -0.107066,-0.86463 z m -9.656596,0.48071 c 0.190996,-0.0764 0.419199,-0.067 0.507118,0.0209 0.08792,0.0879 -0.06835,0.15046 -0.347265,0.13897 -0.308225,-0.0127 -0.37092,-0.0754 -0.159853,-0.15986 z m 9.684896,-8.15363 c 2.54e-4,-2.7649 0.03946,-3.86004 0.08713,-2.43365 0.04766,1.42638 0.04746,3.68857 -5.29e-4,5.02708 -0.04785,1.33851 -0.08685,0.17147 -0.0866,-2.59343 z m 8.736517,-1.98438 c 0,-3.856298 0.03699,-5.433876 0.0822,-3.505725 0.04521,1.928155 0.04521,5.083305 0,7.011455 -0.04521,1.92815 -0.0822,0.35058 -0.0822,-3.50573 z M 59.5596,98.643026 c 1.928151,-0.04521 5.083308,-0.04521 7.011459,0 1.928151,0.04521 0.350572,0.08219 -3.50573,0.08219 -3.856302,0 -5.43388,-0.03699 -3.505729,-0.08219 z"
         id="path50" />
      <path
         style="fill:#66db9f;stroke-width:0.264583"
         d="m 65.616587,138.25623 c -0.415819,-0.12461 -0.993554,-0.44152 -1.283858,-0.70424 -1.197139,-1.08339 -1.2674,-1.55658 -1.2674,-8.53558 0,-6.39688 0.01799,-6.62772 0.516439,-6.62772 0.496687,0 0.519456,0.25895 0.595313,6.77018 l 0.07887,6.77019 0.742358,0.63815 c 0.710499,0.61076 0.906383,0.63815 4.564062,0.63815 h 3.821705 v 0.66146 0.66146 l -3.505729,-0.0227 c -1.928151,-0.0125 -3.845943,-0.1247 -4.261763,-0.24931 z m 9.354992,-0.38941 v -0.66146 h 4.233333 4.233334 v 0.66146 0.66146 h -4.233334 -4.233333 z m 10.054167,0 c 0,-0.63278 0.06951,-0.66146 1.603115,-0.66146 0.922039,0 1.538444,0.10464 1.450893,0.2463 -0.08372,0.13547 -0.03122,0.32109 0.116676,0.41249 0.672703,0.41575 0.130096,0.66413 -1.450893,0.66413 -1.658056,0 -1.719791,-0.0237 -1.719791,-0.66146 z m 4.947083,-0.91862 c 0.742707,-0.31257 1.487252,-1.74104 1.33167,-2.55492 -0.09883,-0.51699 -0.0099,-0.6275 0.504811,-0.6275 0.517798,0 0.624769,0.1359 0.624769,0.79375 0,0.43656 -0.09444,0.79375 -0.209868,0.79375 -0.115429,0 -0.323789,0.38695 -0.46302,0.85989 -0.226201,0.76834 -0.365837,0.86628 -1.311487,0.91982 -0.860039,0.0487 -0.949389,0.0141 -0.476875,-0.18479 z m 1.347635,-14.09636 c 0.04235,-5.2752 0.0047,-9.99153 -0.08368,-10.48073 -0.08838,-0.4892 -0.445042,-1.17381 -0.792586,-1.52136 l -0.631896,-0.63189 H 78.952354 c -6.405393,0 -10.859941,-0.0995 -10.859941,-0.24254 0,-0.13339 -0.506016,-0.4241 -1.124479,-0.64602 -1.033751,-0.37094 -0.152191,-0.3994 10.92609,-0.35278 13.380399,0.0563 12.888642,-0.009 14.02253,1.85103 0.487841,0.80008 0.515599,1.40361 0.516535,11.23041 l 9.9e-4,10.3849 -0.595313,1.3e-4 -0.595312,1.3e-4 z m -28.255135,-6.28398 c 0,-4.05695 0.02205,-4.23334 0.529167,-4.23334 0.507118,0 0.529167,0.17639 0.529167,4.23334 0,4.05694 -0.02205,4.23333 -0.529167,4.23333 -0.507118,0 -0.529167,-0.17639 -0.529167,-4.23333 z m 1.975745,-6.43393 c -0.107924,-0.26758 -0.06297,-0.61177 0.10138,-0.77611 0.435584,-0.43559 0.615402,-0.10238 0.336309,0.62319 -0.219252,0.57 -0.263268,0.58537 -0.437689,0.15292 z"
         id="path48" />
      <path
         style="fill:#dc6666;stroke-width:0.264583"
         d="m 41.845383,155.00422 c -1.605019,-0.9955 -1.570761,-0.60112 -1.482442,-17.06631 l 0.08051,-15.01015 0.864847,-0.86485 0.864848,-0.86484 15.010152,-0.0688 c 14.687099,-0.0673 15.029001,-0.0572 15.885971,0.46882 1.652029,1.01404 1.637723,0.86726 1.637723,16.80252 0,15.69765 0.03465,15.31262 -1.485604,16.50845 -0.69379,0.54574 -0.886597,0.55244 -15.681848,0.54549 -13.543946,-0.006 -15.047916,-0.0495 -15.694161,-0.45035 z m 30.900307,-1.47559 0.638389,-0.74236 v -14.54936 -14.54935 l -0.649433,-0.64944 -0.64943,-0.64943 H 57.53586 42.986505 l -0.742358,0.63855 -0.742359,0.63855 v 14.55368 14.55367 l 0.628194,0.66869 c 0.345506,0.36777 0.881287,0.72031 1.190625,0.78342 0.309337,0.0631 6.91289,0.0992 14.674561,0.0802 l 14.11213,-0.0345 z"
         id="path46" />
      <path
         style="fill:#848c96;stroke-width:0.264583"
         d="m 165.53026,149.19284 c 0.25743,-0.0671 0.61462,-0.0627 0.79375,0.01 0.17913,0.0725 -0.0315,0.12736 -0.46806,0.12197 -0.43656,-0.005 -0.58312,-0.0647 -0.32569,-0.13178 z m -15.875,-1.85208 c 0.25743,-0.0671 0.61462,-0.0627 0.79375,0.01 0.17913,0.0725 -0.0315,0.12736 -0.46806,0.12197 -0.43656,-0.005 -0.58312,-0.0647 -0.32569,-0.13177 z m 41.53958,0 c 0.25743,-0.0671 0.61462,-0.0627 0.79375,0.01 0.17913,0.0725 -0.0315,0.12736 -0.46805,0.12197 -0.43657,-0.005 -0.58313,-0.0647 -0.3257,-0.13177 z m -52.37669,-1.53644 c 0.002,-0.87313 0.0509,-1.19842 0.10976,-0.72287 0.0589,0.47555 0.0577,1.18993 -0.003,1.5875 -0.0604,0.39758 -0.10855,0.008 -0.10706,-0.86463 z m 2.37855,0.13229 c 0,-0.80036 0.0496,-1.12779 0.11022,-0.7276 0.0606,0.40018 0.0606,1.05502 0,1.4552 -0.0606,0.40019 -0.11022,0.0728 -0.11022,-0.7276 z m 22.24109,-1.05833 c 0,-1.38245 0.0446,-1.948 0.0991,-1.25677 0.0545,0.69122 0.0545,1.82231 0,2.51354 -0.0545,0.69122 -0.0991,0.12567 -0.0991,-1.25677 z m 8.46667,0 c 0,-1.38245 0.0446,-1.948 0.0991,-1.25677 0.0545,0.69122 0.0545,1.82231 0,2.51354 -0.0545,0.69122 -0.0991,0.12567 -0.0991,-1.25677 z m 9.24071,1.19062 c 0.002,-0.7276 0.0534,-0.99386 0.11418,-0.59167 0.0608,0.40218 0.0592,0.99749 -0.004,1.32291 -0.0628,0.32543 -0.11256,-0.004 -0.11058,-0.73124 z m -32.86312,0.50712 c 0.0127,-0.30823 0.0754,-0.37092 0.15985,-0.15985 0.0764,0.19099 0.067,0.41919 -0.0209,0.50712 -0.0879,0.0879 -0.15045,-0.0684 -0.13896,-0.34727 z m -35.78925,-0.0264 c 0.191,-0.0764 0.4192,-0.067 0.50712,0.0209 0.0879,0.0879 -0.0684,0.15045 -0.34726,0.13897 -0.30823,-0.0127 -0.37092,-0.0754 -0.15986,-0.15986 z m 8.73125,0 c 0.191,-0.0764 0.4192,-0.067 0.50712,0.0209 0.0879,0.0879 -0.0684,0.15045 -0.34726,0.13897 -0.30823,-0.0127 -0.37092,-0.0754 -0.15986,-0.15986 z m 12.96459,0 c 0.19099,-0.0764 0.4192,-0.067 0.50711,0.0209 0.0879,0.0879 -0.0684,0.15045 -0.34726,0.13897 -0.30823,-0.0127 -0.37092,-0.0754 -0.15985,-0.15986 z m -9.6884,-1.53904 c 0.005,-0.43656 0.0647,-0.58313 0.13178,-0.3257 0.0671,0.25744 0.0627,0.61462 -0.01,0.79375 -0.0725,0.17913 -0.12736,-0.0315 -0.12197,-0.46805 z m 20.03026,0.31637 c 0.11768,-0.11703 0.91592,-0.17507 1.77387,-0.12896 l 1.55992,0.0838 -1.77387,0.12897 c -0.97563,0.0709 -1.67759,0.0332 -1.55992,-0.0838 z m 41.53958,0 c 0.11768,-0.11703 0.91592,-0.17507 1.77387,-0.12896 l 1.55992,0.0838 -1.77387,0.12897 c -0.97563,0.0709 -1.67759,0.0332 -1.55992,-0.0838 z m -67.09568,-1.37471 c 0.002,-0.87312 0.0509,-1.19841 0.10976,-0.72286 0.0589,0.47555 0.0577,1.18992 -0.003,1.5875 -0.0604,0.39758 -0.10855,0.008 -0.10706,-0.86464 z m 57.10979,0.92605 c 0,-0.36381 0.06,-0.51263 0.13345,-0.33073 0.0734,0.1819 0.0734,0.47955 0,0.66146 -0.0734,0.1819 -0.13345,0.0331 -0.13345,-0.33073 z m 3.71397,-0.1323 c 0.005,-0.43656 0.0647,-0.58312 0.13177,-0.32569 0.0671,0.25743 0.0627,0.61462 -0.01,0.79375 -0.0725,0.17913 -0.12736,-0.0315 -0.12197,-0.46806 z m -63.98537,-2.24895 c 0,-1.38245 0.0446,-1.948 0.0991,-1.25677 0.0545,0.69122 0.0545,1.82231 0,2.51354 -0.0545,0.69122 -0.0991,0.12567 -0.0991,-1.25677 z m 32.46926,1.16857 c 0.0127,-0.30822 0.0754,-0.37092 0.15985,-0.15985 0.0764,0.191 0.067,0.4192 -0.0209,0.50712 -0.0879,0.0879 -0.15045,-0.0683 -0.13896,-0.34727 z m 1.03744,-0.0946 c 0,-0.13694 0.1177,-0.32172 0.26156,-0.41062 0.14998,-0.0927 0.19433,0.0135 0.10398,0.24897 -0.17589,0.45836 -0.36554,0.54223 -0.36554,0.16165 z m 2.23006,-0.52536 c 0,-0.28036 0.0935,-0.45193 0.20789,-0.38126 0.11434,0.0707 0.20789,0.30005 0.20789,0.50974 0,0.20969 -0.0935,0.38126 -0.20789,0.38126 -0.11434,0 -0.20789,-0.22938 -0.20789,-0.50974 z m 20.98713,0.0699 c 0.1819,-0.0734 0.47956,-0.0734 0.66146,0 0.1819,0.0734 0.0331,0.13345 -0.33073,0.13345 -0.3638,0 -0.51263,-0.06 -0.33073,-0.13345 z m 2.38125,0 c 0.1819,-0.0734 0.47956,-0.0734 0.66146,0 0.1819,0.0734 0.0331,0.13345 -0.33073,0.13345 -0.3638,0 -0.51263,-0.06 -0.33073,-0.13345 z M 150.0471,142.3218 c 0.1819,-0.0734 0.47956,-0.0734 0.66146,0 0.1819,0.0734 0.0331,0.13345 -0.33073,0.13345 -0.3638,0 -0.51263,-0.0601 -0.33073,-0.13345 z m 41.53958,0 c 0.1819,-0.0734 0.47956,-0.0734 0.66146,0 0.1819,0.0734 0.0331,0.13345 -0.33073,0.13345 -0.3638,0 -0.51263,-0.0601 -0.33073,-0.13345 z M 74.758576,137.86682 c 0.0054,-0.43656 0.06469,-0.58313 0.131773,-0.3257 0.06708,0.25744 0.06267,0.61462 -0.0098,0.79375 -0.07248,0.17913 -0.127362,-0.0315 -0.12197,-0.46805 z m 29.044944,-3.24115 -1.71215,-1.78594 1.78594,1.71215 c 1.65885,1.59032 1.90688,1.85973 1.71215,1.85973 -0.0406,0 -0.84426,-0.80367 -1.78594,-1.78594 z m 15.13067,-2.18281 c 0,-0.3638 0.0601,-0.51263 0.13345,-0.33073 0.0734,0.1819 0.0734,0.47956 0,0.66146 -0.0734,0.1819 -0.13345,0.0331 -0.13345,-0.33073 z m 0.061,-10.98021 c 5.3e-4,-1.89177 0.0426,-2.63096 0.0936,-1.64264 0.0511,0.98832 0.0507,2.53613 -7.9e-4,3.43958 -0.0515,0.90345 -0.0933,0.0948 -0.0928,-1.79694 z m -55.731443,-0.5721 c 0.181901,-0.0734 0.479557,-0.0734 0.661458,0 0.181901,0.0734 0.03307,0.13345 -0.330729,0.13345 -0.363802,0 -0.51263,-0.0601 -0.330729,-0.13345 z m 52.684473,-5.57946 c -0.3291,-0.41965 -0.31974,-0.429 0.0999,-0.0999 0.25466,0.19972 0.46302,0.40808 0.46302,0.46302 0,0.21776 -0.21727,0.0776 -0.56292,-0.36312 z M 60.35335,108.9843 c 0.181901,-0.0734 0.479558,-0.0734 0.661459,0 0.181901,0.0734 0.03307,0.13345 -0.330729,0.13345 -0.363803,0 -0.512631,-0.0601 -0.33073,-0.13345 z"
         id="path44" />
      <path
         style="fill:#74899a;stroke-width:0.264583"
         d="m 91.947804,145.94592 c -0.327232,-0.9387 -1.366475,-1.29831 -2.303217,-0.79698 -0.490929,0.26274 -0.716925,0.26783 -1.012176,0.0228 -0.330036,-0.2739 -0.328044,-0.41987 0.01513,-1.10779 0.354068,-0.70974 0.351033,-0.85982 -0.02912,-1.44 -0.233407,-0.35622 -0.720529,-0.72201 -1.082489,-0.81285 -0.926791,-0.23262 -0.852702,-1.04655 0.126328,-1.38784 0.979461,-0.34144 1.301935,-1.3657 0.712972,-2.26457 -0.37743,-0.57603 -0.374232,-0.66541 0.03715,-1.0377 0.32675,-0.29571 0.578591,-0.3355 0.918705,-0.14516 0.257706,0.14422 0.852945,0.2251 1.32275,0.17973 0.706164,-0.0682 0.898064,-0.2315 1.107347,-0.94238 0.338058,-1.1483 1.228302,-1.18397 1.650243,-0.0661 0.38267,1.01381 1.296189,1.38178 2.237177,0.90113 0.601479,-0.30722 0.74799,-0.30142 1.03207,0.0409 0.265301,0.31967 0.263872,0.52451 -0.0072,1.03098 -0.487575,0.91104 -0.154618,1.87002 0.784301,2.25893 1.034362,0.42845 1.005851,1.08972 -0.06851,1.5889 -0.931748,0.43292 -1.242038,1.40932 -0.743749,2.34038 0.406146,0.7589 -0.212084,1.19834 -1.172284,0.83328 -0.851701,-0.32382 -1.828657,0.16335 -2.110898,1.05262 -0.258027,0.81297 -1.095875,0.66595 -1.414555,-0.24822 z m 1.646568,-2.95405 c 1.315606,-0.59943 1.517692,-2.71751 0.338103,-3.54372 -0.840356,-0.58861 -1.96106,-0.48126 -2.701046,0.25873 -0.710042,0.71003 -0.807855,1.35921 -0.354666,2.35386 0.486129,1.06694 1.589685,1.44505 2.717609,0.93113 z m 97.264708,0.57911 c 0,-0.13694 0.1177,-0.32172 0.26155,-0.41062 0.14998,-0.0927 0.19434,0.0135 0.10398,0.24897 -0.17589,0.45836 -0.36553,0.54223 -0.36553,0.16165 z m -48.03121,-20.65312 c 0,-7.49432 0.0339,-10.56018 0.0753,-6.81302 0.0414,3.74716 0.0414,9.87888 0,13.62604 -0.0414,3.74716 -0.0753,0.6813 -0.0753,-6.81302 z m -25.65525,3.43958 c 0.86402,-0.87312 1.63047,-1.5875 1.70323,-1.5875 0.0728,0 -0.57463,0.71438 -1.43865,1.5875 -0.86401,0.87313 -1.63046,1.5875 -1.70322,1.5875 -0.0728,0 0.57462,-0.71437 1.43864,-1.5875 z m 0.39687,-9.39271 c -0.64268,-0.65484 -1.10897,-1.19062 -1.03621,-1.19062 0.0728,0 0.65812,0.53578 1.3008,1.19062 0.64268,0.65485 1.10898,1.19063 1.03622,1.19063 -0.0728,0 -0.65812,-0.53578 -1.30081,-1.19063 z M 91.045016,93.08628 c 3.819922,-0.04132 10.070704,-0.04132 13.890624,0 3.81992,0.04132 0.69453,0.07513 -6.945311,0.07513 -7.639844,0 -10.765234,-0.03381 -6.945313,-0.07513 z m -0.132291,-1.322924 c 3.892682,-0.04124 10.262525,-0.04124 14.155205,0 3.89268,0.04124 0.70776,0.07498 -7.077601,0.07498 -7.785365,0 -10.970286,-0.03374 -7.077604,-0.07498 z"
         id="path42" />
      <path
         style="fill:#a6b418;stroke-width:0.264583"
         d="m 63.135621,105.86872 c 0.0456,-0.37709 -0.14794,-0.55783 -0.73175,-0.68335 -3.577936,-0.76926 -3.785198,-3.58013 -0.332536,-4.50984 2.797983,-0.753416 5.725961,1.13957 4.707144,3.04325 -0.343279,0.64142 -1.823509,1.47199 -2.623361,1.47199 -0.263867,0 -0.615149,0.2679 -0.780628,0.59532 -0.255756,0.50605 -0.291573,0.51844 -0.238869,0.0826 z m -0.599458,-2.66232 c 0,-0.41157 -0.149931,-0.66146 -0.396875,-0.66146 -0.246945,0 -0.396875,0.24989 -0.396875,0.66146 0,0.41157 0.14993,0.66146 0.396875,0.66146 0.246944,0 0.396875,-0.24989 0.396875,-0.66146 z m 1.058333,-0.26458 c 0,-0.64676 -0.119692,-0.92605 -0.396875,-0.92605 -0.277182,0 -0.396875,0.27929 -0.396875,0.92605 0,0.64676 0.119693,0.92604 0.396875,0.92604 0.277183,0 0.396875,-0.27928 0.396875,-0.92604 z m 1.322917,-0.39688 c 0,-0.99954 -0.09701,-1.32292 -0.396875,-1.32292 -0.299861,0 -0.396875,0.32338 -0.396875,1.32292 0,0.99954 0.09701,1.32292 0.396875,1.32292 0.299861,0 0.396875,-0.32338 0.396875,-1.32292 z"
         id="path40" />
      <path
         style="fill:#3e9d84;stroke-width:0.264583"
         d="m 83.548532,143.42307 c 2.54e-4,-2.7649 0.03946,-3.86004 0.08713,-2.43366 0.04766,1.42639 0.04746,3.68858 -5.29e-4,5.02709 -0.04792,1.33851 -0.08692,0.17146 -0.08666,-2.59343 z m 1.322454,-0.13229 c 0,-2.69214 0.03929,-3.79347 0.08731,-2.4474 0.04802,1.34607 0.04802,3.54872 0,4.89479 -0.04802,1.34607 -0.08731,0.24474 -0.08731,-2.44739 z m -1.350754,-7.54063 c 0.0016,-0.87312 0.05088,-1.19841 0.109765,-0.72286 0.05889,0.47554 0.05767,1.18992 -0.0027,1.5875 -0.06037,0.39757 -0.10855,0.008 -0.107066,-0.86464 z m 1.320215,0.13229 c 0,-0.80036 0.0496,-1.12778 0.110223,-0.7276 0.06062,0.40018 0.06062,1.05502 0,1.45521 -0.06062,0.40018 -0.110223,0.0728 -0.110223,-0.72761 z m 7.645212,-10.18646 c 0.0054,-0.43656 0.06469,-0.58312 0.131773,-0.32569 0.06708,0.25743 0.06267,0.61462 -0.0098,0.79375 -0.07248,0.17913 -0.127362,-0.0315 -0.12197,-0.46806 z M 62.852326,114.3189 c 0.0054,-0.43656 0.06469,-0.58312 0.131774,-0.32569 0.06708,0.25743 0.06267,0.61461 -0.0098,0.79375 -0.07248,0.17913 -0.127363,-0.0315 -0.121971,-0.46806 z m 1.322917,0 c 0.0054,-0.43656 0.06469,-0.58312 0.131774,-0.32569 0.06708,0.25743 0.06267,0.61461 -0.0098,0.79375 -0.07248,0.17913 -0.127363,-0.0315 -0.121971,-0.46806 z m -0.911476,-2.1596 c 0.181901,-0.0734 0.479557,-0.0734 0.661458,0 0.181901,0.0734 0.03307,0.13345 -0.330729,0.13345 -0.363802,0 -0.51263,-0.0601 -0.330729,-0.13345 z"
         id="path38" />
      <path
         style="fill:#475d94;stroke-width:0.264583"
         d="m 82.458904,125.83899 c -1.590128,-0.96956 -1.666492,-1.37645 -1.666492,-8.87952 v -6.77842 l 0.595313,0.0846 0.595312,0.0845 0.07058,6.7973 0.07058,6.79731 0.692706,0.54488 c 0.626348,0.49269 1.056796,0.54489 4.493482,0.54489 h 3.800776 v 0.66145 0.66146 l -3.902604,-10e-4 c -3.40388,-7.9e-4 -4.01085,-0.067 -4.749654,-0.51746 z m 10.239758,-0.14301 v -0.66145 h 4.7625 4.762498 v 0.66145 0.66146 h -4.762498 -4.7625 z m 21.259118,-4.10104 c 0,-1.23693 0.0456,-1.74294 0.10128,-1.12448 0.0557,0.61847 0.0557,1.6305 0,2.24896 -0.0557,0.61846 -0.10128,0.11245 -0.10128,-1.12448 z m -0.0924,-16.88721 V 94.435098 l -0.68277,-0.641433 -0.68278,-0.641433 H 97.990329 83.480878 l -0.682776,0.641433 -0.682773,0.641433 v 7.229922 7.22992 h -0.673076 -0.673076 l 0.07776,-7.56132 0.07776,-7.561323 0.988301,-0.905345 0.988303,-0.905345 h 15.049455 c 14.860924,0 15.058254,0.0069 15.751874,0.552528 1.48167,1.165482 1.48561,1.197968 1.48561,12.266625 v 10.1996 h -0.66146 -0.66146 z"
         id="path36" />
      <path
         style="fill:#556373;stroke-width:0.264583"
         d="m 165.19449,148.64132 c 0,-0.25867 0.18535,-0.73492 0.41188,-1.05834 0.36145,-0.51603 0.36328,-0.58804 0.015,-0.58804 -0.9981,0 -1.63104,-2.48624 -0.88149,-3.46251 1.28555,-1.67438 4.31431,-1.24944 4.95614,0.69535 0.5329,1.61466 -0.36346,3.03175 -1.91767,3.03175 -0.7917,0 -1.26094,0.46276 -1.26094,1.24354 0,0.47272 -0.14763,0.60854 -0.66146,0.60854 -0.45747,0 -0.66146,-0.14504 -0.66146,-0.47029 z m 2.95573,-2.34884 c 0.60605,-0.54847 0.65166,-2.26848 0.0729,-2.74882 -0.6132,-0.50891 -1.98524,-0.42305 -2.40461,0.15046 -1.22495,1.67523 0.82615,3.96088 2.33172,2.59836 z m -41.71718,1.0392 c -1.0569,-0.24962 -1.7198,-1.153 -1.7198,-2.34371 0,-0.92694 0.14092,-1.23956 0.81406,-1.80597 0.968,-0.81452 2.06379,-0.87988 2.92695,-0.17459 0.51602,0.42165 0.56425,0.57116 0.27741,0.8599 -0.28753,0.28944 -0.3921,0.26993 -0.60846,-0.11351 -0.29333,-0.51988 -1.07223,-0.59995 -1.83985,-0.18913 -0.35157,0.18815 -0.51177,0.55485 -0.51177,1.17142 0,1.23209 1.06042,2.07488 2.44458,1.94288 1.15038,-0.1097 1.34359,0.22831 0.2674,0.46781 -1.31759,0.29323 -1.51607,0.31112 -2.05052,0.1849 z m -21.23282,-0.25888 c -0.37217,-0.0717 -0.59531,-0.30611 -0.59531,-0.62543 0,-0.52597 0.38605,-0.6918 0.64292,-0.27617 0.2497,0.40402 1.96473,0.59821 2.54423,0.28808 0.38757,-0.20742 0.52465,-0.50215 0.46673,-1.00349 -0.0647,-0.55983 -0.36938,-0.84957 -1.4421,-1.37126 -1.81583,-0.8831 -2.21254,-1.25738 -2.20773,-2.08292 0.005,-0.84325 0.21347,-1.18304 0.97075,-1.58164 1.20692,-0.63528 3.7877,-0.19675 3.7877,0.64361 0,0.30646 -0.13435,0.37713 -0.46302,0.24357 -1.88862,-0.76746 -3.24114,-0.60386 -3.24114,0.39205 0,0.39831 0.44139,0.75584 1.69838,1.3757 2.31173,1.13996 2.84755,2.30857 1.62093,3.53519 -0.52368,0.52368 -0.89511,0.64246 -1.91823,0.61341 -0.69784,-0.0198 -1.53668,-0.0876 -1.86411,-0.1507 z m 6.1156,-0.12273 c -1.31052,-0.63456 -1.50917,-2.55174 -0.38126,-3.67965 1.91031,-1.91031 4.84436,-0.0576 3.99318,2.52156 -0.42995,1.30275 -2.16455,1.85892 -3.61192,1.15809 z m 2.03774,-0.4936 c 0.40093,-0.21457 0.51177,-0.55963 0.51177,-1.59317 0,-1.13173 -0.0893,-1.35996 -0.62799,-1.60542 -1.11404,-0.50758 -1.75326,0.0818 -1.75326,1.61656 0,0.95941 0.12143,1.37118 0.46302,1.57014 0.59222,0.34494 0.78116,0.34654 1.40646,0.0119 z m 3.81906,0.48349 c -1.03539,-0.5938 -1.17357,-1.05899 -1.18221,-3.97991 -0.008,-2.67069 0.0239,-2.84427 0.52075,-2.84427 0.4936,0 0.52917,0.17639 0.52917,2.62419 0,3.01343 0.10275,3.41279 0.96212,3.73953 0.34396,0.13077 0.62538,0.35977 0.62538,0.50889 0,0.35824 -0.79207,0.33188 -1.45521,-0.0484 z m 2.68151,-0.2288 c -0.63326,-0.49813 -0.69714,-0.7163 -0.69714,-2.38125 0,-1.65649 0.0509,-1.83288 0.52917,-1.83288 0.47429,0 0.52917,0.17639 0.52917,1.70089 0,2.21205 0.60059,2.93763 1.86948,2.25855 0.43077,-0.23054 0.51177,-0.56556 0.51177,-2.11667 0,-1.81112 0.0119,-1.84277 0.69228,-1.84277 0.68653,0 0.69138,0.0142 0.58332,1.71124 -0.0856,1.34387 -0.2441,1.85508 -0.73841,2.38125 -0.80084,0.85247 -2.28076,0.90735 -3.27964,0.12164 z m 9.8862,-1.83288 c 0,-2.36361 0.005,-2.38125 0.66146,-2.38125 0.65655,0 0.66145,0.0176 0.66145,2.38125 0,2.36361 -0.005,2.38125 -0.66145,2.38125 -0.65656,0 -0.66146,-0.0177 -0.66146,-2.38125 z m 2.99733,1.74787 c -0.58862,-0.50631 -0.73635,-0.85697 -0.73635,-1.74787 0,-0.89091 0.14773,-1.24157 0.73635,-1.74788 1.63067,-1.40264 4.14642,-0.32663 4.14642,1.77346 0,0.73865 -0.68903,1.99428 -1.20248,2.19131 -0.93597,0.35917 -2.2187,0.1548 -2.94394,-0.46902 z m 2.5626,-0.2971 c 0.5197,-0.6262 0.42256,-2.53029 -0.15046,-2.94929 -0.63305,-0.4629 -1.04552,-0.44639 -1.55411,0.0622 -0.59198,0.59197 -0.55961,2.64916 0.0472,3.00261 0.66629,0.38808 1.27456,0.34568 1.65733,-0.11553 z m 2.38345,-0.72317 c 0.008,-2.29947 0.54293,-2.97656 2.3508,-2.97656 1.84867,0 2.22921,0.44793 2.36093,2.77897 0.0965,1.70865 0.0639,1.85124 -0.4236,1.85124 -0.46346,0 -0.54187,-0.21471 -0.63975,-1.75178 -0.11783,-1.85049 -0.60787,-2.60138 -1.49717,-2.29412 -0.80058,0.27661 -1.09876,0.95747 -1.09876,2.50897 0,1.36054 -0.0607,1.53693 -0.52917,1.53693 -0.47335,0 -0.52854,-0.17443 -0.52328,-1.65365 z m 6.58577,1.3145 c -0.60438,-0.46403 -1.0354,-1.37042 -1.0354,-2.17735 0,-0.85013 1.31101,-2.246 2.10945,-2.246 1.03594,0 2.09856,0.7546 2.33333,1.65697 l 0.22284,0.85657 -1.80364,0.0777 c -0.99201,0.0427 -1.80365,0.16509 -1.80365,0.27185 0,0.10677 0.19327,0.47005 0.42949,0.8073 0.33849,0.48326 0.61878,0.59108 1.32292,0.50888 0.92595,-0.1081 1.20675,0.14176 0.47491,0.42259 -0.67404,0.25865 -1.79684,0.16956 -2.25025,-0.17855 z m 2.40418,-2.65065 c 0,-0.97849 -1.63923,-1.34189 -2.10736,-0.46718 -0.41295,0.77161 -0.36828,0.81114 0.91674,0.81114 0.80053,0 1.19062,-0.11269 1.19062,-0.34396 z m 1.85174,2.65907 c -2.2e-4,-0.21251 0.39967,-0.33073 1.1187,-0.33073 0.85548,0 1.14059,-0.10929 1.21056,-0.46403 0.0663,-0.33628 -0.24163,-0.60683 -1.1187,-0.98278 -1.04155,-0.44647 -1.21022,-0.62618 -1.21022,-1.28952 0,-1.03919 0.53427,-1.4132 1.87811,-1.31474 1.49233,0.10934 1.67382,0.66596 0.20703,0.6349 -1.39399,-0.0295 -1.60498,0.46519 -0.44836,1.0513 1.82947,0.92708 2.24773,1.74792 1.31895,2.58844 -0.58887,0.53293 -2.95554,0.61872 -2.95607,0.10716 z m 7.40868,-3.27101 v -3.60173 l 1.8392,0.10393 c 1.49294,0.0844 1.96699,0.22398 2.51799,0.74161 1.51585,1.42407 1.52236,3.97087 0.014,5.47921 -0.81771,0.81771 -0.99994,0.87872 -2.62496,0.87872 h -1.74625 z m 3.5839,2.42314 c 0.51957,-0.51957 0.64943,-0.919 0.64943,-1.99752 0,-2.15568 -0.72842,-3.17388 -2.2706,-3.17388 -0.63792,0 -0.63982,0.009 -0.63982,2.91041 v 2.91042 h 0.80578 c 0.50274,0 1.05002,-0.24424 1.45521,-0.64943 z m 2.7661,-1.20265 c 0,-2.20486 0.0392,-2.38125 0.52916,-2.38125 0.48997,0 0.52917,0.17639 0.52917,2.38125 0,2.20486 -0.0392,2.38125 -0.52917,2.38125 -0.48996,0 -0.52916,-0.17639 -0.52916,-2.38125 z m 8.46666,0 c 0,-2.20486 0.0392,-2.38125 0.52917,-2.38125 0.48997,0 0.52917,0.17639 0.52917,2.38125 0,2.20486 -0.0392,2.38125 -0.52917,2.38125 -0.48997,0 -0.52917,-0.17639 -0.52917,-2.38125 z m 2.64584,0.26458 c 0,-1.94028 -0.0441,-2.11667 -0.52917,-2.11667 -0.29104,0 -0.52917,-0.11906 -0.52917,-0.26458 0,-0.14552 0.23813,-0.26458 0.52917,-0.26458 0.45077,0 0.52917,-0.17639 0.52917,-1.19063 0,-1.09361 0.0539,-1.19062 0.66146,-1.19062 0.60756,0 0.66145,0.097 0.66145,1.19062 0,1.01424 0.0784,1.19063 0.52917,1.19063 0.29104,0 0.52917,0.11906 0.52917,0.26458 0,0.14552 -0.23813,0.26458 -0.52917,0.26458 -0.48507,0 -0.52917,0.17639 -0.52917,2.11667 0,2.08139 -0.011,2.11667 -0.66145,2.11667 -0.65044,0 -0.66146,-0.0353 -0.66146,-2.11667 z m 3.60755,1.5683 c -0.56749,-0.44639 -0.69714,-0.76846 -0.69714,-1.73182 0,-1.59665 0.8496,-2.48231 2.38125,-2.48231 1.71677,0 2.38125,0.8457 2.38125,3.03068 0,1.55543 -0.0539,1.73182 -0.52916,1.73182 -0.29104,0 -0.52917,-0.12325 -0.52917,-0.27389 0,-0.18881 -0.159,-0.18881 -0.51177,0 -0.79849,0.42733 -1.73385,0.32444 -2.49526,-0.27448 z m 2.21929,-0.2486 c 0.61494,-0.32911 0.93899,-1.86563 0.54766,-2.59684 -0.41957,-0.78396 -1.28483,-0.97818 -1.89555,-0.42549 -0.63183,0.5718 -0.68798,2.28081 -0.0944,2.87436 0.48578,0.48578 0.75879,0.51379 1.44232,0.14797 z m 3.92466,0.39575 c -0.95706,-0.51992 -1.28484,-1.64261 -1.28484,-4.40076 0,-2.3215 0.006,-2.34177 0.66146,-2.34177 h 0.66146 v 2.90431 c 0,2.80598 0.0224,2.919 0.66146,3.33773 1.22737,0.8042 0.63701,1.22658 -0.69954,0.50049 z m 2.66098,0.0621 c -0.60438,-0.46403 -1.0354,-1.37042 -1.0354,-2.17735 0,-0.85013 1.31101,-2.246 2.10945,-2.246 1.03594,0 2.09856,0.7546 2.33333,1.65697 l 0.22285,0.85657 -1.80365,0.0777 c -0.99201,0.0427 -1.80365,0.16509 -1.80365,0.27185 0,0.10677 0.19327,0.47005 0.42949,0.8073 0.33849,0.48326 0.61878,0.59108 1.32292,0.50888 0.92595,-0.1081 1.20675,0.14176 0.47491,0.42259 -0.67404,0.25865 -1.79684,0.16956 -2.25025,-0.17855 z m 2.40418,-2.65065 c 0,-0.97849 -1.63923,-1.34189 -2.10736,-0.46718 -0.41295,0.77161 -0.36827,0.81114 0.91674,0.81114 0.80053,0 1.19062,-0.11269 1.19062,-0.34396 z m 1.85175,2.65907 c -2.2e-4,-0.21251 0.39967,-0.33073 1.11869,-0.33073 1.39877,0 1.72863,-0.73749 0.55413,-1.23888 -1.66075,-0.70897 -2.24362,-2.00871 -1.16071,-2.58827 1.01888,-0.54529 2.92781,-0.26807 2.92781,0.42518 0,0.29893 -0.11329,0.31725 -0.54225,0.0877 -0.66492,-0.35585 -1.89286,-0.23993 -2.03462,0.19207 -0.0573,0.17455 0.49908,0.62304 1.23636,0.99665 1.44821,0.73386 1.76073,1.53526 0.92474,2.37126 -0.51751,0.51751 -3.02364,0.58798 -3.02415,0.085 z m -98.328332,-3.94748 c -1.221226,-0.59133 -1.484175,-2.2955 -0.505229,-3.27444 0.739986,-0.73999 1.86069,-0.84734 2.701046,-0.25873 1.179589,0.82621 0.977503,2.94429 -0.338103,3.54372 -0.780307,0.35553 -1.105487,0.35369 -1.857714,-0.0106 z m 1.745205,-1.13304 c 0.702855,-0.84689 -0.329467,-2.14783 -1.246222,-1.5705 -0.916074,0.5769 -0.589711,1.95466 0.463021,1.95466 0.255405,0 0.607846,-0.17287 0.783201,-0.38416 z m 36.539167,-0.39963 c -0.50538,-0.31234 -0.221,-1.20058 0.38438,-1.20058 0.33411,0 0.55473,0.20457 0.60568,0.56163 0.0874,0.61256 -0.46057,0.9662 -0.99006,0.63895 z m 32.26305,-0.14225 c -0.26278,-0.31663 -0.26278,-0.47712 0,-0.79375 0.42366,-0.51049 1.03198,-0.50882 1.22853,0.003 0.15203,0.39621 -0.31395,1.18727 -0.69937,1.18727 -0.10988,0 -0.34801,-0.1786 -0.52916,-0.39688 z m 8.46666,0 c -0.26278,-0.31663 -0.26278,-0.47712 0,-0.79375 0.42367,-0.51049 1.03199,-0.50882 1.22853,0.003 0.15204,0.39621 -0.31394,1.18727 -0.69936,1.18727 -0.10988,0 -0.34801,-0.1786 -0.52917,-0.39688 z M 55.475855,114.71393 c -0.317909,-0.12809 -0.704862,-0.4699 -0.859896,-0.75959 -0.303868,-0.56778 -0.411283,-14.733065 -0.117525,-15.498587 0.410583,-1.069961 1.354687,-1.202479 8.566895,-1.202479 7.212209,0 8.156313,0.132518 8.566896,1.202479 0.0904,0.235565 0.164354,2.680747 0.164354,5.433747 v 5.00544 H 71.140833 70.48509 l -0.07186,-5.09323 -0.07186,-5.093228 h -7.276042 -7.276041 v 7.408338 7.40833 l 3.505729,0.0738 3.505729,0.0738 v 0.65378 0.65378 l -3.373437,-0.0168 c -1.855391,-0.009 -3.633545,-0.12157 -3.951454,-0.24966 z m 8.912391,-0.36421 v -0.67495 l 2.976563,-0.0748 2.976562,-0.0748 0.07877,-1.65365 c 0.07419,-1.5575 0.116493,-1.65364 0.727604,-1.65364 0.621019,0 0.648832,0.0725 0.648832,1.69048 0,1.26929 -0.125875,1.8461 -0.505214,2.3151 -0.472125,0.58372 -0.714734,0.63041 -3.704166,0.71293 l -3.198953,0.0883 z"
         id="path34" />
      <path
         style="fill:#288e70;stroke-width:0.264583"
         d="m 83.489826,137.86682 c 0.0054,-0.43656 0.06469,-0.58313 0.131773,-0.3257 0.06708,0.25744 0.06267,0.61462 -0.0098,0.79375 -0.07248,0.17913 -0.127362,-0.0315 -0.12197,-0.46805 z m 1.322917,0 c 0.0054,-0.43656 0.06469,-0.58313 0.131773,-0.3257 0.06708,0.25744 0.06267,0.61462 -0.0098,0.79375 -0.07248,0.17913 -0.127363,-0.0315 -0.12197,-0.46805 z"
         id="path32" />
      <path
         style="fill:#565e69;stroke-width:0.264583"
         d="m 123.2487,122.91786 c 0,-7.49432 0.0339,-10.56018 0.0753,-6.81302 0.0414,3.74716 0.0414,9.87888 0,13.62604 -0.0414,3.74716 -0.0753,0.6813 -0.0753,-6.81302 z m 4.43034,6.56405 c -0.0305,-3.88409 0.0339,-7.11738 0.14306,-7.18508 0.10914,-0.0677 0.16787,1.9791 0.13052,4.54844 -0.12824,8.82083 -0.21829,9.68863 -0.27358,2.63664 z m 10.64377,-0.0818 c -1.4e-4,-3.92906 0.0367,-5.57329 0.0818,-3.65384 0.0452,1.91945 0.0453,5.13414 2.6e-4,7.14375 -0.045,2.00961 -0.0819,0.43915 -0.0821,-3.48991 z m 33.59865,1.45521 c 0,-3.1287 0.0383,-4.40862 0.085,-2.84427 0.0468,1.56435 0.0468,4.12419 0,5.68854 -0.0468,1.56435 -0.085,0.28443 -0.085,-2.84427 z m 7.40833,0 c 0,-3.1287 0.0383,-4.40862 0.0851,-2.84427 0.0468,1.56435 0.0468,4.12419 0,5.68854 -0.0468,1.56435 -0.0851,0.28443 -0.0851,-2.84427 z m -77.00333,-1.19063 c 5.3e-4,-1.89177 0.0426,-2.63096 0.0937,-1.64264 0.051,0.98832 0.0507,2.53613 -8e-4,3.43959 -0.0515,0.90345 -0.0933,0.0948 -0.0928,-1.79695 z m 51.03893,-0.0642 c 0.98832,-0.051 2.53613,-0.0507 3.43959,8e-4 0.90345,0.0515 0.0948,0.0933 -1.79694,0.0928 -1.89177,-5.3e-4 -2.63097,-0.0426 -1.64265,-0.0937 z m -51.08423,-7.88098 -0.0575,-3.44723 1.78594,-1.71214 1.78594,-1.71215 -1.6457,1.71979 -1.6457,1.71979 -0.0827,3.43958 -0.0827,3.43959 z m 69.63991,-6.87152 c 2.2e-4,-3.05594 0.0387,-4.26986 0.0856,-2.6976 0.0469,1.57226 0.0467,4.07257 -2.7e-4,5.55625 -0.0471,1.48368 -0.0854,0.19728 -0.0852,-2.85865 z m 7.40833,0 c 2.2e-4,-3.05594 0.0387,-4.26986 0.0856,-2.6976 0.0469,1.57226 0.0467,4.07257 -2.6e-4,5.55625 -0.0471,1.48368 -0.0854,0.19728 -0.0852,-2.85865 z M 63.856167,111.73921 c -0.0016,-0.1819 -0.07391,-0.75998 -0.160697,-1.28463 -0.13466,-0.8141 -0.07709,-0.975 0.392788,-1.09788 0.458653,-0.11994 0.578837,0.007 0.719858,0.75839 0.173625,0.9255 0.638463,1.50581 0.638463,0.79707 0,-0.2174 0.112631,-0.69151 0.250288,-1.05358 0.232868,-0.61248 0.31441,-0.63862 1.17162,-0.37554 0.660411,0.20269 0.967738,0.47791 1.085194,0.97181 0.09012,0.37898 0.225761,0.89741 0.301419,1.15207 0.123481,0.41565 -0.09437,0.46302 -2.129232,0.46302 -1.635489,0 -2.267599,-0.0921 -2.269701,-0.33073 z m 0.440795,-3.59271 c -0.582458,-0.64361 -0.552255,-1.18271 0.0993,-1.77235 1.197073,-1.08334 2.849364,0.68395 1.707245,1.82607 -0.565857,0.56586 -1.264639,0.54508 -1.806541,-0.0537 z"
         id="path30" />
      <path
         style="fill:#017c5b;stroke-width:0.264583"
         d="m 84.844604,149.90351 c -0.317907,-0.12808 -0.704861,-0.4699 -0.859896,-0.75958 -0.180168,-0.33665 -0.281879,-3.19558 -0.281879,-7.92311 0,-6.88625 0.03486,-7.43951 0.505428,-8.02105 0.505354,-0.62453 0.50645,-0.62463 7.604369,-0.70345 3.904416,-0.0434 7.370939,-0.0106 7.703383,0.0729 0.332446,0.0834 0.839541,0.38681 1.126881,0.67415 0.49596,0.49596 0.52201,0.90124 0.51402,7.99692 -0.009,8.04734 -0.0215,8.1232 -1.419429,8.6547 -0.885455,0.33665 -14.059781,0.34421 -14.892877,0.009 z M 99.71012,141.3064 v -7.40833 l -7.111357,-0.0705 c -5.025151,-0.0498 -7.21788,0.0179 -7.474479,0.23083 -0.497858,0.41319 -0.536728,13.98005 -0.04147,14.47531 0.240199,0.24019 2.132909,0.30384 7.474479,0.25135 l 7.15283,-0.0703 z"
         id="path28" />
      <path
         style="fill:#2a313a;stroke-width:0.264583"
         d="m 104.12056,134.73704 -1.65969,-1.67458 v -7.36648 -7.36648 l 1.65969,-1.67457 1.65969,-1.67457 h 4.91008 4.91008 l 1.646,1.66076 1.646,1.66077 v 3.17552 3.17553 l -1.66076,1.646 -1.66077,1.646 h -4.29236 -4.29236 v 1.98438 1.98437 h 5.95313 5.95312 v 0.60296 c 0,0.38869 -0.59016,1.18787 -1.66076,2.24896 l -1.66077,1.646 h -4.89531 -4.89532 z m 10.00935,-13.1421 v -2.11666 h -3.57187 -3.57188 v 2.11666 2.11667 h 3.57188 3.57187 z m 9.26042,1.32292 v -13.49375 l 2.05052,0.002 2.05052,0.002 2.64583,6.60728 c 1.45521,3.63401 2.76254,6.57086 2.90519,6.52634 0.14264,-0.0445 1.44893,-3.0186 2.90286,-6.60908 l 2.64351,-6.52814 h 2.05808 2.05807 v 13.49375 13.49375 h -2.11667 -2.11666 v -7.03351 c 0,-5.46732 -0.0728,-7.00923 -0.32708,-6.92448 -0.17989,0.06 -1.16216,2.21182 -2.18281,4.78191 l -1.85574,4.67288 -1.07875,0.003 -1.07875,0.003 -1.93951,-4.88463 c -1.06673,-2.68657 -2.0398,-4.82266 -2.16239,-4.7469 -0.12259,0.0758 -0.22289,3.28588 -0.22289,7.1336 v 6.99584 h -2.11667 -2.11666 z m 22.08365,12.76615 c 0.0909,-0.40019 1.80124,-6.44261 3.80072,-13.42761 l 3.63544,-12.7 2.10728,-0.0757 2.10728,-0.0757 3.553,12.3788 c 1.95415,6.80834 3.70463,12.88482 3.88995,13.50328 l 0.33695,1.12448 h -2.19897 -2.19897 l -0.87413,-3.10886 c -0.48078,-1.70986 -0.9884,-3.25768 -1.12807,-3.43958 -0.17889,-0.233 -1.21886,-0.33073 -3.51951,-0.33073 -2.8436,0 -3.29615,0.0598 -3.5021,0.46302 -0.13008,0.25466 -0.56462,1.80248 -0.96564,3.43959 l -0.72913,2.97656 h -2.23969 -2.23969 z m 11.68059,-10.84792 c -0.076,-0.25466 -0.50487,-1.9513 -0.95316,-3.77031 -0.95063,-3.85735 -1.02467,-4.09336 -1.2222,-3.89583 -0.11346,0.11346 -2.21444,7.74712 -2.21915,8.06301 -5.2e-4,0.0364 1.01907,0.0661 2.26581,0.0661 2.03506,0 2.25267,-0.0473 2.1287,-0.46302 z m 10.15659,-1.91823 v -13.49375 h 2.24359 2.24359 l 0.0715,5.4901 0.0715,5.49011 h 3.70417 3.70416 l 0.0715,-5.49011 0.0715,-5.4901 h 2.24359 2.24359 v 13.49375 13.49375 h -2.24896 -2.24896 v -5.55625 -5.55625 h -3.83645 -3.83646 v 5.55625 5.55625 h -2.24896 -2.24896 z M 57.884254,110.9554 c 0.09802,-0.61301 0.205837,-1.14217 0.239588,-1.17592 0.03375,-0.0338 0.61242,-0.20875 1.285931,-0.38888 0.98723,-0.26405 1.506412,-0.25991 2.678783,0.0213 1.294157,0.31046 1.471623,0.43589 1.61237,1.13963 0.313318,1.56659 0.405998,1.51837 -2.918371,1.51837 h -3.076524 z m 1.883432,-2.84355 c -0.653063,-0.72162 -0.353292,-1.79961 0.564499,-2.02997 0.920267,-0.23097 1.521817,0.17719 1.631363,1.10691 0.154067,1.30756 -1.296185,1.91719 -2.195862,0.92306 z"
         id="path26" />
    </g>
  </g>
</svg>
