<?xml version="1.0" encoding="UTF-8" standalone="no"?>
<svg
   xmlns:dc="http://purl.org/dc/elements/1.1/"
   xmlns:cc="http://creativecommons.org/ns#"
   xmlns:rdf="http://www.w3.org/1999/02/22-rdf-syntax-ns#"
   xmlns:svg="http://www.w3.org/2000/svg"
   xmlns="http://www.w3.org/2000/svg"
   xmlns:sodipodi="http://sodipodi.sourceforge.net/DTD/sodipodi-0.dtd"
   xmlns:inkscape="http://www.inkscape.org/namespaces/inkscape"
   width="146.05mm"
   height="54.504169mm"
   viewBox="0 0 146.05 54.504169"
   version="1.1"
   id="svg8"
   inkscape:version="1.0.1 (3bc2e813f5, 2020-09-07)"
   sodipodi:docname="logo.svg">
  <defs
     id="defs2" />
  <sodipodi:namedview
     id="base"
     pagecolor="#ffffff"
     bordercolor="#666666"
     borderopacity="1.0"
     inkscape:pageopacity="0.0"
     inkscape:pageshadow="2"
     inkscape:zoom="0.70710678"
     inkscape:cx="269.33653"
     inkscape:cy="89.44282"
     inkscape:document-units="mm"
     inkscape:current-layer="layer1"
     inkscape:document-rotation="0"
     showgrid="false"
     fit-margin-top="0"
     fit-margin-left="0"
     fit-margin-right="0"
     fit-margin-bottom="0"
     inkscape:window-width="1258"
     inkscape:window-height="1040"
     inkscape:window-x="234"
     inkscape:window-y="0"
     inkscape:window-maximized="0" />
  <metadata
     id="metadata5">
    <rdf:RDF>
      <cc:Work
         rdf:about="">
        <dc:format>image/svg+xml</dc:format>
        <dc:type
           rdf:resource="http://purl.org/dc/dcmitype/StillImage" />
        <dc:title></dc:title>
      </cc:Work>
    </rdf:RDF>
  </metadata>
  <g
     inkscape:label="Capa 1"
     inkscape:groupmode="layer"
     id="layer1"
     transform="translate(-11.989488,-146.35675)">
    <g
       id="g511"
       transform="translate(-8.0448127,-23.198995)">
      <g
         id="g467"
         transform="translate(-0.18742283,65.763475)">
        <path
           style="fill:#fefefe;stroke-width:0.264583"
           d="m 20.221724,131.04435 c 0,-27.25208 0,-27.25208 73.025,-27.25208 73.024996,0 73.024996,0 73.024996,27.25208 0,27.25209 0,27.25209 -73.024996,27.25209 -73.025,0 -73.025,0 -73.025,-27.25209 z"
           id="path483" />
        <path
           style="fill:#d1d1d1;stroke-width:0.264583"
           d="m 42.843599,151.05605 c -4.762629,-1.25053 -5.548707,-2.82858 -5.55323,-11.14816 -0.0034,-6.23228 0.230779,-7.52109 1.780613,-9.80011 2.778655,-4.086 10.374895,-4.08139 13.054558,0.008 2.795751,4.26646 2.619128,16.56545 -0.277443,19.31967 -1.627838,1.54784 -6.169033,2.36519 -9.004498,1.62067 z m 4.757108,-8.7105 c 2.725192,-1.54347 3.001351,-5.23016 0.543533,-7.2561 -3.652516,-3.01071 -8.803829,1.11705 -6.732874,5.39507 1.100193,2.2727 3.949693,3.12949 6.189341,1.86103 z m -17.887025,3.98014 c -9.002355,-8.78353 -9.832896,-22.60095 -1.948295,-32.41311 0.964704,-1.20054 1.864688,-2.18281 1.999964,-2.18281 0.148464,0 0.246252,5.58462 0.246702,14.08906 7.67e-4,14.4979 0.157673,17.47962 1.074959,20.42771 0.632626,2.03321 0.62959,2.03338 -1.37333,0.0791 z m 30.849814,-1.39071 c 0.738979,-3.73348 0.366295,-9.77599 -0.824095,-13.36146 -3.087902,-9.30083 -12.990631,-13.67346 -20.92669,-9.24036 -0.76178,0.42553 -1.446389,0.77369 -1.521354,0.77369 -0.07496,0 -0.1363,-3.62808 -0.1363,-8.0624 0,-8.0624 0,-8.0624 1.416887,-8.4743 17.987459,-5.22909 33.829122,13.29856 26.855184,31.40855 -1.220954,3.17058 -5.256869,8.94301 -4.863632,6.95628 z m 17.072811,-1.81851 c -6.297644,-1.83335 -7.14375,-4.3309 -7.14375,-21.0871 0,-10.56418 0,-10.56418 2.473923,-10.56418 2.778853,0 2.817744,0.11376 2.817744,8.24273 0,1.86941 0.0893,3.3974 0.198438,3.39552 0.10914,-0.002 0.953185,-0.24 1.875655,-0.52917 2.260719,-0.70866 5.492832,-0.70471 7.805277,0.01 7.970824,2.46193 8.869198,16.16328 1.303993,19.88762 -2.022795,0.99582 -6.955155,1.33678 -9.33128,0.64505 z m 5.700551,-2.31316 c 2.405423,-0.60569 3.491984,-2.57932 3.74904,-6.80976 0.42902,-7.0605 -2.199372,-10.44156 -7.240177,-9.31348 -3.316605,0.74223 -4.898845,4.88988 -4.08386,10.70536 0.648857,4.63002 3.267052,6.50264 7.574997,5.41788 z m 19.510552,2.29262 c -7.464332,-2.33278 -9.780163,-12.53296 -4.021057,-17.71089 6.252547,-5.62158 16.099337,-2.20029 17.041937,5.92126 0.33235,2.86348 0.96741,2.64847 -7.82273,2.64847 -8.70354,0 -8.00926,-0.23034 -7.22866,2.3982 1.1754,3.95803 4.10209,5.57125 8.43338,4.64858 1.40292,-0.29886 1.8961,-0.31868 2.04647,-0.0822 1.13935,1.7914 -4.79246,3.31948 -8.44934,2.17662 z m 8.1264,-12.13585 c 0,-3.51025 -3.02386,-6.37594 -6.18136,-5.85803 -2.03287,0.33344 -4.40198,3.64768 -4.40198,6.1581 0,0.23099 1.39105,0.31337 5.29167,0.31337 5.29167,0 5.29167,0 5.29167,-0.61344 z m 15.06255,12.17374 c -5.41304,-1.5304 -6.8342,-4.71044 -6.85124,-15.33061 -0.009,-5.75469 -0.009,-5.75469 2.47958,-5.75469 2.48882,0 2.48882,0 2.60717,7.34219 0.16282,10.09958 0.8791,11.70486 5.22277,11.70486 4.70523,0 5.58864,-1.81672 5.75599,-11.83715 0.12041,-7.2099 0.12041,-7.2099 2.60617,-7.2099 2.48576,0 2.48576,0 2.48376,5.4901 -0.004,9.81772 -1.29435,13.10062 -5.9722,15.18943 -1.61172,0.71968 -6.39735,0.95275 -8.332,0.40577 z m 17.98631,-0.13827 c 0.14897,-0.27837 1.76314,-2.84511 3.58704,-5.70388 1.8239,-2.85878 3.31618,-5.25069 3.31618,-5.31537 0,-0.0647 -1.37577,-2.28543 -3.05727,-4.935 -1.6815,-2.64957 -3.17397,-5.03546 -3.3166,-5.30197 -0.2417,-0.45161 -0.10992,-0.48456 1.93816,-0.48456 2.19749,0 2.19749,0 4.40592,3.70144 2.20843,3.70143 2.20843,3.70143 4.58492,0 2.3765,-3.70144 2.3765,-3.70144 4.47624,-3.70144 1.95333,0 2.08167,0.0338 1.84042,0.48456 -0.14263,0.26651 -1.64019,2.66041 -3.3279,5.31978 -3.06858,4.83521 -3.06858,4.83521 0.34455,10.29721 1.87722,3.00409 3.49668,5.61082 3.5988,5.79272 0.1421,0.25315 -0.33006,0.32926 -2.01277,0.32448 -2.19843,-0.006 -2.19843,-0.006 -4.54836,-3.97466 -1.29246,-2.18263 -2.42828,-4.01683 -2.52404,-4.07602 -0.0958,-0.0592 -1.30522,1.69965 -2.68768,3.90852 -2.51358,4.01612 -2.51358,4.01612 -4.70103,4.09321 -2.08339,0.0734 -2.17456,0.053 -1.91658,-0.42902 z"
           id="path481" />
        <path
           style="fill:#9de8c8;stroke-width:0.264583"
           d="m 42.912417,151.00509 c -4.43419,-1.07474 -5.459508,-2.8867 -5.687845,-10.05167 -0.310075,-9.72985 2.199767,-13.87782 8.397152,-13.87782 5.889014,0 8.464426,3.91005 8.452194,12.83229 -0.0077,5.5946 -1.117963,9.14443 -3.190915,10.20196 -2.315326,1.1812 -5.373582,1.52469 -7.970586,0.89524 z m 5.011619,-8.74943 c 2.788443,-2.08188 2.501272,-6.27889 -0.530024,-7.74631 -5.232771,-2.53314 -9.253889,5.18033 -4.153538,7.96749 1.210571,0.66153 3.655936,0.54605 4.683562,-0.22118 z m -19.000298,3.1315 c -7.766202,-8.18815 -8.726284,-21.03831 -2.245224,-30.05106 3.472701,-4.82924 3.295703,-5.46333 3.394862,12.16206 0.08672,15.41505 0.105229,15.9067 0.675369,17.94357 0.754003,2.69375 0.782499,2.6946 -1.825007,-0.0546 z m 31.613797,-0.38604 c 2.331453,-8.62821 -1.773552,-19.59181 -8.58212,-22.92102 -4.785016,-2.33974 -8.66085,-2.08255 -14.60192,0.96893 -0.109141,0.0561 -0.198438,-3.51766 -0.198438,-7.9416 0,-8.04352 0,-8.04352 1.389063,-8.47863 10.890559,-3.4113 23.012437,2.90727 27.044023,14.0968 2.889866,8.02073 1.503574,16.63963 -3.752424,23.32968 -1.324597,1.68599 -1.540735,1.84347 -1.298184,0.94584 z m 17.699297,-1.78442 c -3.888957,-0.82251 -6.337848,-3.33001 -7.184789,-7.35672 -0.190778,-0.90703 -0.294902,-5.46129 -0.294902,-12.89844 0,-11.49635 0,-11.49635 2.38125,-11.49635 2.38125,0 2.38125,0 2.38125,5.95312 0,3.27422 0.02977,5.95307 0.06615,5.95299 0.03638,-7e-5 0.72099,-0.25034 1.521355,-0.55615 6.562934,-2.50761 13.152424,0.57163 14.561455,6.80451 2.066136,9.1396 -4.254511,15.53802 -13.431764,13.59704 z m 6.213626,-2.74435 c 3.371323,-1.7499 3.848796,-11.88712 0.694724,-14.74981 -1.858216,-1.68655 -5.520486,-1.73466 -7.465449,-0.0981 -2.7657,2.32718 -2.921801,11.53276 -0.23859,14.06993 1.539367,1.45558 4.970198,1.83637 7.009315,0.77796 z m 18.188972,2.4683 c -5.701721,-1.82958 -8.621946,-8.79788 -6.0159,-14.35525 4.41681,-9.41883 18.50015,-7.06428 19.05993,3.18656 0.1192,2.18281 0.1192,2.18281 -7.68306,2.18281 -7.80227,0 -7.80227,0 -7.55222,1.37578 0.84786,4.66482 4.19243,6.79121 8.93658,5.68166 0.94503,-0.22103 1.73902,-0.38108 1.76443,-0.35567 1.90627,1.90628 -4.40663,3.60073 -8.50976,2.28411 z m 8.45678,-12.09473 c -0.49848,-2.38207 -0.80881,-3.09698 -1.81545,-4.18227 -3.14307,-3.38864 -8.11041,-1.30468 -8.79498,3.68977 -0.16723,1.2201 -0.16723,1.2201 5.29773,1.2201 5.46496,0 5.46496,0 5.3127,-0.7276 z m 14.96755,12.22662 c -5.29135,-1.48179 -6.43338,-3.90702 -6.56729,-13.94642 -0.0944,-7.0776 -0.0944,-7.0776 2.28482,-7.0776 2.37921,0 2.37921,0 2.46659,7.61468 0.0865,7.53868 0.0941,7.6278 0.756,8.92968 1.84268,3.62415 7.71828,3.38795 9.48589,-0.38134 0.68812,-1.46736 0.69406,-1.53471 0.77823,-8.82083 0.0848,-7.34219 0.0848,-7.34219 2.46687,-7.34219 2.38206,0 2.38206,0 2.28822,6.94531 -0.10894,8.0632 -0.29536,8.88112 -2.59865,11.40129 -2.46266,2.69453 -7.26123,3.82544 -11.36068,2.67742 z m 18.50683,-0.84954 c 0.43095,-0.69123 2.07431,-3.2803 3.65191,-5.75351 2.86835,-4.49674 2.86835,-4.49674 0.10224,-8.86354 -1.52136,-2.40174 -3.04825,-4.81329 -3.39309,-5.35899 -0.62698,-0.99219 -0.62698,-0.99219 1.55915,-0.99115 2.18613,0.001 2.18613,0.001 4.3028,3.69324 1.16417,2.0307 2.19002,3.69711 2.27968,3.70312 0.0896,0.006 1.21961,-1.65594 2.51101,-3.69323 2.34801,-3.70417 2.34801,-3.70417 4.40918,-3.70417 2.06118,0 2.06118,0 1.08756,1.52135 -2.95256,4.6136 -5.43114,8.58987 -5.554,8.91004 -0.0769,0.20054 0.86274,1.95387 2.08821,3.8963 5.55171,8.79973 5.22566,7.89731 2.85332,7.89731 -2.10261,0 -2.10261,0 -4.65819,-4.25049 -2.55559,-4.25049 -2.55559,-4.25049 -5.20319,0 -2.6476,4.25049 -2.6476,4.25049 -4.73387,4.25049 -2.08628,0 -2.08628,0 -1.30272,-1.25677 z"
           id="path479" />
        <path
           style="fill:#87e3bc;stroke-width:0.264583"
           d="m 41.546207,150.51673 c -3.155127,-1.07493 -4.371609,-4.03045 -4.385909,-10.65584 -0.01151,-5.33516 0.892324,-8.68428 2.876937,-10.6603 3.133612,-3.12005 9.805816,-2.62784 11.959082,0.88222 2.716107,4.42755 2.635996,15.99192 -0.132175,19.0803 -1.766324,1.97064 -6.632887,2.60909 -10.317935,1.35362 z m 4.927196,-7.57777 c 5.006363,-1.3904 4.350461,-8.59608 -0.811402,-8.91398 -5.308336,-0.32692 -6.741531,7.0135 -1.719008,8.80427 1.249319,0.44545 1.311789,0.44815 2.53041,0.10971 z m -17.321734,2.68894 c -8.078232,-8.56336 -8.923892,-21.73041 -1.981704,-30.85542 3.075278,-4.04223 2.841342,-5.0383 2.841342,12.09806 0,15.38926 0.107149,17.45502 1.029615,19.85038 0.441426,1.14624 -0.0391,0.86823 -1.889253,-1.09302 z m 31.638562,-1.22209 c 1.073205,-4.93668 -0.123981,-12.45917 -2.642717,-16.60546 -4.020388,-6.61827 -12.187142,-9.17335 -18.756377,-5.86817 -0.989842,0.49802 -1.848135,0.85706 -1.907317,0.79788 -0.461887,-0.46189 -0.37205,-15.45601 0.09407,-15.70029 1.746593,-0.91534 6.577258,-1.48359 9.518656,-1.1197 15.340481,1.89779 24.361175,18.85761 17.699273,33.27642 -1.489736,3.22434 -4.394795,7.00966 -4.005585,5.21932 z m 17.446601,-1.18911 c -3.888957,-0.82251 -6.337848,-3.33001 -7.184789,-7.35672 -0.190778,-0.90703 -0.294902,-5.46129 -0.294902,-12.89844 0,-11.49635 0,-11.49635 2.38125,-11.49635 2.38125,0 2.38125,0 2.38125,5.95312 0,3.27422 0.02977,5.95307 0.06615,5.95299 0.03638,-7e-5 0.72099,-0.25034 1.521355,-0.55615 6.562934,-2.50761 13.152424,0.57163 14.561455,6.80451 2.066136,9.1396 -4.254511,15.53802 -13.431764,13.59704 z m 6.213626,-2.74435 c 3.371323,-1.7499 3.848796,-11.88712 0.694724,-14.74981 -1.858216,-1.68655 -5.520486,-1.73466 -7.465449,-0.0981 -2.7657,2.32718 -2.921801,11.53276 -0.23859,14.06993 1.539367,1.45558 4.970198,1.83637 7.009315,0.77796 z m 18.188972,2.4683 c -5.701721,-1.82958 -8.621946,-8.79788 -6.0159,-14.35525 4.41681,-9.41883 18.50015,-7.06428 19.05993,3.18656 0.1192,2.18281 0.1192,2.18281 -7.68306,2.18281 -7.80227,0 -7.80227,0 -7.55222,1.37578 0.84786,4.66482 4.19243,6.79121 8.93658,5.68166 0.94503,-0.22103 1.73902,-0.38108 1.76443,-0.35567 1.90627,1.90628 -4.40663,3.60073 -8.50976,2.28411 z m 8.45678,-12.09473 c -0.49848,-2.38207 -0.80881,-3.09698 -1.81545,-4.18227 -3.14307,-3.38864 -8.11041,-1.30468 -8.79498,3.68977 -0.16723,1.2201 -0.16723,1.2201 5.29773,1.2201 5.46496,0 5.46496,0 5.3127,-0.7276 z m 14.96755,12.22662 c -5.29135,-1.48179 -6.43338,-3.90702 -6.56729,-13.94642 -0.0944,-7.0776 -0.0944,-7.0776 2.28482,-7.0776 2.37921,0 2.37921,0 2.46659,7.61468 0.0865,7.53868 0.0941,7.6278 0.756,8.92968 1.84268,3.62415 7.71828,3.38795 9.48589,-0.38134 0.68812,-1.46736 0.69406,-1.53471 0.77823,-8.82083 0.0848,-7.34219 0.0848,-7.34219 2.46687,-7.34219 2.38206,0 2.38206,0 2.28822,6.94531 -0.10894,8.0632 -0.29536,8.88112 -2.59865,11.40129 -2.46266,2.69453 -7.26123,3.82544 -11.36068,2.67742 z m 18.50683,-0.84954 c 0.43095,-0.69123 2.07431,-3.2803 3.65191,-5.75351 2.86835,-4.49674 2.86835,-4.49674 0.10224,-8.86354 -1.52136,-2.40174 -3.04825,-4.81329 -3.39309,-5.35899 -0.62698,-0.99219 -0.62698,-0.99219 1.55915,-0.99115 2.18613,0.001 2.18613,0.001 4.3028,3.69324 1.16417,2.0307 2.19002,3.69711 2.27968,3.70312 0.0896,0.006 1.21961,-1.65594 2.51101,-3.69323 2.34801,-3.70417 2.34801,-3.70417 4.40918,-3.70417 2.06118,0 2.06118,0 1.08756,1.52135 -2.95256,4.6136 -5.43114,8.58987 -5.554,8.91004 -0.0769,0.20054 0.86274,1.95387 2.08821,3.8963 5.55171,8.79973 5.22566,7.89731 2.85332,7.89731 -2.10261,0 -2.10261,0 -4.65819,-4.25049 -2.55559,-4.25049 -2.55559,-4.25049 -5.20319,0 -2.6476,4.25049 -2.6476,4.25049 -4.73387,4.25049 -2.08628,0 -2.08628,0 -1.30272,-1.25677 z"
           id="path477" />
        <path
           style="fill:#66dcab;stroke-width:0.264583"
           d="m 42.389876,150.77669 c -3.541508,-1.01686 -4.754843,-3.18119 -5.119099,-9.13141 -0.59292,-9.68552 2.156035,-14.41849 8.374407,-14.41849 3.977268,0 6.397051,1.79765 7.585054,5.63492 1.178198,3.8056 0.527267,13.56295 -1.062474,15.92635 -1.268341,1.88559 -6.459599,2.94139 -9.777888,1.98863 z m 5.017854,-8.12272 c 1.971175,-0.95424 3.011033,-3.16618 2.45653,-5.22545 -1.405766,-5.22061 -9.003751,-4.37632 -9.045436,1.00513 -0.02763,3.56708 3.401331,5.76339 6.588906,4.22032 z m -18.140806,3.05763 c -8.692813,-8.9389 -8.973646,-23.51979 -0.629022,-32.65891 1.087119,-1.19063 1.087119,-1.19063 1.102556,12.43541 0.01533,13.53329 0.18617,17.24655 0.923359,20.06955 0.51493,1.97189 0.38493,1.98621 -1.396893,0.15395 z m 31.635964,-1.83496 c 0.73429,-4.93195 -0.07603,-10.68701 -2.101096,-14.92228 -3.598545,-7.5261 -12.723843,-10.70922 -19.766194,-6.89492 -0.792879,0.42944 -1.465501,0.75149 -1.494715,0.71567 -0.02922,-0.0358 -0.09821,-3.57206 -0.153326,-7.85831 -0.117768,-9.15878 -0.388713,-8.82434 7.175834,-8.85756 19.103991,-0.0839 29.614987,23.39549 17.048122,38.08199 -0.905589,1.05833 -0.905589,1.05833 -0.708625,-0.26459 z m 17.333944,-0.65994 c -3.888957,-0.82251 -6.337848,-3.33001 -7.184789,-7.35672 -0.190778,-0.90703 -0.294902,-5.46129 -0.294902,-12.89844 0,-11.49635 0,-11.49635 2.38125,-11.49635 2.38125,0 2.38125,0 2.38125,5.95312 0,3.27422 0.02977,5.95307 0.06615,5.95299 0.03638,-7e-5 0.72099,-0.25034 1.521355,-0.55615 6.562934,-2.50761 13.152424,0.57163 14.561455,6.80451 2.066136,9.1396 -4.254511,15.53802 -13.431764,13.59704 z m 6.213626,-2.74435 c 3.371323,-1.7499 3.848796,-11.88712 0.694724,-14.74981 -1.858216,-1.68655 -5.520486,-1.73466 -7.465449,-0.0981 -2.7657,2.32718 -2.921801,11.53276 -0.23859,14.06993 1.539367,1.45558 4.970198,1.83637 7.009315,0.77796 z m 18.188972,2.4683 c -5.701721,-1.82958 -8.621946,-8.79788 -6.0159,-14.35525 4.41681,-9.41883 18.50015,-7.06428 19.05993,3.18656 0.1192,2.18281 0.1192,2.18281 -7.68306,2.18281 -7.80227,0 -7.80227,0 -7.55222,1.37578 0.84786,4.66482 4.19243,6.79121 8.93658,5.68166 0.94503,-0.22103 1.73902,-0.38108 1.76443,-0.35567 1.90627,1.90628 -4.40663,3.60073 -8.50976,2.28411 z m 8.45678,-12.09473 c -0.49848,-2.38207 -0.80881,-3.09698 -1.81545,-4.18227 -3.14307,-3.38864 -8.11041,-1.30468 -8.79498,3.68977 -0.16723,1.2201 -0.16723,1.2201 5.29773,1.2201 5.46496,0 5.46496,0 5.3127,-0.7276 z m 14.96755,12.22662 c -5.29135,-1.48179 -6.43338,-3.90702 -6.56729,-13.94642 -0.0944,-7.0776 -0.0944,-7.0776 2.28482,-7.0776 2.37921,0 2.37921,0 2.46659,7.61468 0.0865,7.53868 0.0941,7.6278 0.756,8.92968 1.84268,3.62415 7.71828,3.38795 9.48589,-0.38134 0.68812,-1.46736 0.69406,-1.53471 0.77823,-8.82083 0.0848,-7.34219 0.0848,-7.34219 2.46687,-7.34219 2.38206,0 2.38206,0 2.28822,6.94531 -0.10894,8.0632 -0.29536,8.88112 -2.59865,11.40129 -2.46266,2.69453 -7.26123,3.82544 -11.36068,2.67742 z m 18.50683,-0.84954 c 0.43095,-0.69123 2.07431,-3.2803 3.65191,-5.75351 2.86835,-4.49674 2.86835,-4.49674 0.10224,-8.86354 -1.52136,-2.40174 -3.04825,-4.81329 -3.39309,-5.35899 -0.62698,-0.99219 -0.62698,-0.99219 1.55915,-0.99115 2.18613,0.001 2.18613,0.001 4.3028,3.69324 1.16417,2.0307 2.19002,3.69711 2.27968,3.70312 0.0896,0.006 1.21961,-1.65594 2.51101,-3.69323 2.34801,-3.70417 2.34801,-3.70417 4.40918,-3.70417 2.06118,0 2.06118,0 1.08756,1.52135 -2.95256,4.6136 -5.43114,8.58987 -5.554,8.91004 -0.0769,0.20054 0.86274,1.95387 2.08821,3.8963 5.55171,8.79973 5.22566,7.89731 2.85332,7.89731 -2.10261,0 -2.10261,0 -4.65819,-4.25049 -2.55559,-4.25049 -2.55559,-4.25049 -5.20319,0 -2.6476,4.25049 -2.6476,4.25049 -4.73387,4.25049 -2.08628,0 -2.08628,0 -1.30272,-1.25677 z"
           id="path475" />
        <path
           style="fill:#9f9f9f;stroke-width:0.264583"
           d="m 78.236832,143.2167 c -3.888957,-0.82251 -6.337848,-3.33001 -7.184789,-7.35672 -0.190778,-0.90703 -0.294902,-5.46129 -0.294902,-12.89844 0,-11.49635 0,-11.49635 2.38125,-11.49635 2.38125,0 2.38125,0 2.38125,5.95312 0,3.27422 0.02977,5.95307 0.06615,5.95299 0.03638,-7e-5 0.72099,-0.25034 1.521355,-0.55615 6.562934,-2.50761 13.152424,0.57163 14.561455,6.80451 2.066136,9.1396 -4.254511,15.53802 -13.431764,13.59704 z m 6.213626,-2.74435 c 3.371323,-1.7499 3.848796,-11.88712 0.694724,-14.74981 -1.858216,-1.68655 -5.520486,-1.73466 -7.465449,-0.0981 -2.7657,2.32718 -2.921801,11.53276 -0.23859,14.06993 1.539367,1.45558 4.970198,1.83637 7.009315,0.77796 z m 18.188972,2.4683 c -5.701721,-1.82958 -8.621946,-8.79788 -6.0159,-14.35525 4.41681,-9.41883 18.50015,-7.06428 19.05993,3.18656 0.1192,2.18281 0.1192,2.18281 -7.68306,2.18281 -7.80227,0 -7.80227,0 -7.55222,1.37578 0.84786,4.66482 4.19243,6.79121 8.93658,5.68166 0.94503,-0.22103 1.73902,-0.38108 1.76443,-0.35567 1.90627,1.90628 -4.40663,3.60073 -8.50976,2.28411 z m 8.45678,-12.09473 c -0.49848,-2.38207 -0.80881,-3.09698 -1.81545,-4.18227 -3.14307,-3.38864 -8.11041,-1.30468 -8.79498,3.68977 -0.16723,1.2201 -0.16723,1.2201 5.29773,1.2201 5.46496,0 5.46496,0 5.3127,-0.7276 z m 14.96755,12.22662 c -5.29135,-1.48179 -6.43338,-3.90702 -6.56729,-13.94642 -0.0944,-7.0776 -0.0944,-7.0776 2.28482,-7.0776 2.37921,0 2.37921,0 2.46659,7.61468 0.0865,7.53868 0.0941,7.6278 0.756,8.92968 1.84268,3.62415 7.71828,3.38795 9.48589,-0.38134 0.68812,-1.46736 0.69406,-1.53471 0.77823,-8.82083 0.0848,-7.34219 0.0848,-7.34219 2.46687,-7.34219 2.38206,0 2.38206,0 2.28822,6.94531 -0.10894,8.0632 -0.29536,8.88112 -2.59865,11.40129 -2.46266,2.69453 -7.26123,3.82544 -11.36068,2.67742 z m 18.50683,-0.84954 c 0.43095,-0.69123 2.07431,-3.2803 3.65191,-5.75351 2.86835,-4.49674 2.86835,-4.49674 0.10224,-8.86354 -1.52136,-2.40174 -3.04825,-4.81329 -3.39309,-5.35899 -0.62698,-0.99219 -0.62698,-0.99219 1.55915,-0.99115 2.18613,0.001 2.18613,0.001 4.3028,3.69324 1.16417,2.0307 2.19002,3.69711 2.27968,3.70312 0.0896,0.006 1.21961,-1.65594 2.51101,-3.69323 2.34801,-3.70417 2.34801,-3.70417 4.40918,-3.70417 2.06118,0 2.06118,0 1.08756,1.52135 -2.95256,4.6136 -5.43114,8.58987 -5.554,8.91004 -0.0769,0.20054 0.86274,1.95387 2.08821,3.8963 5.55171,8.79973 5.22566,7.89731 2.85332,7.89731 -2.10261,0 -2.10261,0 -4.65819,-4.25049 -2.55559,-4.25049 -2.55559,-4.25049 -5.20319,0 -2.6476,4.25049 -2.6476,4.25049 -4.73387,4.25049 -2.08628,0 -2.08628,0 -1.30272,-1.25677 z"
           id="path473" />
        <path
           style="fill:#5a5a5a;stroke-width:0.264583"
           d="m 78.636557,143.22471 c -2.878072,-0.52534 -5.421535,-2.28273 -6.574396,-4.54252 -1.162841,-2.27936 -1.295551,-3.90258 -1.300427,-15.90607 -0.0046,-11.31093 -0.0046,-11.31093 2.376657,-11.31093 2.38125,0 2.38125,0 2.38125,5.95312 0,3.27422 0.0893,5.95307 0.198437,5.95299 0.109141,-7e-5 0.853281,-0.26035 1.653646,-0.5784 3.110222,-1.23593 8.039068,-0.73382 10.68819,1.08883 4.835734,3.32707 5.21171,13.41634 0.645605,17.32475 -2.116048,1.81126 -6.446991,2.67936 -10.068962,2.01823 z m 6.083448,-2.83101 c 1.90405,-1.41043 2.509075,-3.258 2.498458,-7.62956 -0.01651,-6.79256 -2.746296,-9.53197 -8.034751,-8.06307 -4.718613,1.31063 -5.225409,13.76217 -0.647538,15.90948 1.496253,0.70184 5.114927,0.57494 6.183831,-0.21685 z m 18.939405,2.82422 c -5.102816,-1.07126 -8.735368,-6.64619 -7.797999,-11.96771 2.059453,-11.6917 18.999079,-11.17654 19.806419,0.60234 0.14409,2.10222 0.14409,2.10222 -7.71091,2.10222 -7.85501,0 -7.85501,0 -7.67525,0.99219 0.97309,5.37091 3.91473,7.11434 10.09682,5.98412 0.78583,-0.14366 0.8599,-0.0993 0.8599,0.51527 0,1.32747 -4.58705,2.39968 -7.57898,1.77157 z m 7.44363,-12.76888 c -1.10479,-6.83103 -8.42753,-7.60365 -10.43597,-1.10108 -0.29765,0.96367 -0.54118,1.85865 -0.54118,1.98885 0,0.13174 2.47417,0.23671 5.57951,0.23671 5.5795,0 5.5795,0 5.39764,-1.12448 z m 15.48118,12.68052 c -5.72724,-1.34305 -7.1312,-4.27903 -7.13915,-14.92948 -0.005,-6.15156 -0.005,-6.15156 2.35873,-6.15156 2.36333,0 2.36333,0 2.4474,7.73906 0.10852,9.99053 0.54569,11.03046 4.73662,11.26726 5.39112,0.30463 6.32765,-1.4778 6.32765,-12.04288 0,-6.96344 0,-6.96344 2.38125,-6.96344 2.38125,0 2.38125,0 2.38125,5.91701 0,8.22269 -0.63941,10.72936 -3.34424,13.11024 -2.26346,1.99237 -6.63724,2.87743 -10.14951,2.05379 z m 17.4625,0.20807 c 0,-0.0782 1.56766,-2.60524 3.48369,-5.61569 1.91602,-3.01045 3.48367,-5.59627 3.48367,-5.74627 0,-0.15001 -1.44859,-2.5618 -3.21909,-5.35955 -1.77051,-2.79775 -3.2191,-5.14859 -3.2191,-5.22408 0,-0.0755 0.88939,-0.13727 1.97642,-0.13727 1.97642,0 1.97642,0 4.27025,3.86257 2.29384,3.86257 2.29384,3.86257 3.011,2.71198 4.13265,-6.63024 4.08112,-6.57455 6.084,-6.57455 1.02093,0 1.85625,0.0655 1.85625,0.14551 0,0.08 -1.47563,2.47552 -3.27919,5.32329 -3.27918,5.17778 -3.27918,5.17778 0.26459,10.81399 1.94907,3.09992 3.54376,5.70507 3.54376,5.78921 0,0.0841 -0.86853,0.153 -1.93007,0.153 -1.93008,0 -1.93008,0 -4.43177,-4.21717 -1.37594,-2.31944 -2.57249,-4.22444 -2.65901,-4.23333 -0.0865,-0.009 -1.33667,1.88757 -2.77812,4.21437 -2.62082,4.23054 -2.62082,4.23054 -4.53905,4.23333 -1.05502,0.002 -1.91823,-0.0612 -1.91823,-0.13934 z"
           id="path471" />
        <path
           style="fill:#010101;stroke-width:0.264583"
           d="m 79.885266,143.30584 c -4.460812,-0.53187 -7.168425,-2.59574 -8.327187,-6.34737 -0.504999,-1.63501 -0.536355,-2.43092 -0.536355,-13.6149 0,-11.87838 0,-11.87838 2.082131,-11.87838 2.08213,0 2.08213,0 2.201246,5.81722 0.06551,3.19947 0.19251,5.89061 0.282217,5.98032 0.08971,0.0897 0.91485,-0.0771 1.83365,-0.37069 8.240998,-2.63321 14.304796,1.60089 14.327608,10.0044 0.01974,7.27347 -4.548203,11.2816 -11.86331,10.4094 z m 4.640291,-2.80263 c 4.16456,-2.10007 3.951256,-13.44555 -0.293478,-15.61001 -2.196896,-1.12023 -6.120342,-0.39375 -7.372808,1.36518 -2.225712,3.12573 -2.034177,11.18129 0.31995,13.45651 1.61357,1.55948 5.079519,1.93141 7.346336,0.78832 z m 19.304503,2.62584 c -10.859161,-2.51291 -10.484107,-18.19816 0.48488,-20.27838 5.65661,-1.07276 11.15678,3.49328 11.15678,9.26194 0,1.84216 0,1.84216 -7.70887,1.84216 -7.70889,0 -7.70889,0 -7.54241,1.2146 0.69535,5.07307 3.80073,6.83451 10.35637,5.87434 0.36056,-0.0528 0.553,0.091 0.60431,0.45168 0.17321,1.21766 -4.58203,2.27444 -7.35106,1.63366 z m 7.40833,-12.16897 c 0,-6.08655 -7.58147,-8.34564 -10.15783,-3.02678 -1.736378,3.58474 -1.666764,3.64022 4.56776,3.64022 5.59007,0 5.59007,0 5.59007,-0.61344 z m 16.09708,12.24528 c -6.16781,-0.94644 -7.88841,-4.44815 -7.89299,-16.06361 -0.002,-5.09323 -0.002,-5.09323 2.22544,-5.09323 2.22744,0 2.22744,0 2.3151,7.47448 0.12101,10.31765 0.72409,11.57552 5.54984,11.57552 5.11347,0 6.0472,-1.96847 6.0472,-12.74859 0,-6.30141 0,-6.30141 2.13586,-6.30141 2.13587,0 2.13587,0 2.05053,7.08425 -0.0854,7.08426 -0.0854,7.08426 -0.94294,8.82518 -2.03039,4.12174 -6.25334,6.05066 -11.48804,5.24741 z m 16.87775,-0.0563 c 0.10876,-0.1819 1.67563,-2.6443 3.48195,-5.47201 1.80631,-2.8277 3.34292,-5.29427 3.41467,-5.48127 0.10344,-0.26956 -2.58064,-4.74164 -6.20933,-10.34568 -0.38548,-0.59531 -0.38548,-0.59531 1.56318,-0.58928 1.94866,0.006 1.94866,0.006 4.19762,3.83043 1.23692,2.10342 2.32955,3.82711 2.42806,3.83043 0.0985,0.003 1.27618,-1.72038 2.61705,-3.83043 2.43794,-3.83646 2.43794,-3.83646 4.26828,-3.83646 1.39432,0 1.78279,0.0788 1.63076,0.33073 -0.10977,0.1819 -1.55812,2.46709 -3.21854,5.07821 -1.66043,2.61111 -3.07075,4.88244 -3.13405,5.0474 -0.0633,0.16495 1.49442,2.85061 3.46159,5.96814 3.57667,5.66823 3.57667,5.66823 1.95682,5.74799 -2.19835,0.10825 -1.94407,0.34028 -4.70812,-4.29602 -1.35658,-2.27545 -2.59844,-4.09335 -2.7597,-4.03977 -0.16126,0.0536 -1.46364,1.96288 -2.89419,4.24288 -2.60099,4.14544 -2.60099,4.14544 -4.44739,4.14544 -1.40618,0 -1.79924,-0.0788 -1.64866,-0.33073 z"
           id="path469" />
      </g>
      <path
         style="fill:#000000;stroke-width:0.127314"
         d="m 72.708549,217.96162 c -0.308963,-0.0732 -0.411476,-0.17367 -0.441312,-0.43241 -0.03203,-0.2778 -0.0017,-0.31912 0.172477,-0.23521 0.116238,0.0559 0.573545,0.13264 1.016237,0.17035 1.038455,0.0884 1.591296,-0.21033 1.645034,-0.88913 0.04769,-0.60249 -0.238817,-0.90089 -1.247363,-1.29912 -1.08192,-0.42717 -1.514252,-0.89972 -1.530794,-1.67318 -0.02368,-1.10674 0.91158,-1.71956 2.318706,-1.51936 0.797185,0.11343 0.97511,0.22553 0.873456,0.55027 -0.06097,0.19473 -0.146915,0.22037 -0.435084,0.1297 -0.197517,-0.0622 -0.65127,-0.113 -1.008341,-0.113 -0.752441,0 -1.133046,0.30779 -1.133046,0.91627 0,0.52081 0.251713,0.75189 1.322326,1.21386 1.35111,0.583 1.742859,1.19632 1.402333,2.19547 -0.112153,0.32905 -0.311114,0.57312 -0.608005,0.74584 -0.472557,0.2749 -1.678289,0.39804 -2.346624,0.23965 z m 5.806738,-0.008 c -0.635216,-0.20491 -1.090827,-0.58454 -1.409057,-1.17408 -0.279417,-0.51763 -0.315713,-0.7169 -0.315713,-1.73318 0,-1.01682 0.03626,-1.2154 0.316335,-1.73433 0.46953,-0.86984 1.086598,-1.20957 2.213333,-1.21859 1.080967,-0.009 1.623457,0.26731 2.178585,1.10814 0.335278,0.50784 0.35108,0.59089 0.35108,1.84478 0,1.25389 -0.01579,1.33692 -0.35108,1.84477 -0.193097,0.29248 -0.544384,0.65476 -0.780643,0.80507 -0.470629,0.29942 -1.646656,0.43685 -2.20284,0.25742 z M 80.35,217.23431 c 0.684013,-0.40594 0.924022,-0.98041 0.924518,-2.21287 3.25e-4,-0.80242 -0.04862,-1.09217 -0.236673,-1.40092 -0.410069,-0.67336 -0.78102,-0.91892 -1.498839,-0.99221 -0.853749,-0.0872 -1.585972,0.32639 -1.90635,1.07668 -0.275918,0.64619 -0.280165,2.01344 -0.0081,2.68054 0.409367,1.00462 1.756313,1.42406 2.725669,0.84879 z m 8.305088,0.64752 c -1.054315,-0.48251 -1.22847,-1.00376 -1.22847,-3.67674 v -2.04852 h 0.287463 0.287462 v 1.97803 c 0,2.3374 0.120732,2.85528 0.739566,3.17226 0.913876,0.46812 2.028532,0.13043 2.311666,-0.70029 0.120659,-0.35402 0.168338,-1.05421 0.168338,-2.47197 v -1.97803 h 0.295374 0.295381 l -0.03663,2.24565 c -0.04041,2.47724 -0.111685,2.74691 -0.869561,3.29107 -0.477466,0.34283 -1.691225,0.44452 -2.250556,0.18854 z m 6.030168,-0.0159 c -0.555904,-0.21256 -1.089798,-0.76353 -1.364002,-1.4076 -0.276946,-0.65053 -0.242815,-2.12529 0.06611,-2.85676 0.467481,-1.10685 1.697773,-1.73273 3.009042,-1.5308 0.765362,0.11786 0.951385,0.24086 0.850727,0.56243 -0.06094,0.19475 -0.146925,0.22039 -0.435094,0.1297 -0.197513,-0.0622 -0.672038,-0.11046 -1.054498,-0.1074 -0.894997,0.008 -1.401435,0.35211 -1.748059,1.19047 -0.522604,1.26401 -0.178169,2.75567 0.77615,3.36125 0.462097,0.29324 0.619819,0.31945 1.474745,0.24505 0.869476,-0.0757 0.953774,-0.0607 0.918648,0.16289 -0.07002,0.44637 -1.584072,0.59863 -2.493784,0.25078 z m 7.359034,0 c -0.55413,-0.21188 -1.0856,-0.7591 -1.36933,-1.40997 -0.2285,-0.5242 -0.24992,-2.24741 -0.0342,-2.74881 0.60912,-1.41544 1.97417,-2.00957 3.409,-1.48379 0.94506,0.34634 1.49901,1.18142 1.62047,2.44288 0.23005,2.38928 -1.57643,3.98339 -3.62599,3.1997 z m 2.05101,-0.6699 c 0.65836,-0.41386 0.92401,-1.0319 0.92401,-2.14972 0,-1.11611 -0.26531,-1.73336 -0.92838,-2.15994 -0.41287,-0.2656 -0.63208,-0.31488 -1.16129,-0.26103 -0.35879,0.0365 -0.81264,0.18244 -1.00855,0.3243 -1.14445,0.82879 -1.04412,3.62751 0.15394,4.29453 0.64545,0.35937 1.40068,0.34136 2.02027,-0.0482 z m 13.85981,0.81176 c -0.0632,-0.0259 -0.25728,-0.0855 -0.4312,-0.13252 -0.22228,-0.0601 -0.31621,-0.17332 -0.31621,-0.38119 0,-0.2383 0.0503,-0.27891 0.25873,-0.20922 1.47371,0.49261 2.73089,0.11571 2.73089,-0.81868 0,-0.46103 -0.42267,-0.84155 -1.3573,-1.22195 -1.24721,-0.50763 -1.74744,-1.32754 -1.39255,-2.28246 0.28161,-0.75768 1.38563,-1.10854 2.55325,-0.81138 0.66716,0.16981 0.72325,0.22296 0.56256,0.53317 -0.0708,0.13651 -0.22741,0.13941 -0.71812,0.0132 -0.98576,-0.25349 -1.72081,0.009 -1.88045,0.67104 -0.12575,0.5217 0.3102,0.98726 1.30462,1.39326 1.14279,0.46657 1.50291,0.8743 1.50291,1.70159 0,0.49786 -0.0606,0.66506 -0.34852,0.96209 -0.1917,0.19776 -0.54095,0.42505 -0.77615,0.50515 -0.39953,0.13603 -1.43388,0.18361 -1.69246,0.0779 z m 15.86791,-0.0529 c -1.19573,-0.3902 -1.78226,-1.32338 -1.78226,-2.8356 0,-1.38603 0.44901,-2.2543 1.42398,-2.7536 0.61275,-0.31379 1.83942,-0.39909 2.57749,-0.17922 0.55088,0.16411 0.59505,0.20515 0.45993,0.42744 -0.13338,0.21945 -0.22444,0.22868 -0.84657,0.0857 -1.68089,-0.38615 -2.86582,0.46143 -2.99665,2.14351 -0.0736,0.94658 0.2753,1.88934 0.84854,2.29259 0.42331,0.29783 1.5238,0.46151 2.1439,0.3189 l 0.41386,-0.0952 v -0.90988 -0.90987 h -0.63242 c -0.55576,0 -0.63242,-0.0342 -0.63242,-0.28194 0,-0.25982 0.0767,-0.28193 0.97737,-0.28193 h 0.97737 v 1.39323 c 0,1.32471 -0.0128,1.39754 -0.25871,1.48133 -0.44056,0.15009 -2.3098,0.22312 -2.67341,0.10447 z m 25.00923,0.006 c -0.30896,-0.0732 -0.41148,-0.17368 -0.44132,-0.43239 -0.032,-0.27781 -0.002,-0.31914 0.17248,-0.23523 0.11623,0.0559 0.57355,0.13263 1.01625,0.17034 1.03844,0.0884 1.59128,-0.21035 1.64503,-0.88911 0.0477,-0.60251 -0.23883,-0.90092 -1.24737,-1.29913 -1.08192,-0.42717 -1.51426,-0.89972 -1.53079,-1.67318 -0.0237,-1.10674 0.91158,-1.71956 2.3187,-1.51936 0.79719,0.11345 0.97511,0.22552 0.87347,0.55027 -0.0609,0.19475 -0.14692,0.22037 -0.43509,0.1297 -0.19754,-0.0622 -0.65127,-0.113 -1.00835,-0.113 -0.75244,0 -1.13304,0.30779 -1.13304,0.91628 0,0.52081 0.25171,0.75188 1.32233,1.21385 1.3511,0.58301 1.74286,1.19633 1.40232,2.19547 -0.11214,0.32906 -0.31111,0.57312 -0.608,0.74584 -0.47256,0.27491 -1.6783,0.39804 -2.34662,0.23965 z m -75.545094,-2.91467 v -2.88979 h 0.344956 0.344957 v 2.60784 2.60785 h 1.264838 c 1.188169,0 1.264829,0.0171 1.264829,0.28193 0,0.26851 -0.07666,0.28193 -1.609785,0.28193 h -1.609795 z m 15.178007,0 v -2.88979 h 0.287472 0.287462 v 2.88979 2.88977 h -0.287462 -0.287472 z m 8.623887,0 v -2.88979 h 0.32441 c 0.28243,0 0.5243,0.30932 1.86852,2.38972 0.84922,1.31435 1.56994,2.39281 1.60155,2.39655 0.0317,0.004 0.0402,-1.07164 0.019,-2.38975 l -0.0383,-2.39652 h 0.29716 0.29716 v 2.88979 2.88977 h -0.33816 c -0.29976,0 -0.51835,-0.27596 -1.926,-2.43165 l -1.58785,-2.43164 -0.0315,2.43164 c -0.03,2.31498 -0.0425,2.43165 -0.25871,2.43165 -0.21896,0 -0.22725,-0.10548 -0.22725,-2.88977 z m 5.9792,0 v -2.88979 h 1.60978 c 1.53314,0 1.6098,0.0134 1.6098,0.28192 0,0.26484 -0.0767,0.28193 -1.26483,0.28193 h -1.26485 v 0.91627 0.91627 h 1.14986 c 1.07319,0 1.14985,0.0188 1.14985,0.28192 0,0.26315 -0.0767,0.28195 -1.14985,0.28195 h -1.14986 v 1.12772 1.12771 h 1.26485 c 1.18817,0 1.26483,0.0171 1.26483,0.28192 0,0.26851 -0.0767,0.28195 -1.6098,0.28195 h -1.60978 z m 11.03855,3.4e-4 v -2.92417 l 1.40857,0.0577 c 1.66063,0.068 2.32565,0.36253 2.79924,1.23987 0.58019,1.07484 0.45538,2.71467 -0.2716,3.56833 -0.54946,0.64519 -1.11981,0.84769 -2.58514,0.91782 l -1.35107,0.0647 v -2.92417 z m 2.99909,1.95677 c 0.5997,-0.42937 0.91041,-1.09314 0.91041,-1.94493 0,-1.54055 -0.67881,-2.23313 -2.27097,-2.31705 l -0.94861,-0.05 v 2.35807 2.35807 l 0.9585,-0.0617 c 0.67859,-0.0437 1.07303,-0.14367 1.35067,-0.34247 z m 2.98013,-1.95711 v -2.88979 h 0.28747 0.28746 v 2.88979 2.88977 h -0.28746 -0.28747 z m 8.04894,0 v -2.88979 h 0.34496 0.34495 v 2.88979 2.88977 h -0.34495 -0.34496 z m 3.44955,0.28192 v -2.60786 h -0.91988 c -0.84322,0 -0.91987,-0.0235 -0.91987,-0.28193 0,-0.27177 0.0767,-0.28192 2.12721,-0.28192 2.05056,0 2.12722,0.0102 2.12722,0.28192 0,0.25844 -0.0767,0.28193 -0.91988,0.28193 h -0.91987 v 2.60786 2.60785 h -0.28747 -0.28746 z m 3.38695,0.44986 c 1.35476,-3.47496 1.42246,-3.62157 1.67266,-3.62157 0.24729,0 0.38353,0.29631 1.73375,3.77081 l 0.78061,2.00876 h -0.31276 c -0.27046,0 -0.36259,-0.12389 -0.68132,-0.91629 l -0.36856,-0.91626 h -1.152 -1.152 l -0.36856,0.91626 c -0.31853,0.7919 -0.41094,0.91629 -0.68083,0.91629 h -0.31229 z m 2.5731,-0.35048 c -0.52218,-1.5269 -0.85498,-2.42162 -0.90072,-2.42162 -0.0457,0 -0.37852,0.89473 -0.90071,2.42162 -0.021,0.0616 0.38424,0.11206 0.90071,0.11206 0.51648,0 0.9218,-0.0505 0.90072,-0.11206 z m 2.43385,-0.3813 v -2.88979 h 0.34495 0.34496 v 2.60784 2.60785 h 1.26483 c 1.18818,0 1.26483,0.0171 1.26483,0.28193 0,0.26851 -0.0767,0.28193 -1.60979,0.28193 h -1.60978 z m 4.25445,0 v -2.88979 h 1.55228 c 1.47565,0 1.55231,0.0139 1.55231,0.28192 0,0.26484 -0.0767,0.28193 -1.26485,0.28193 h -1.26483 v 0.91627 0.91627 h 1.20735 c 1.13068,0 1.20733,0.0179 1.20733,0.28192 0,0.26403 -0.0767,0.28195 -1.20733,0.28195 h -1.20735 v 1.12772 1.12771 h 1.26483 c 1.18819,0 1.26485,0.0171 1.26485,0.28192 0,0.26801 -0.0767,0.28195 -1.55231,0.28195 h -1.55228 z"
         id="path499" />
    </g>
  </g>
</svg>
