<?xml version="1.0" encoding="UTF-8" standalone="no"?>
<svg
   xmlns:dc="http://purl.org/dc/elements/1.1/"
   xmlns:cc="http://creativecommons.org/ns#"
   xmlns:rdf="http://www.w3.org/1999/02/22-rdf-syntax-ns#"
   xmlns:svg="http://www.w3.org/2000/svg"
   xmlns="http://www.w3.org/2000/svg"
   xmlns:sodipodi="http://sodipodi.sourceforge.net/DTD/sodipodi-0.dtd"
   xmlns:inkscape="http://www.inkscape.org/namespaces/inkscape"
   width="77.787498mm"
   height="77.787498mm"
   viewBox="0 0 77.787498 77.787498"
   version="1.1"
   id="svg8"
   inkscape:version="1.0.1 (3bc2e813f5, 2020-09-07)"
   sodipodi:docname="spa_logo.svg">
  <defs
     id="defs2" />
  <sodipodi:namedview
     id="base"
     pagecolor="#ffffff"
     bordercolor="#666666"
     borderopacity="1.0"
     inkscape:pageopacity="0.0"
     inkscape:pageshadow="2"
     inkscape:zoom="0.98994949"
     inkscape:cx="-145.16811"
     inkscape:cy="201.78689"
     inkscape:document-units="mm"
     inkscape:current-layer="layer1"
     inkscape:document-rotation="0"
     showgrid="false"
     fit-margin-top="0"
     fit-margin-left="0"
     fit-margin-right="0"
     fit-margin-bottom="0"
     inkscape:window-width="1323"
     inkscape:window-height="861"
     inkscape:window-x="181"
     inkscape:window-y="179"
     inkscape:window-maximized="0" />
  <metadata
     id="metadata5">
    <rdf:RDF>
      <cc:Work
         rdf:about="">
        <dc:format>image/svg+xml</dc:format>
        <dc:type
           rdf:resource="http://purl.org/dc/dcmitype/StillImage" />
        <dc:title></dc:title>
      </cc:Work>
    </rdf:RDF>
  </metadata>
  <g
     inkscape:label="Capa 1"
     inkscape:groupmode="layer"
     id="layer1"
     transform="translate(-38.969345,-50.308632)">
    <g
       id="g24"
       transform="translate(0.26726983,0.26726953)">
      <path
         style="fill:#fefefe;stroke-width:0.264583"
         d="M 38.969345,89.202381 V 50.308632 H 77.863094 116.75684 V 89.202381 128.09613 H 77.863094 38.969345 Z M 72.86303,120.88096 c 1.73836,-1.1613 1.824194,-1.60912 1.824654,-9.51973 l 4.1e-4,-7.0776 h 4.233333 4.233334 v 5.1714 c 0,5.13785 0.0042,5.17562 0.649433,5.82083 l 0.64943,0.64944 h 7.531012 c 4.142055,0 7.723746,-0.074 7.959312,-0.16436 1.073242,-0.41184 1.202482,-1.34679 1.202482,-8.69918 0,-7.808173 -0.0905,-8.302042 -1.618946,-8.83486 -0.462698,-0.161298 -2.252255,-0.293269 -3.976788,-0.293269 h -3.135519 v -2.769129 -2.769129 l 10.167413,-0.07514 c 9.80505,-0.07246 10.19403,-0.09467 10.91407,-0.623115 1.70972,-1.254792 1.67186,-0.874773 1.67186,-16.782235 0,-16.074122 0.0503,-15.609672 -1.82424,-16.861913 l -0.89903,-0.600586 -14.711387,9.79e-4 c -14.212996,9.52e-4 -14.740607,0.0188 -15.573708,0.526748 -0.474274,0.289168 -1.098905,0.913801 -1.388073,1.388074 -0.490593,0.804636 -0.525825,1.34456 -0.526749,8.072209 l -9.89e-4,7.209906 h -4.233333 -4.233334 v -5.171401 c 0,-5.137846 -0.0042,-5.175616 -0.649433,-5.820834 l -0.64943,-0.649431 h -7.655631 c -7.141587,0 -7.697573,0.03394 -8.280256,0.50546 l -0.624624,0.505461 -0.07774,7.560056 c -0.05379,5.230644 0.01392,7.731322 0.219735,8.115896 0.524557,0.980144 1.83666,1.304793 5.273468,1.304793 h 3.183498 v 2.769129 2.769129 l -10.167417,0.07514 c -9.805048,0.07246 -10.194027,0.09467 -10.914062,0.623115 -1.711013,1.255741 -1.671924,0.860134 -1.671287,16.914527 5.58e-4,14.05441 0.01856,14.58157 0.526337,15.4144 0.289168,0.47427 0.913801,1.0989 1.388074,1.38807 0.8331,0.50795 1.360712,0.52579 15.573707,0.52675 l 14.711392,0.001 0.899025,-0.60059 z M 42.050689,119.24522 41.350595,118.5964 V 104.17873 89.761057 l 0.638316,-0.74236 0.638317,-0.742358 9.945016,-0.07535 9.945017,-0.07535 4.23e-4,6.557642 c 4.5e-4,7.335609 0.104935,7.850919 1.824654,8.999759 0.834197,0.55729 1.183191,0.60059 4.84078,0.60059 h 3.94177 l -0.07829,7.16703 -0.07829,7.16703 -0.742357,0.63818 -0.74236,0.63818 H 57.117184 42.750782 Z m 42.867961,-5.08381 c -0.09701,-0.097 -0.17639,-2.3592 -0.17639,-5.02709 v -4.85069 h 1.719792 c 1.673455,0 1.719792,0.0184 1.719792,0.68444 0,0.51752 -0.193577,0.75751 -0.79375,0.98405 -0.619821,0.23396 -0.79375,0.46083 -0.79375,1.03535 0,0.53875 0.130701,0.73574 0.488159,0.73574 0.268488,0 0.707564,0.24244 0.975727,0.53876 0.43283,0.47827 0.449181,0.6449 0.145664,1.48427 -0.290351,0.80295 -0.282551,1.00487 0.05174,1.33916 0.304753,0.30475 0.516179,0.32806 0.936281,0.10323 1.091949,-0.5844 1.896888,-0.36332 2.314274,0.63563 0.457493,1.09494 1.324353,1.25981 1.681726,0.31985 0.40735,-1.07141 1.007726,-1.38894 1.952151,-1.03246 0.6761,0.2552 0.900679,0.24314 1.20872,-0.0649 0.314806,-0.31481 0.322027,-0.51427 0.04299,-1.18791 -0.283707,-0.68494 -0.270394,-0.90871 0.08647,-1.45335 0.231995,-0.35407 0.692634,-0.68219 1.023641,-0.72917 0.385207,-0.0547 0.631759,-0.29584 0.68498,-0.67005 0.0647,-0.45494 -0.126079,-0.67208 -0.859896,-0.97869 -0.740362,-0.30934 -0.943046,-0.54283 -0.943046,-1.08638 0,-0.3808 0.130685,-0.93655 0.290412,-1.235 0.224832,-0.4201 0.201522,-0.63153 -0.10323,-0.93628 -0.338225,-0.33823 -0.531791,-0.34369 -1.374965,-0.0388 -0.923899,0.33408 -1.010759,0.3185 -1.484271,-0.26626 -0.276621,-0.34161 -0.502946,-0.78652 -0.502946,-0.98867 0,-0.20217 -0.178594,-0.36757 -0.396875,-0.36757 -0.246944,0 -0.396875,-0.24988 -0.396875,-0.66146 v -0.661456 h 3.411275 c 2.866562,0 3.436922,0.06683 3.571875,0.418516 0.20954,0.54605 0.20954,13.169 0,13.71505 -0.140901,0.36719 -1.027877,0.41852 -7.231943,0.41852 -3.88924,0 -7.150722,-0.0794 -7.247734,-0.17639 z m 6.805578,-6.81651 c -0.263437,-0.68651 0.105802,-1.25391 0.755912,-1.1616 0.437285,0.0621 0.596495,0.26125 0.596495,0.74616 0,0.48491 -0.15921,0.68407 -0.596495,0.74617 -0.357791,0.0508 -0.660291,-0.0815 -0.755912,-0.33073 z m -26.970035,-5.2982 -0.649432,-0.64943 v -6.646132 -6.64613 l 3.82986,0.08567 c 5.408067,0.120965 5.012375,-0.490267 5.11276,7.897749 l 0.07908,6.607703 h -3.861417 c -3.747,0 -3.880662,-0.0192 -4.510851,-0.64943 z m 9.933901,-5.776798 c 0,-6.143861 -0.02617,-6.477244 -0.595312,-7.587194 -0.951601,-1.855791 -1.741739,-2.12616 -6.213581,-2.12616 h -3.77444 v -2.778125 -2.778125 h 2.654332 c 2.86835,0 4.245874,-0.373473 4.732705,-1.283123 0.157234,-0.293794 0.285879,-1.196843 0.285879,-2.006775 v -1.472602 h 4.233334 4.233333 l 5.29e-4,6.548437 c 5.29e-4,7.20144 0.105291,7.760306 1.671608,8.910881 0.664078,0.487812 1.194205,0.557281 4.828646,0.632743 l 4.082669,0.08477 v 2.731632 2.731632 l -3.198262,0.09442 c -3.124494,0.09225 -3.212981,0.111538 -3.836458,0.836372 -0.519872,0.60425 -0.638315,1.033838 -0.638315,2.314695 v 1.57275 h -4.233334 -4.233333 z m 10.105956,5.052448 0.0805,-1.404344 2.976563,-0.07481 2.976562,-0.07481 v 0.814434 c 0,0.49357 -0.234543,1.04668 -0.595312,1.4039 -0.515845,0.51076 -0.923931,0.59949 -3.057065,0.66471 l -2.461752,0.0753 z M 83.249217,90.527525 c -1.340189,-0.540832 -1.417373,-0.969197 -1.417373,-7.866308 v -6.423419 h 3.848483 c 3.733269,0 3.867928,0.01944 4.497917,0.649433 l 0.649433,0.64943 v 6.626611 6.626609 l -3.505729,-0.01677 c -1.928151,-0.0092 -3.76088,-0.119737 -4.072731,-0.245583 z m 9.164484,-6.012296 c -7.94e-4,-3.461181 -0.122764,-6.729746 -0.27101,-7.263476 -0.151199,-0.544378 -0.677315,-1.328459 -1.198357,-1.785939 l -0.928819,-0.815516 h -4.091837 -4.091834 v -7.031811 -7.03181 l 0.773398,-0.773398 0.773396,-0.773397 h 14.293098 14.293094 l 0.74236,0.638549 0.74236,0.63855 v 14.567642 14.567641 l -0.60239,0.602663 -0.60239,0.602662 -9.9148,0.07535 -9.914793,0.07535 -0.0016,-6.293059 z M 55.5499,78.971825 c -0.252991,-0.252989 -0.210621,-13.647539 0.04444,-14.049376 0.164921,-0.259825 1.814006,-0.319284 7.338135,-0.264583 l 7.125409,0.07056 0.07198,4.960938 0.07198,4.960937 h -2.387087 c -2.387089,0 -2.387089,0 -1.857923,-0.529167 1.361369,-1.361368 -0.400116,-3.499716 -1.907089,-2.315104 -0.868918,0.683046 -0.838882,1.480088 0.08842,2.346318 0.477107,0.445684 0.694534,0.774892 0.483172,0.731572 -0.211362,-0.04332 -0.723704,0.01073 -1.138538,0.120119 -0.423864,0.111767 -1.14145,0.07109 -1.638219,-0.09286 -0.875126,-0.288818 -0.878832,-0.29688 -0.370235,-0.805477 0.96016,-0.96016 0.345843,-2.63678 -0.962302,-2.626354 -1.596628,0.01273 -2.115139,2.086444 -0.717292,2.868719 0.36409,0.203755 0.241422,0.310897 -0.667844,0.583319 -1.365653,0.40916 -1.565917,0.638033 -1.791242,2.04714 l -0.177712,1.111353 h 2.679649 c 2.50326,0 2.679649,0.03483 2.679649,0.529167 0,0.501676 -0.176389,0.529167 -3.395486,0.529167 -1.867517,0 -3.474861,-0.07937 -3.571875,-0.17639 z m 7.761111,-7.536899 c 0,-0.112098 0.460707,-0.32787 1.023793,-0.479494 2.881727,-0.775968 3.474499,-3.027619 1.114075,-4.231818 -2.506588,-1.278765 -6.371201,-0.138502 -6.371201,1.879839 0,0.845157 1.261817,1.99989 2.535928,2.320715 1.142674,0.287728 1.210051,0.352977 1.057967,1.024527 -0.154518,0.682295 -0.142901,0.692213 0.238505,0.203637 0.220513,-0.282474 0.400933,-0.605307 0.400933,-0.717406 z m -1.852083,-2.473169 c 0,-0.363803 0.119062,-0.661459 0.264583,-0.661459 0.145521,0 0.264583,0.297656 0.264583,0.661459 0,0.363802 -0.119062,0.661458 -0.264583,0.661458 -0.145521,0 -0.264583,-0.297656 -0.264583,-0.661458 z m 1.322916,-0.264584 c 0,-0.509323 0.119063,-0.926041 0.264584,-0.926041 0.145521,0 0.264583,0.416718 0.264583,0.926041 0,0.509323 -0.119062,0.926042 -0.264583,0.926042 -0.145521,0 -0.264584,-0.416719 -0.264584,-0.926042 z m 1.058334,-0.264583 c 0,-0.654844 0.119062,-1.190625 0.264583,-1.190625 0.145521,0 0.264583,0.535781 0.264583,1.190625 0,0.654844 -0.119062,1.190625 -0.264583,1.190625 -0.145521,0 -0.264583,-0.535781 -0.264583,-1.190625 z m 0.264583,10.206254 c 0,-0.473927 0.205466,-0.534448 2.050521,-0.60398 l 2.050521,-0.07727 -0.08609,-0.859896 c -0.08461,-0.845158 -0.06737,-0.859896 1.006015,-0.859896 h 1.092102 l -0.07997,1.389062 -0.07997,1.389063 -2.976563,0.07481 c -2.820585,0.07089 -2.976562,0.04721 -2.976562,-0.45189 z"
         id="path62" />
      <path
         style="fill:#d5f2e4;stroke-width:0.264583"
         d="m 92.084448,112.57507 c 0.181901,-0.0734 0.479557,-0.0734 0.661458,0 0.181901,0.0734 0.03307,0.13345 -0.330729,0.13345 -0.363802,0 -0.51263,-0.06 -0.330729,-0.13345 z m -3.936355,-1.61071 c -0.329107,-0.41965 -0.319748,-0.429 0.0999,-0.0999 0.254661,0.19972 0.46302,0.40808 0.46302,0.46302 0,0.21777 -0.217273,0.0776 -0.562917,-0.36312 z m 7.706667,0.36312 c 0,-0.0549 0.20836,-0.2633 0.463021,-0.46302 0.419645,-0.3291 0.429003,-0.31975 0.0999,0.0999 -0.345644,0.44073 -0.562917,0.58089 -0.562917,0.36312 z m 2.158442,-4.39802 c 0,-0.3638 0.06005,-0.51263 0.133453,-0.33073 0.0734,0.18191 0.0734,0.47956 0,0.66146 -0.0734,0.1819 -0.133453,0.0331 -0.133453,-0.33073 z m -9.810469,-2.271 c 0.0127,-0.30823 0.07539,-0.37092 0.15985,-0.15986 0.07643,0.191 0.06703,0.4192 -0.02088,0.50712 -0.08792,0.0879 -0.150453,-0.0683 -0.138965,-0.34726 z m 8.147444,-1.89618 c -0.329108,-0.41965 -0.319749,-0.42901 0.0999,-0.0999 0.254661,0.19972 0.463021,0.40808 0.463021,0.46302 0,0.21776 -0.217274,0.0776 -0.562917,-0.36312 z m -28.751262,0.002 c 0.975899,-0.0508 2.642774,-0.0511 3.704166,-8e-4 1.061392,0.0504 0.26293,0.0919 -1.774362,0.0923 -2.037291,5.3e-4 -2.905704,-0.0408 -1.929804,-0.0915 z m 9.1397,-8e-4 c 1.200547,-0.049 3.165078,-0.049 4.365625,0 1.200547,0.049 0.218281,0.0891 -2.182813,0.0891 -2.401093,0 -3.383359,-0.0401 -2.182812,-0.0891 z m 8.73125,0.005 c 0.472942,-0.0587 1.246849,-0.0587 1.719791,0 0.472943,0.0587 0.08599,0.10672 -0.859896,0.10672 -0.945885,0 -1.332838,-0.048 -0.859895,-0.10672 z m 6.732309,-2.32214 c 0.0054,-0.43656 0.06469,-0.583123 0.131773,-0.32569 0.06708,0.25743 0.06267,0.61462 -0.0098,0.79375 -0.07248,0.17913 -0.127362,-0.0315 -0.12197,-0.46806 z m 0.04739,-5.291664 c 5.29e-4,-1.600729 0.04417,-2.22146 0.09684,-1.379403 0.05267,0.842058 0.05218,2.151745 -0.0011,2.910417 -0.05326,0.758671 -0.09635,0.06972 -0.09575,-1.531014 z m 0.01574,-10.847917 c -1.61e-4,-3.63802 0.0371,-5.162999 0.08281,-3.388841 0.04571,1.774161 0.04584,4.750723 2.65e-4,6.614583 -0.04555,1.863863 -0.08294,0.412279 -0.0831,-3.225742 z m -18.933877,3.373438 c -0.329107,-0.419645 -0.319748,-0.429003 0.0999,-0.0999 0.254661,0.199721 0.46302,0.40808 0.46302,0.463021 0,0.217762 -0.217273,0.07761 -0.562917,-0.363125 z m -15.7641,-6.876352 c 0.988318,-0.05105 2.53613,-0.05066 3.439583,7.94e-4 0.903454,0.05151 0.09483,0.09327 -1.796941,0.09281 -1.89177,-5.29e-4 -2.630959,-0.04261 -1.642642,-0.09365 z m 7.936156,5.29e-4 c 0.842058,-0.05266 2.151745,-0.05218 2.910417,0.0011 0.758672,0.05326 0.06972,0.09635 -1.531014,0.09576 -1.600729,-5.3e-4 -2.22146,-0.04418 -1.379403,-0.09684 z M 57.688615,79.2169 c 0.909506,-0.05166 2.397787,-0.05166 3.307292,0 0.909505,0.05167 0.165365,0.09394 -1.653646,0.09394 -1.81901,0 -2.563151,-0.04227 -1.653646,-0.09394 z m 7.672917,7.94e-4 c 0.763984,-0.05345 2.01414,-0.05345 2.778125,0 0.763984,0.05345 0.138906,0.09718 -1.389063,0.09718 -1.527968,0 -2.153047,-0.04373 -1.389062,-0.09718 z m -0.727604,-1.291166 c 1.553456,-0.197335 3.645283,-0.218141 3.531608,-0.03513 -0.06779,0.109141 -1.038964,0.1806 -2.158162,0.158795 -1.119197,-0.02176 -1.737248,-0.07741 -1.373446,-0.123626 z m 3.175,-1.741901 c 0,-0.1163 0.565546,-0.202055 1.25677,-0.190567 1.383356,0.02299 1.271442,0.151443 -0.264583,0.303683 -0.545703,0.05409 -0.992187,0.0032 -0.992187,-0.113116 z m 6.01927,-0.143718 c 1.200547,-0.04903 3.165078,-0.04903 4.365625,0 1.200547,0.04903 0.218281,0.08914 -2.182812,0.08914 -2.401094,0 -3.38336,-0.04011 -2.182813,-0.08914 z m 9.645716,8.99e-4 c 0.9759,-0.05076 2.642775,-0.0511 3.704167,-7.4e-4 1.061392,0.05035 0.262929,0.09188 -1.774362,0.0923 -2.037292,4.23e-4 -2.905705,-0.04078 -1.929805,-0.09154 z m -18.707695,-1.39151 c -0.08994,-0.145521 0.02913,-0.264583 0.264584,-0.264583 0.235457,0 0.35452,0.119062 0.264583,0.264583 -0.08994,0.145521 -0.208999,0.264583 -0.264583,0.264583 -0.05558,0 -0.174647,-0.119062 -0.264584,-0.264583 z m -2.726544,-5.688541 c 0.0054,-0.436563 0.06469,-0.583125 0.131773,-0.325694 0.06708,0.257431 0.06267,0.614618 -0.0098,0.79375 -0.07248,0.179131 -0.127363,-0.03149 -0.12197,-0.468056 z m 0.544309,-0.264584 c 0.0029,-0.582083 0.05712,-0.789054 0.120407,-0.459936 0.06329,0.329119 0.06088,0.805369 -0.0053,1.058333 -0.06622,0.252965 -0.118003,-0.01631 -0.115067,-0.598397 z m 1.861035,-0.264583 c 0.002,-0.727604 0.05337,-0.993858 0.114185,-0.591675 0.06082,0.402183 0.05919,0.997496 -0.0036,1.322917 -0.0628,0.325421 -0.11256,-0.0036 -0.110574,-0.731242 z m 2.326464,0.242535 c 0.0127,-0.308225 0.07539,-0.37092 0.159851,-0.159853 0.07643,0.190996 0.06703,0.419199 -0.02088,0.507118 -0.08792,0.08792 -0.150452,-0.06835 -0.138964,-0.347265 z m -0.583806,-1.367014 c -0.329107,-0.419644 -0.319749,-0.429003 0.0999,-0.0999 0.254662,0.199719 0.463021,0.408078 0.463021,0.463021 0,0.217761 -0.217273,0.0776 -0.562917,-0.363126 z M 54.050595,63.96707 c 0,-0.05494 0.208359,-0.263301 0.46302,-0.463021 0.419644,-0.329107 0.429003,-0.319749 0.09989,0.09989 -0.345643,0.440729 -0.562915,0.580887 -0.562915,0.363126 z"
         id="path60" />
      <path
         style="fill:#b3e2ce;stroke-width:0.264583"
         d="m 62.631679,94.494048 c 0,-3.565261 0.03745,-5.023776 0.08323,-3.241146 0.04577,1.78263 0.04577,4.699661 0,6.482291 -0.04577,1.78263 -0.08323,0.324115 -0.08323,-3.241145 z m 1.322601,-0.132292 c 1.73e-4,-3.4925 0.03782,-4.884655 0.08366,-3.09368 0.04584,1.790975 0.0457,4.648475 -3.17e-4,6.349999 -0.04601,1.701525 -0.08352,0.236181 -0.08335,-3.256319 z m 22.71587,5.228145 c 0.842057,-0.05267 2.151745,-0.05218 2.910416,0.0011 0.758672,0.05326 0.06972,0.09635 -1.531014,0.09576 -1.600729,-5.29e-4 -2.22146,-0.04418 -1.379402,-0.09684 z m 7.266381,-8.4e-5 c 0.909505,-0.05167 2.397786,-0.05167 3.307292,0 0.909505,0.05166 0.165364,0.09394 -1.653646,0.09394 -1.81901,0 -2.563151,-0.04227 -1.653646,-0.09394 z M 86.67015,98.002401 c 0.842057,-0.05267 2.151745,-0.05218 2.910416,0.0011 0.758672,0.05326 0.06972,0.09635 -1.531014,0.09575 -1.600729,-5.29e-4 -2.22146,-0.04417 -1.379402,-0.09684 z m 7.266381,-8.4e-5 c 0.909505,-0.05167 2.397786,-0.05167 3.307292,0 0.909505,0.05166 0.165364,0.09394 -1.653646,0.09394 -1.81901,0 -2.563151,-0.04227 -1.653646,-0.09394 z M 62.616233,83.778423 c 6.08e-4,-1.600729 0.04417,-2.22146 0.09684,-1.379403 0.05267,0.842058 0.05218,2.151745 -0.0011,2.910417 -0.05326,0.758671 -0.09635,0.06972 -0.09576,-1.531014 z m 1.322917,0 c 6.08e-4,-1.600729 0.04418,-2.22146 0.09684,-1.379403 0.05267,0.842058 0.05218,2.151745 -0.0011,2.910417 -0.05326,0.758671 -0.09635,0.06972 -0.09575,-1.531014 z m -1.380113,-5.159375 c 0,-0.363802 0.06005,-0.51263 0.133453,-0.330729 0.0734,0.181901 0.0734,0.479557 0,0.661458 -0.0734,0.181901 -0.133453,0.03307 -0.133453,-0.330729 z m 1.302029,0.110244 c 0.01269,-0.308226 0.07539,-0.370919 0.159852,-0.159853 0.07643,0.190994 0.06703,0.419197 -0.02089,0.507118 -0.08792,0.08792 -0.150453,-0.06835 -0.138964,-0.347265 z m -5.503009,-0.834215 c 0.695615,-0.05469 1.767177,-0.05402 2.38125,0.0016 0.614073,0.05549 0.04493,0.100229 -1.264754,0.09942 -1.309688,-7.93e-4 -1.812111,-0.04621 -1.116496,-0.100888 z"
         id="path58" />
      <path
         style="fill:#8ce1b7;stroke-width:0.264583"
         d="m 88.496955,114.4048 c 1.846802,-0.0454 4.942427,-0.0455 6.879166,-2.7e-4 1.936742,0.0453 0.425723,0.0824 -3.357819,0.0826 -3.783542,1.5e-4 -5.368147,-0.0369 -3.521347,-0.0823 z m 2.382303,-13.95763 c 0.0054,-0.43656 0.06469,-0.583123 0.131773,-0.32569 0.06708,0.25743 0.06267,0.61462 -0.0098,0.79375 -0.07248,0.17913 -0.127363,-0.0315 -0.121971,-0.46806 z m 0.04739,-5.291664 c 5.29e-4,-1.600729 0.04418,-2.22146 0.09684,-1.379403 0.05267,0.842058 0.05218,2.151745 -0.0011,2.910417 -0.05326,0.758671 -0.09635,0.06972 -0.09575,-1.531014 z m 0.01545,-10.715625 c 0,-3.56526 0.03745,-5.023776 0.08323,-3.241146 0.04578,1.782631 0.04578,4.699662 0,6.482292 -0.04578,1.78263 -0.08323,0.324114 -0.08323,-3.241146 z"
         id="path56" />
      <path
         style="fill:#a2adc9;stroke-width:0.264583"
         d="m 85.325997,92.181444 c 0.9759,-0.05076 2.642775,-0.0511 3.704167,-7.94e-4 1.061392,0.05035 0.26293,0.09188 -1.774362,0.0923 -2.037292,5.29e-4 -2.905704,-0.04078 -1.929805,-0.09154 z m 11.935129,-0.0021 c 2.738036,-0.04304 7.143344,-0.04297 9.789584,1.48e-4 2.64624,0.04312 0.40603,0.07833 -4.97824,0.07825 -5.384272,-8.2e-5 -7.549376,-0.03536 -4.811344,-0.0784 z M 53.902082,72.004465 c 0,-4.001823 0.03677,-5.638932 0.08172,-3.638021 0.04495,2.000911 0.04495,5.27513 0,7.276042 -0.04495,2.000911 -0.08172,0.363802 -0.08172,-3.638021 z m 17.692999,5.688541 c 0.0016,-0.873125 0.05088,-1.198414 0.109765,-0.722865 0.05889,0.475549 0.05767,1.189924 -0.0027,1.5875 -0.06037,0.397576 -0.108551,0.0085 -0.107066,-0.864635 z m 0.02876,-8.069791 c 0,-2.837656 0.03892,-3.998516 0.0865,-2.579688 0.04757,1.418828 0.04757,3.740547 0,5.159375 -0.04757,1.418828 -0.0865,0.257969 -0.0865,-2.579687 z M 59.276115,64.398383 c 1.928151,-0.04521 5.083307,-0.04521 7.011458,0 1.928151,0.04521 0.350573,0.08219 -3.505729,0.08219 -3.856302,0 -5.43388,-0.03699 -3.505729,-0.08219 z"
         id="path54" />
      <path
         style="fill:#e79898;stroke-width:0.264583"
         d="m 49.883407,121.28328 c 4.038203,-0.0411 10.646172,-0.0411 14.684375,0 4.038203,0.0411 0.734219,0.0747 -7.342187,0.0747 -8.076407,0 -11.380391,-0.0336 -7.342188,-0.0747 z m 23.217187,-0.69538 c 0,-0.0549 0.208359,-0.2633 0.463021,-0.46302 0.419645,-0.32911 0.429003,-0.31975 0.0999,0.0999 -0.345644,0.44073 -0.562917,0.58088 -0.562917,0.36312 z m -22.820312,-0.62751 c 3.819922,-0.0413 10.070703,-0.0413 13.890625,0 3.819922,0.0413 0.694531,0.0751 -6.945312,0.0751 -7.639844,0 -10.765235,-0.0338 -6.945313,-0.0751 z M 39.886667,104.01905 c 0,-8.076409 0.03361,-11.380393 0.07469,-7.34219 0.04108,4.0382 0.04108,10.64617 0,14.68437 -0.04108,4.03821 -0.07469,0.73422 -0.07469,-7.34218 z m 34.652398,7.14375 c 0,-3.8563 0.03699,-5.43388 0.0822,-3.50573 0.04521,1.92815 0.04521,5.08331 0,7.01146 -0.04521,1.92815 -0.0822,0.35057 -0.0822,-3.50573 z M 41.20913,104.01905 c 0,-7.639846 0.03381,-10.765237 0.07512,-6.945315 0.04132,3.819925 0.04132,10.070705 0,13.890625 -0.04132,3.81992 -0.07512,0.69453 -0.07512,-6.94531 z m 33.328797,-7.408336 c 0,-3.56526 0.03745,-5.023776 0.08323,-3.241146 0.04577,1.782631 0.04577,4.699662 0,6.482292 -0.04578,1.78263 -0.08323,0.32411 -0.08323,-3.241146 z M 72.273094,88.73936 c -0.329107,-0.419645 -0.319749,-0.429003 0.0999,-0.0999 0.254661,0.199721 0.463021,0.40808 0.463021,0.463021 0,0.217763 -0.217273,0.07761 -0.562917,-0.363125 z M 40.556845,88.044152 c 0,-0.05494 0.208359,-0.2633 0.463021,-0.463021 0.419644,-0.329107 0.429002,-0.319749 0.09989,0.0999 -0.345644,0.44073 -0.562916,0.580887 -0.562916,0.363125 z m 7.474479,-1.421093 c 2.728515,-0.043 7.193359,-0.043 9.921875,0 2.728515,0.043 0.496093,0.07818 -4.960938,0.07818 -5.457031,0 -7.689453,-0.03518 -4.960937,-0.07818 z m 17.594791,0.0016 c 1.055026,-0.05022 2.781432,-0.05022 3.836458,0 1.055026,0.05022 0.191823,0.09131 -1.918229,0.09131 -2.110052,0 -2.973255,-0.04109 -1.918229,-0.09131 z M 64.055152,67.061224 c 0.190996,-0.07643 0.419199,-0.06703 0.507118,0.02089 0.08792,0.08792 -0.06835,0.150453 -0.347266,0.138965 -0.308224,-0.0127 -0.370919,-0.07539 -0.159852,-0.159853 z"
         id="path52" />
      <path
         style="fill:#99a3b7;stroke-width:0.264583"
         d="m 100.99712,107.06176 c 1.5e-4,-3.78355 0.0373,-5.29457 0.0826,-3.35782 0.0453,1.93674 0.0451,5.03236 -2.6e-4,6.87916 -0.0454,1.8468 -0.0825,0.2622 -0.0823,-3.52134 z m -26.522029,-3.43959 c 0.0054,-0.43656 0.06469,-0.58312 0.131773,-0.32569 0.06708,0.25743 0.06267,0.61462 -0.0098,0.79375 -0.07248,0.17913 -0.127362,-0.0315 -0.12197,-0.46806 z M 80.35876,82.323215 c 0,-3.565261 0.03745,-5.023776 0.08323,-3.241146 0.04578,1.78263 0.04578,4.699661 0,6.482291 -0.04578,1.78263 -0.08323,0.324115 -0.08323,-3.241145 z m 34.66912,-7.408334 c 0,-7.639843 0.0338,-10.765234 0.0751,-6.945312 0.0413,3.819922 0.0413,10.070703 0,13.890625 -0.0413,3.819921 -0.0751,0.694531 -0.0751,-6.945313 z M 62.980282,86.645903 c 0.181901,-0.0734 0.479557,-0.0734 0.661458,0 0.181901,0.0734 0.03307,0.133453 -0.330729,0.133453 -0.363802,0 -0.51263,-0.06006 -0.330729,-0.133453 z m -1.041797,-8.736761 c 0.190996,-0.07643 0.419199,-0.06703 0.507118,0.02088 0.08792,0.08792 -0.06835,0.150453 -0.347265,0.138965 -0.308225,-0.0127 -0.37092,-0.07539 -0.159853,-0.159851 z m 18.421413,-10.13801 c 0,-3.856302 0.03699,-5.433881 0.0822,-3.50573 0.04521,1.928151 0.04521,5.083308 0,7.011459 -0.04521,1.928151 -0.0822,0.350573 -0.0822,-3.505729 z m -14.117582,5.137326 c 0.0127,-0.308225 0.07539,-0.370919 0.159851,-0.159853 0.07643,0.190996 0.06703,0.4192 -0.02088,0.507119 -0.08792,0.08792 -0.150453,-0.06835 -0.138965,-0.347266 z"
         id="path50" />
      <path
         style="fill:#66db9f;stroke-width:0.264583"
         d="m 65.333102,104.01158 c -0.415818,-0.1246 -0.993554,-0.44151 -1.283858,-0.70423 -1.19714,-1.0834 -1.2674,-1.55658 -1.2674,-8.53558 0,-6.396887 0.01799,-6.627722 0.516439,-6.627722 0.496687,0 0.519456,0.258945 0.595313,6.770182 l 0.07887,6.77018 0.742359,0.63815 c 0.710496,0.61076 0.906382,0.63815 4.564061,0.63815 h 3.821705 v 0.66146 0.66146 l -3.505729,-0.0227 c -1.928151,-0.0125 -3.845944,-0.12469 -4.261763,-0.2493 z m 9.354992,-0.38941 v -0.66146 h 4.233333 4.233334 v 0.66146 0.66146 h -4.233334 -4.233333 z m 10.054166,0 c 0,-0.63277 0.06951,-0.66146 1.603116,-0.66146 0.922039,0 1.538444,0.10464 1.450893,0.2463 -0.08373,0.13547 -0.03122,0.32109 0.116676,0.4125 0.672703,0.41575 0.130096,0.66412 -1.450893,0.66412 -1.658056,0 -1.719792,-0.0237 -1.719792,-0.66146 z m 4.947084,-0.91861 c 0.742707,-0.31257 1.487252,-1.74105 1.331669,-2.55492 -0.09883,-0.516993 -0.0099,-0.627509 0.504812,-0.627509 0.517798,0 0.624769,0.135903 0.624769,0.793749 0,0.43656 -0.09444,0.79375 -0.209868,0.79375 -0.11543,0 -0.323789,0.38695 -0.463021,0.8599 -0.2262,0.76834 -0.365836,0.86627 -1.311486,0.91981 -0.860039,0.0487 -0.949389,0.0141 -0.476875,-0.18478 z m 1.347634,-14.096362 c 0.04236,-5.275201 0.0047,-9.991531 -0.08368,-10.480733 -0.08838,-0.489201 -0.445043,-1.17381 -0.792586,-1.521353 L 89.528814,75.973215 H 78.668869 c -6.405393,0 -10.859941,-0.09948 -10.859941,-0.242535 0,-0.133394 -0.506016,-0.424106 -1.12448,-0.646026 -1.03375,-0.370936 -0.152191,-0.3994 10.926091,-0.352778 13.380399,0.05631 12.888642,-0.0086 14.02253,1.851027 0.487841,0.80008 0.515598,1.403616 0.516535,11.230416 l 9.9e-4,10.384895 -0.595313,1.3e-4 -0.595312,1.29e-4 z M 62.781844,82.323215 c 0,-4.056944 0.02205,-4.233334 0.529167,-4.233334 0.507118,0 0.529167,0.17639 0.529167,4.233334 0,4.056943 -0.02205,4.233333 -0.529167,4.233333 -0.507118,0 -0.529167,-0.17639 -0.529167,-4.233333 z m 1.975744,-6.433931 c -0.107924,-0.267581 -0.06296,-0.611766 0.101381,-0.776111 0.435583,-0.435582 0.615402,-0.102372 0.33631,0.623191 -0.219254,0.569999 -0.263268,0.585376 -0.437691,0.15292 z"
         id="path48" />
      <path
         style="fill:#dc6666;stroke-width:0.264583"
         d="m 41.561898,120.75957 c -1.605019,-0.9955 -1.570761,-0.60111 -1.482442,-17.0663 l 0.08051,-15.010158 0.864847,-0.864843 0.864848,-0.864846 15.010152,-0.06877 c 14.687099,-0.06729 15.029001,-0.0572 15.885971,0.468815 1.652029,1.014037 1.637723,0.867256 1.637723,16.802512 0,15.69765 0.03465,15.31262 -1.485604,16.50845 -0.69379,0.54574 -0.886597,0.55245 -15.681848,0.54549 -13.543946,-0.006 -15.047916,-0.0495 -15.694161,-0.45035 z m 30.900307,-1.47559 0.638389,-0.74236 V 103.99227 89.442911 l -0.649433,-0.64943 -0.64943,-0.649433 H 57.252375 42.70302 l -0.742358,0.63855 -0.742359,0.638548 v 14.553674 14.55368 l 0.628194,0.66868 c 0.345506,0.36777 0.881287,0.72032 1.190625,0.78343 0.309337,0.0631 6.91289,0.0992 14.674561,0.0802 l 14.11213,-0.0345 z"
         id="path46" />
      <path
         style="fill:#738a9b;stroke-width:0.264583"
         d="m 91.620033,111.6886 c -0.388911,-0.93892 -1.347891,-1.27188 -2.258931,-0.7843 -0.506476,0.27105 -0.711311,0.27248 -1.03098,0.007 -0.355294,-0.29486 -0.354397,-0.41719 0.0082,-1.11837 0.367622,-0.71091 0.366622,-0.84912 -0.01032,-1.4244 -0.229592,-0.3504 -0.713592,-0.71142 -1.075553,-0.80227 -0.950692,-0.23861 -0.868428,-1.12035 0.137235,-1.47093 0.978836,-0.34122 1.284843,-1.29205 0.702066,-2.18147 -0.377431,-0.57604 -0.374232,-0.66541 0.03715,-1.03771 0.326749,-0.2957 0.57859,-0.33549 0.918704,-0.14516 0.257707,0.14422 0.852946,0.2251 1.32275,0.17974 0.706165,-0.0682 0.898065,-0.2315 1.107348,-0.94238 0.182208,-0.61892 0.409802,-0.8599 0.812146,-0.8599 0.376634,0 0.682464,0.28052 0.937472,0.8599 0.413133,0.93863 1.383379,1.2518 2.321986,0.74947 0.779319,-0.41708 1.299826,0.2995 0.8407,1.15739 -0.496414,0.92756 -0.154903,1.8921 0.786072,2.22012 1.05991,0.36949 1.02761,1.11759 -0.07028,1.6277 -0.931749,0.43293 -1.242039,1.40933 -0.743749,2.34039 0.416613,0.77845 -0.289603,1.28332 -1.20909,0.86438 -0.805337,-0.36694 -1.786843,0.11647 -2.074093,1.02152 -0.255966,0.80647 -1.077584,0.65953 -1.458841,-0.2609 z m 1.672433,-2.95027 c 1.379871,-0.73492 1.647106,-2.21894 0.589945,-3.2761 -1.727243,-1.72724 -4.461709,0.39099 -3.302022,2.55789 0.483878,0.90413 1.738953,1.2365 2.712077,0.71821 z M 60.069865,74.739653 c 0.181901,-0.0734 0.479558,-0.0734 0.661459,0 0.181901,0.0734 0.03307,0.133452 -0.33073,0.133452 -0.363802,0 -0.51263,-0.06005 -0.330729,-0.133452 z M 90.761531,58.841638 c 3.819922,-0.04132 10.070699,-0.04132 13.890629,0 3.81992,0.04132 0.69453,0.07512 -6.945317,0.07512 -7.639843,0 -10.765234,-0.03381 -6.945312,-0.07512 z M 90.62924,57.518714 c 3.892682,-0.04124 10.26253,-0.04124 14.15521,0 3.89268,0.04124 0.70776,0.07498 -7.077607,0.07498 -7.785364,0 -10.970286,-0.03374 -7.077603,-0.07498 z"
         id="path44" />
      <path
         style="fill:#a6b418;stroke-width:0.264583"
         d="m 62.852135,71.624072 c 0.0456,-0.377083 -0.147939,-0.557821 -0.731749,-0.683341 -3.577936,-0.769261 -3.785198,-3.580135 -0.332536,-4.509841 2.797983,-0.753418 5.725961,1.13957 4.707144,3.043249 -0.343279,0.641421 -1.823509,1.471992 -2.623361,1.471992 -0.263867,0 -0.615149,0.267891 -0.780628,0.595313 -0.255756,0.506048 -0.291573,0.518438 -0.23887,0.08263 z m -0.599457,-2.662315 c 0,-0.411575 -0.149931,-0.661459 -0.396875,-0.661459 -0.246945,0 -0.396875,0.249884 -0.396875,0.661459 0,0.411574 0.14993,0.661458 0.396875,0.661458 0.246944,0 0.396875,-0.249884 0.396875,-0.661458 z m 1.058333,-0.264584 c 0,-0.646759 -0.119692,-0.926041 -0.396875,-0.926041 -0.277182,0 -0.396875,0.279282 -0.396875,0.926041 0,0.646759 0.119693,0.926042 0.396875,0.926042 0.277183,0 0.396875,-0.279283 0.396875,-0.926042 z m 1.322917,-0.396875 c 0,-0.999537 -0.09701,-1.322916 -0.396875,-1.322916 -0.299861,0 -0.396875,0.323379 -0.396875,1.322916 0,0.999537 0.09701,1.322917 0.396875,1.322917 0.299861,0 0.396875,-0.32338 0.396875,-1.322917 z"
         id="path42" />
      <path
         style="fill:#3e9d84;stroke-width:0.264583"
         d="m 83.265047,109.17842 c 2.54e-4,-2.76489 0.03946,-3.86004 0.08713,-2.43365 0.04766,1.42639 0.04746,3.68857 -5.29e-4,5.02708 -0.04792,1.33851 -0.08692,0.17147 -0.08666,-2.59343 z m 1.322453,-0.13229 c 0,-2.69213 0.03929,-3.79346 0.08731,-2.4474 0.04802,1.34607 0.04802,3.54873 0,4.8948 -0.04802,1.34606 -0.08731,0.24474 -0.08731,-2.4474 z m -1.350753,-7.54062 c 0.0016,-0.87313 0.05088,-1.19842 0.109765,-0.72287 0.05889,0.47555 0.05767,1.18992 -0.0027,1.5875 -0.06037,0.39758 -0.10855,0.008 -0.107066,-0.86463 z m 1.320215,0.13229 c 0,-0.80037 0.0496,-1.12779 0.110223,-0.72761 0.06062,0.40019 0.06062,1.05503 0,1.45521 -0.06062,0.40018 -0.110223,0.0728 -0.110223,-0.7276 z M 62.568841,80.074256 c 0.0054,-0.436562 0.06469,-0.583126 0.131774,-0.325694 0.06708,0.257432 0.06267,0.614619 -0.0098,0.79375 -0.07248,0.179131 -0.127363,-0.03149 -0.121971,-0.468056 z m 1.322917,0 c 0.0054,-0.436562 0.06469,-0.583126 0.131774,-0.325694 0.06708,0.257432 0.06267,0.614619 -0.0098,0.79375 -0.07248,0.179131 -0.127363,-0.03149 -0.121971,-0.468056 z m -0.911476,-2.159603 c 0.181901,-0.0734 0.479557,-0.0734 0.661458,0 0.181901,0.0734 0.03307,0.133453 -0.330729,0.133453 -0.363802,0 -0.51263,-0.06006 -0.330729,-0.133453 z"
         id="path40" />
      <path
         style="fill:#506699;stroke-width:0.264583"
         d="m 92.202174,91.451339 c 0.0054,-0.436562 0.06469,-0.583126 0.131773,-0.325694 0.06708,0.257432 0.06267,0.614619 -0.0098,0.79375 -0.07248,0.179131 -0.127362,-0.03149 -0.12197,-0.468056 z M 81.628186,82.540054 c -0.06092,-6.265179 -0.06095,-6.265457 -0.656238,-6.380114 l -0.595312,-0.114662 0.603615,-0.03603 c 0.331991,-0.01982 0.661717,0.115373 0.732726,0.300424 0.07101,0.18505 0.09469,3.072315 0.05262,6.416145 l -0.07649,6.079691 z m 32.076774,-7.625173 c 0,-7.639843 0.0338,-10.765234 0.0751,-6.945312 0.0413,3.819922 0.0413,10.070703 0,13.890625 -0.0413,3.819921 -0.0751,0.694531 -0.0751,-6.945313 z M 81.682815,67.771132 c 0,-3.856302 0.03699,-5.433881 0.08219,-3.50573 0.04521,1.928151 0.04521,5.083308 0,7.011459 -0.04521,1.928151 -0.08219,0.350573 -0.08219,-3.505729 z"
         id="path38" />
      <path
         style="fill:#435a95;stroke-width:0.264583"
         d="M 82.175419,91.594341 C 80.5899,90.627596 80.508927,90.203469 80.508927,82.86552 c 0,-6.379033 0.01923,-6.627722 0.512398,-6.627722 0.490884,0 0.515879,0.276862 0.595312,6.593782 0.107127,8.519276 -0.265649,7.958301 5.28841,7.958301 h 3.92263 v 0.661458 0.661459 l -3.902604,-0.0011 c -3.40388,-7.93e-4 -4.01085,-0.06699 -4.749654,-0.517467 z m 10.239758,-0.143002 v -0.661458 h 10.008043 10.00805 l 0.64143,-0.682773 0.64143,-0.682776 V 74.899579 60.374825 l -0.73345,-0.733618 -0.73347,-0.733617 -13.950909,-0.08032 c -9.71663,-0.05594 -14.258282,0.0094 -14.963608,0.215202 -1.65685,0.483495 -1.765432,1.027964 -1.765432,8.852451 0,6.578984 -0.01382,6.755373 -0.529167,6.755373 -0.516268,0 -0.529167,-0.176389 -0.529167,-7.236914 0,-7.095044 0.01183,-7.254463 0.603256,-8.132083 0.331787,-0.492342 0.897334,-1.043976 1.25677,-1.225851 0.499026,-0.252512 4.112321,-0.331606 15.284884,-0.334584 16.147693,-0.0043 15.688263,-0.04996 16.732463,1.66259 0.49587,0.813252 0.51648,1.43299 0.51648,15.531425 0,14.262714 -0.0154,14.709524 -0.53397,15.560193 -0.97102,1.592662 -1.30548,1.637724 -12.15555,1.637724 h -9.798083 z"
         id="path36" />
      <path
         style="fill:#556376;stroke-width:0.264583"
         d="m 91.441823,108.73161 c -1.090483,-0.5272 -1.418723,-2.63131 -0.522042,-3.34641 1.70439,-1.35925 4.177064,0.33522 3.361695,2.30369 -0.298553,0.72077 -1.253289,1.37825 -1.944894,1.33933 -0.175053,-0.01 -0.577696,-0.14332 -0.894759,-0.29661 z m 1.756555,-1.12798 c 0.702855,-0.84688 -0.329467,-2.14782 -1.246222,-1.5705 -0.916075,0.57691 -0.589711,1.95467 0.463021,1.95467 0.255405,0 0.607846,-0.17288 0.783201,-0.38417 z M 55.19237,80.469284 C 54.874461,80.341197 54.487508,79.999382 54.332474,79.7097 54.028606,79.141915 53.921191,64.976632 54.214949,64.211111 c 0.410583,-1.069962 1.354686,-1.202479 8.566895,-1.202479 7.212208,0 8.156313,0.132517 8.566896,1.202479 0.09039,0.235565 0.164354,2.68075 0.164354,5.433743 v 5.005444 h -0.655746 -0.655743 l -0.07186,-5.093229 -0.07186,-5.093229 h -7.276042 -7.276041 v 7.408333 7.408333 l 3.505729,0.07383 3.505729,0.07382 v 0.65378 0.653778 l -3.373437,-0.01677 c -1.855391,-0.0092 -3.633545,-0.121571 -3.951454,-0.249658 z m 8.912391,-0.386363 c 0,-0.650883 0.0087,-0.65301 2.976562,-0.727604 l 2.976563,-0.07481 0.07877,-1.653646 c 0.07419,-1.557504 0.116493,-1.653645 0.727604,-1.653645 0.622636,0 0.648832,0.06992 0.648832,1.731817 0,1.485945 -0.0922,1.824021 -0.649433,2.38125 -0.614518,0.614521 -0.813644,0.649433 -3.704166,0.649433 h -3.054734 z"
         id="path34" />
      <path
         style="fill:#288e70;stroke-width:0.264583"
         d="m 83.206341,103.62217 c 0.0054,-0.43656 0.06469,-0.58312 0.131773,-0.32569 0.06708,0.25743 0.06267,0.61462 -0.0098,0.79375 -0.07248,0.17913 -0.127362,-0.0315 -0.12197,-0.46806 z m 1.322917,0 c 0.0054,-0.43656 0.06469,-0.58312 0.131773,-0.32569 0.06708,0.25743 0.06267,0.61462 -0.0098,0.79375 -0.07248,0.17913 -0.127363,-0.0315 -0.121971,-0.46806 z"
         id="path32" />
      <path
         style="fill:#555e6d;stroke-width:0.264583"
         d="m 63.476376,76.998475 c -0.269883,-1.349414 -0.194472,-1.749681 0.356803,-1.893843 0.424687,-0.111058 0.55377,0.03191 0.691452,0.765814 0.173625,0.925501 0.638463,1.505812 0.638463,0.797066 0,-0.217396 0.112629,-0.691503 0.250287,-1.053571 0.23447,-0.616701 0.310133,-0.639938 1.197235,-0.367678 0.687925,0.21113 0.988053,0.476955 1.097222,0.97181 0.08265,0.374651 0.206762,0.889543 0.275802,1.144204 0.112326,0.414322 -0.109405,0.463021 -2.108184,0.463021 H 63.64174 Z m 0.537101,-3.096615 c -0.582458,-0.643608 -0.552255,-1.182709 0.0993,-1.772354 1.197074,-1.083337 2.849364,0.683953 1.707245,1.82607 -0.565857,0.565858 -1.264639,0.54508 -1.806541,-0.05372 z"
         id="path30" />
      <path
         style="fill:#007d5b;stroke-width:0.264583"
         d="m 84.561119,115.65887 c -0.317908,-0.12809 -0.704861,-0.46991 -0.859896,-0.75959 -0.180168,-0.33665 -0.281879,-3.19558 -0.281879,-7.92311 0,-6.88624 0.03486,-7.4395 0.505428,-8.021041 0.505354,-0.624533 0.50645,-0.624634 7.604368,-0.703453 3.904417,-0.04336 7.37094,-0.01056 7.703384,0.07287 0.332446,0.08344 0.839546,0.386805 1.126886,0.674145 0.49596,0.495959 0.52201,0.901237 0.51402,7.996919 -0.009,8.04734 -0.0215,8.12321 -1.419434,8.6547 -0.885455,0.33665 -14.059781,0.34422 -14.892877,0.009 z m 14.865516,-8.59711 v -7.408338 l -7.111357,-0.07053 c -5.025152,-0.04984 -7.217881,0.01789 -7.474479,0.230833 -0.497858,0.413185 -0.536728,13.980045 -0.04147,14.475305 0.240199,0.2402 2.132909,0.30385 7.474479,0.25135 l 7.15283,-0.0703 z"
         id="path28" />
      <path
         style="fill:#1a252f;stroke-width:0.264583"
         d="m 57.600769,76.710752 c 0.09802,-0.613 0.205837,-1.14216 0.239588,-1.175911 0.03375,-0.03375 0.61242,-0.20875 1.285931,-0.388886 0.990977,-0.265046 1.506895,-0.259792 2.704645,0.02754 0.814043,0.195286 1.480078,0.499761 1.480078,0.67661 0,0.176849 0.07441,0.693614 0.165365,1.148367 l 0.165364,0.826823 h -3.109597 -3.109597 z m 1.883432,-2.843543 c -0.653063,-0.721626 -0.353292,-1.799616 0.564499,-2.029968 0.920267,-0.230971 1.521817,0.17719 1.631363,1.106904 0.154067,1.307561 -1.296185,1.917196 -2.195862,0.923064 z"
         id="path26" />
    </g>
  </g>
</svg>
