<?xml version="1.0" encoding="UTF-8" standalone="no"?>
<svg
   xmlns:dc="http://purl.org/dc/elements/1.1/"
   xmlns:cc="http://creativecommons.org/ns#"
   xmlns:rdf="http://www.w3.org/1999/02/22-rdf-syntax-ns#"
   xmlns:svg="http://www.w3.org/2000/svg"
   xmlns="http://www.w3.org/2000/svg"
   xmlns:sodipodi="http://sodipodi.sourceforge.net/DTD/sodipodi-0.dtd"
   xmlns:inkscape="http://www.inkscape.org/namespaces/inkscape"
   width="235.74374mm"
   height="74.877083mm"
   viewBox="0 0 235.74374 74.877083"
   version="1.1"
   id="svg8"
   inkscape:version="1.0.1 (3bc2e813f5, 2020-09-07)"
   sodipodi:docname="spa_header_svg.svg">
  <defs
     id="defs2" />
  <sodipodi:namedview
     id="base"
     pagecolor="#ffffff"
     bordercolor="#666666"
     borderopacity="1.0"
     inkscape:pageopacity="0.0"
     inkscape:pageshadow="2"
     inkscape:zoom="0.98994949"
     inkscape:cx="576.51435"
     inkscape:cy="186.72279"
     inkscape:document-units="mm"
     inkscape:current-layer="layer1"
     inkscape:document-rotation="0"
     showgrid="false"
     fit-margin-top="0"
     fit-margin-left="0"
     fit-margin-right="0"
     fit-margin-bottom="0"
     inkscape:window-width="1525"
     inkscape:window-height="1040"
     inkscape:window-x="234"
     inkscape:window-y="0"
     inkscape:window-maximized="0" />
  <metadata
     id="metadata5">
    <rdf:RDF>
      <cc:Work
         rdf:about="">
        <dc:format>image/svg+xml</dc:format>
        <dc:type
           rdf:resource="http://purl.org/dc/dcmitype/StillImage" />
        <dc:title></dc:title>
      </cc:Work>
    </rdf:RDF>
  </metadata>
  <g
     inkscape:label="Capa 1"
     inkscape:groupmode="layer"
     id="layer1"
     transform="translate(20.354015,-103.1686)">
    <g
       id="g24"
       transform="translate(0.44059,0.42594562)">
      <path
         style="fill:#fefefe;stroke-width:0.264583"
         d="M -20.354015,140.60714 V 103.1686 H 97.517855 215.38973 v 37.43854 37.43854 H 97.517855 -20.354015 Z m 111.956922,33.40421 c 1.445982,-0.85045 2.05981,-1.51029 3.261778,-3.50629 3.02051,-5.01588 4.562499,-16.07329 4.709221,-33.76921 0.05691,-6.8646 0.02985,-7.34509 -0.443413,-7.87136 -0.370324,-0.4118 -0.817065,-0.56047 -1.684107,-0.56047 -1.015582,0 -1.300938,0.13194 -2.047105,0.94657 l -0.867027,0.94657 -2.119034,-0.6694 c -2.854542,-0.90175 -4.360018,-1.06632 -6.40474,-0.70011 -4.687474,0.83951 -9.337574,4.72662 -11.497769,9.61121 -0.958927,2.1683 -1.565204,5.49305 -1.362485,7.47171 l 0.168957,1.64912 -0.864248,0.12857 c -0.475335,0.0707 -1.24692,0.28705 -1.714635,0.48075 -2.561987,1.06101 -4.275222,-2.49405 -4.299754,-8.92225 -0.0089,-2.33264 0.01326,-2.42436 0.622747,-2.57733 0.347588,-0.0872 1.016561,-0.59663 1.486601,-1.13198 0.833485,-0.94928 0.851678,-1.02296 0.735613,-2.97891 -0.174998,-2.94909 -1.469125,-5.00073 -3.946059,-6.25589 -1.636194,-0.82912 -4.30844,-0.88378 -5.985737,-0.12243 l -1.124479,0.51042 -5.29e-4,-8.91675 c -5.3e-4,-9.94928 -0.03482,-10.16318 -1.824654,-11.35887 l -0.898906,-0.60059 H 40.764732 26.026322 l -0.899025,0.60059 c -1.73836,1.1613 -1.824193,1.60912 -1.824654,9.51973 l -4.1e-4,7.0776 H 19.0689 14.835567 v -4.90793 c 0,-5.10329 -0.197787,-6.18385 -1.202478,-6.56938 -0.558949,-0.21449 -15.0277611,-0.21449 -15.5867093,0 -1.0753653,0.41265 -1.2026544,1.34214 -1.1985783,8.75219 0.00285,5.17384 0.09412,7.26956 0.3376274,7.7522 0.4886875,0.9686 1.7912569,1.29122 5.2808677,1.30799 l 3.1088541,0.0149 v 2.76913 2.76913 l -10.1674167,0.0751 c -9.8050479,0.0725 -10.1940269,0.0947 -10.9140619,0.62311 -1.711014,1.25575 -1.671924,0.86014 -1.671287,16.91453 5.56e-4,14.05442 0.01856,14.58158 0.526337,15.4144 0.289168,0.47427 0.913801,1.0989 1.388074,1.38807 0.83269,0.5077 1.360243,0.5258 15.35674878,0.52675 15.95710522,10e-4 15.71046322,0.0248 16.88550122,-1.62272 0.627827,-0.88027 0.635521,-0.96873 0.716122,-8.23202 l 0.08147,-7.34219 h 4.218005 4.218004 v 5.1714 c 0,5.13785 0.0042,5.17562 0.649433,5.82084 l 0.64943,0.64943 h 7.531012 c 4.142055,0 7.723746,-0.074 7.959312,-0.16435 1.073243,-0.41185 1.202479,-1.34679 1.202479,-8.69919 0,-7.80817 -0.0905,-8.30204 -1.618943,-8.83486 -0.462698,-0.1613 -2.252255,-0.29327 -3.976788,-0.29327 h -3.135519 v -2.77812 -2.77813 h 5.653 5.653 l -0.503547,1.52136 c -1.575464,4.75988 -1.084273,9.10585 1.261996,11.1659 3.383947,2.97114 9.344144,0.45045 13.30326,-5.62624 0.632193,-0.97032 1.24491,-1.70523 1.361594,-1.63311 0.116683,0.0721 0.296362,0.63651 0.399285,1.25421 0.559993,3.36082 1.940425,6.0494 3.637224,7.08398 1.087155,0.66287 2.887686,0.66663 4.335944,0.009 1.361654,-0.61825 3.197405,-2.46875 3.462221,-3.49006 l 0.19748,-0.76161 0.926041,1.24783 c 0.509323,0.68631 1.511599,1.60938 2.227281,2.05127 1.155999,0.71377 1.56945,0.81289 3.704167,0.88809 4.976021,0.17528 8.906028,-2.16558 11.970159,-7.12986 0.527463,-0.85456 1.061162,-1.55374 1.186,-1.55374 0.301816,0 0.28261,2.33149 -0.05122,6.21771 -0.597488,6.95552 -1.56282,11.62198 -2.928237,14.1552 -0.947996,1.7588 -1.804413,2.43417 -3.086679,2.43417 -1.206891,0 -2.402721,-1.20311 -3.095328,-3.11417 -0.799719,-2.20661 -1.465408,-3.49899 -1.885268,-3.66011 -0.906891,-0.348 -3.601055,1.97007 -3.962238,3.40914 -0.636135,2.53457 2.480574,7.21351 5.97553,8.97073 1.281043,0.6441 1.68144,0.7184 3.345468,0.62082 1.412885,-0.0828 2.181307,-0.28202 3.042708,-0.78866 z m -106.544991,-6.40468 -0.649431,-0.64943 v -14.41707 -14.41706 l 0.638316,-0.74236 0.638317,-0.74236 9.9286874,-0.0753 9.9286879,-0.0753 0.082475,6.83459 c 0.091242,7.5612 0.128665,7.73622 1.8827866,8.80578 0.7369492,0.44935 1.3466523,0.51567 4.7481241,0.51653 l 3.902604,9.9e-4 v 6.99116 6.99116 l -0.684977,0.81405 -0.684979,0.81405 H 0.24793788 -14.292652 Z m 42.918623,-5.08321 c -0.09701,-0.097 -0.176389,-2.3592 -0.176389,-5.02708 v -4.8507 h 1.719791 c 1.673455,0 1.719792,0.0184 1.719792,0.68444 0,0.51753 -0.193577,0.75751 -0.79375,0.98405 -0.619821,0.23396 -0.79375,0.46083 -0.79375,1.03535 0,0.53876 0.130701,0.73575 0.488159,0.73575 0.268488,0 0.707564,0.24244 0.975727,0.53875 0.43283,0.47827 0.449181,0.6449 0.145664,1.48427 -0.290351,0.80295 -0.282551,1.00487 0.05174,1.33916 0.304753,0.30475 0.516179,0.32806 0.936281,0.10323 1.091949,-0.58439 1.896888,-0.36331 2.314274,0.63563 0.457493,1.09494 1.324353,1.25981 1.681726,0.31985 0.40735,-1.07141 1.007726,-1.38894 1.952151,-1.03246 0.6761,0.2552 0.900679,0.24314 1.20872,-0.0649 0.314806,-0.31481 0.322027,-0.51427 0.04299,-1.18791 -0.283707,-0.68493 -0.270394,-0.9087 0.08647,-1.45335 0.231995,-0.35407 0.692634,-0.68219 1.023641,-0.72916 0.385207,-0.0547 0.631759,-0.29584 0.68498,-0.67006 0.0647,-0.45494 -0.126079,-0.67208 -0.859896,-0.97869 -0.740362,-0.30934 -0.943046,-0.54283 -0.943046,-1.08638 0,-0.3808 0.130685,-0.93654 0.290412,-1.235 0.224832,-0.4201 0.201522,-0.63152 -0.10323,-0.93628 -0.338225,-0.33822 -0.531791,-0.34368 -1.374966,-0.0388 -0.923898,0.33409 -1.010758,0.3185 -1.48427,-0.26626 -0.276621,-0.34161 -0.502946,-0.78651 -0.502946,-0.98867 0,-0.20216 -0.221615,-0.36757 -0.492477,-0.36757 -0.382638,0 -0.464275,-0.14752 -0.36603,-0.66146 l 0.126445,-0.66145 h 3.380433 c 2.838434,0 3.406179,0.0671 3.541029,0.41851 0.20954,0.54605 0.20954,13.16901 0,13.71505 -0.140901,0.36719 -1.027877,0.41852 -7.231943,0.41852 -3.88924,0 -7.150721,-0.0794 -7.247734,-0.17639 z m 6.805578,-6.81651 c -0.263437,-0.68651 0.105802,-1.25391 0.755912,-1.1616 0.437285,0.0621 0.596495,0.26126 0.596495,0.74617 0,0.48491 -0.15921,0.68406 -0.596495,0.74616 -0.357791,0.0508 -0.660291,-0.0815 -0.755912,-0.33073 z M 7.7110206,150.36104 C 7.1895454,149.69809 7.1626505,149.3403 7.1626505,143.06548 v -6.59842 l 3.8298595,0.0857 c 5.408067,0.12096 5.012375,-0.49027 5.11276,7.89775 l 0.07908,6.6077 H 12.22187 8.2593907 Z m 10.0349624,-5.72909 c 0,-6.14386 -0.02617,-6.47724 -0.595312,-7.58719 -0.9516,-1.85579 -1.741739,-2.12616 -6.213581,-2.12616 H 7.1626505 v -2.77813 -2.77812 h 2.6543316 c 2.8683509,0 4.2458749,-0.37347 4.7327049,-1.28312 0.157234,-0.2938 0.28588,-1.19685 0.28588,-2.00678 v -1.4726 h 4.233333 4.233333 l 5.29e-4,6.54844 c 5.29e-4,7.20144 0.105291,7.7603 1.671609,8.91088 0.664077,0.48781 1.194204,0.55728 4.828645,0.63274 l 4.082669,0.0848 v 2.73164 2.73163 l -3.198262,0.0944 c -3.124493,0.0923 -3.212981,0.11154 -3.836458,0.83637 -0.519872,0.60425 -0.638315,1.03384 -0.638315,2.3147 v 1.57274 h -4.233333 -4.233334 z m 10.105956,5.05245 0.0805,-1.40434 2.976563,-0.0748 2.976562,-0.0748 v 0.81444 c 0,0.49356 -0.234542,1.04667 -0.595312,1.40389 -0.515845,0.51076 -0.923931,0.59949 -3.057065,0.66471 l -2.461752,0.0753 z m 23.557438,-1.47823 c -0.487383,-0.33101 -0.885941,-1.91595 -0.713287,-2.83653 0.08188,-0.43656 0.452739,-1.65695 0.82414,-2.71198 l 0.675272,-1.91823 1.494509,-5.3e-4 c 1.727846,-5.3e-4 3.051151,-0.57427 3.856956,-1.67239 0.441404,-0.60154 0.573701,-1.27047 0.680265,-3.43959 l 0.132291,-2.69281 1.48027,-0.74065 c 1.738347,-0.86979 2.382763,-0.72549 3.348376,0.74976 0.780333,1.19218 0.751091,1.53586 -0.159927,1.87974 -0.54864,0.20709 -0.9265,0.67532 -1.381289,1.71165 -3.243138,7.39018 -6.320182,11.47179 -8.878589,11.77717 -0.562882,0.0672 -1.174427,0.0196 -1.358987,-0.10573 z m 29.153566,-0.0339 c -0.736862,-0.3198 -1.92287,-1.75764 -2.129771,-2.582 -0.09175,-0.36557 -0.102399,-1.37515 -0.02365,-2.24352 0.288695,-3.18378 2.545691,-6.23709 5.702379,-7.71428 1.560063,-0.73004 1.837272,-0.77553 3.981579,-0.65326 2.408185,0.13731 4.663141,0.8776 4.949965,1.62505 0.20147,0.52502 -1.491032,4.3726 -2.822238,6.41581 -1.347902,2.06884 -3.333922,3.9445 -4.918988,4.64565 -1.359657,0.60144 -3.895992,0.87253 -4.739269,0.50655 z m -54.255837,-9.28265 c -1.340189,-0.54083 -1.417373,-0.9692 -1.417373,-7.86631 v -6.42342 h 3.949546 3.949547 l 0.54837,0.69714 c 0.521377,0.66282 0.54837,1.02097 0.54837,7.27604 v 6.5789 l -3.505729,-0.0168 c -1.928151,-0.009 -3.76088,-0.11974 -4.072731,-0.24559 z m 9.119576,-6.56302 c -0.09503,-7.55018 -0.133104,-7.72774 -1.88622,-8.79669 -0.736949,-0.44934 -1.346652,-0.51567 -4.748125,-0.51653 l -3.902604,-9.9e-4 v -7.03181 -7.03181 l 0.773398,-0.7734 0.773396,-0.7734 h 14.328205 14.328206 l 0.773396,0.7734 0.773398,0.7734 v 9.30142 9.30142 l -2.163001,2.02987 c -2.461897,2.31037 -4.710609,5.20882 -6.048724,7.79643 l -0.9164,1.77211 -5.999509,10e-4 -5.999509,0.001 -0.08591,-6.82537 z m 18.50124,5.73064 c 0.444725,-0.64638 1.236816,-1.6878 1.760201,-2.31425 l 0.951609,-1.139 v 1.46549 c 0,1.90734 -0.68597,2.78283 -2.355927,3.00682 l -1.164473,0.15619 z M -1.4492033,127.17519 c -0.070719,-0.18429 -0.096748,-3.42874 -0.057842,-7.20989 l 0.070738,-6.87483 h 7.2760414 7.2760409 l 0.07199,4.96094 0.07198,4.96094 -2.585524,0.0453 c -3.0626101,0.0536 -3.1612309,0.0611 -4.1335217,0.31239 -0.4174066,0.1079 -1.1490144,0.0647 -1.6382174,-0.0968 -0.8751257,-0.28881 -0.8788317,-0.29688 -0.3702348,-0.80547 0.9601599,-0.96016 0.3458421,-2.63678 -0.9623028,-2.62636 -1.5966278,0.0127 -2.1151381,2.08645 -0.7172912,2.86872 0.3640894,0.20376 0.2414217,0.3109 -0.6678448,0.58332 -1.36565293,0.40916 -1.56591605,0.63803 -1.79124156,2.04714 l -0.17771215,1.11135 H 2.8955015 c 2.5032601,0 2.6796491,0.0348 2.6796491,0.52917 0,0.5021 -0.176389,0.52917 -3.4478872,0.52917 -2.53807581,0 -3.4818159,-0.0884 -3.5764667,-0.33508 z m 10.6623745,-4.90158 c 0.4789038,-0.60923 0.4068392,-1.30182 -0.1984374,-1.90709 -0.848442,-0.84845 -1.7542616,-0.67004 -2.3509499,0.46302 -0.8007876,1.52062 1.4755997,2.81006 2.5493873,1.44407 z m -2.8442707,-2.47663 c 0,-0.1121 0.4464844,-0.32452 0.9921875,-0.47204 2.890975,-0.78153 3.467322,-3.05486 1.0828813,-4.27131 -2.4549347,-1.25242 -6.3084019,-0.0255 -6.3084019,2.00855 0,0.70631 1.417883,1.91535 2.6284943,2.24133 1.0369602,0.27923 1.1120773,0.35823 0.9637918,1.01365 -0.1531302,0.67683 -0.14165,0.68626 0.2401136,0.19722 0.2205141,-0.28247 0.4009334,-0.6053 0.4009334,-0.7174 z m -1.8520832,-2.47317 c 0,-0.3638 0.1190625,-0.66146 0.2645833,-0.66146 0.1455208,0 0.2645833,0.29766 0.2645833,0.66146 0,0.3638 -0.1190625,0.66146 -0.2645833,0.66146 -0.1455208,0 -0.2645833,-0.29766 -0.2645833,-0.66146 z m 1.3229166,-0.26459 c 0,-0.50932 0.1190625,-0.92604 0.2645833,-0.92604 0.1455208,0 0.2645833,0.41672 0.2645833,0.92604 0,0.50933 -0.1190625,0.92605 -0.2645833,0.92605 -0.1455208,0 -0.2645833,-0.41672 -0.2645833,-0.92605 z m 1.0583333,-0.26458 c 0,-0.88194 0.1028938,-1.19062 0.396875,-1.19062 0.2939811,0 0.3968749,0.30868 0.3968749,1.19062 0,0.88195 -0.1028938,1.19063 -0.3968749,1.19063 -0.2939812,0 -0.396875,-0.30868 -0.396875,-1.19063 z m 0.2645833,10.20625 c 0,-0.47392 0.2054648,-0.53444 2.0505207,-0.60397 l 2.0505208,-0.0773 -0.08609,-0.85989 c -0.08461,-0.84516 -0.06737,-0.8599 1.006014,-0.8599 h 1.092102 l -0.07997,1.38906 -0.07997,1.38906 -2.976562,0.0748 c -2.8205853,0.0709 -2.9765625,0.0472 -2.9765625,-0.4519 z M 119.62869,156.72123 c 2.45812,-0.72246 5.03427,-2.23959 6.92718,-4.07953 1.65391,-1.60763 1.78594,-1.81932 1.78594,-2.8635 0,-1.71131 -1.16867,-3.48252 -2.29783,-3.48252 -0.1804,0 -1.06173,0.6547 -1.95851,1.45489 -1.93917,1.73028 -4.27583,2.93972 -6.46684,3.34718 -2.6888,0.50003 -5.56825,-0.67663 -6.61653,-2.70378 -0.47516,-0.91885 -0.49959,-1.94036 -0.0552,-2.30915 0.18268,-0.15161 2.64794,-0.58881 5.47837,-0.97154 5.95035,-0.80462 7.15351,-1.26815 8.47669,-3.26579 0.95444,-1.44094 1.16786,-2.46858 0.99056,-4.76964 -0.26078,-3.38462 -2.22784,-6.2175 -5.26305,-7.57961 -1.45569,-0.65328 -1.84816,-0.71529 -3.89845,-0.61601 -1.9602,0.0949 -2.5128,0.23483 -3.94173,0.99799 -2.49472,1.33237 -4.52882,3.66291 -6.1957,7.09865 -0.75636,1.55899 -1.50047,2.922 -1.65358,3.02891 -0.15311,0.10691 -0.60306,0.19621 -0.99989,0.19844 -0.93573,0.005 -1.49769,0.86515 -1.70404,2.60749 -0.22499,1.89964 0.22971,2.87547 1.49912,3.21729 0.95495,0.25714 1.01316,0.33944 1.43892,2.03438 1.11672,4.4457 3.30456,7.13196 6.97872,8.5686 1.61492,0.63146 5.47112,0.67646 7.47587,0.0872 z m -8.61001,-17.02868 c -0.29072,-0.4704 0.0523,-1.47169 0.81448,-2.3775 2.49905,-2.96995 7.45334,-3.13971 8.16546,-0.27978 0.28844,1.15836 -0.30438,1.5512 -3.16618,2.09811 -3.98983,0.76249 -5.59282,0.91667 -5.81376,0.55917 z m 55.58594,15.86827 c 2.72284,-1.34045 5.0891,-4.32875 6.46826,-8.16864 l 0.60399,-1.68164 0.58044,1.72342 c 0.86648,2.5727 2.26287,4.27777 4.1484,5.0654 1.22427,0.51141 2.21281,0.51987 3.59892,0.0308 l 1.07726,-0.38007 1.01612,1.01611 c 3.33736,3.33737 9.43071,0.933 13.56264,-5.35166 0.64351,-0.97878 1.26396,-1.68566 1.37878,-1.57084 0.11481,0.11481 0.33809,0.90838 0.49616,1.76348 1.09807,5.94001 4.25011,8.3507 8.21232,6.28082 2.62849,-1.37314 3.97617,-3.98665 2.99513,-5.80834 -0.4411,-0.81906 -0.57853,-0.8949 -1.42645,-0.78713 -0.51608,0.0656 -1.321,0.27886 -1.78871,0.47394 -2.49535,1.0408 -3.8683,-1.59425 -4.21441,-8.08852 l -0.16921,-3.175 0.9492,-0.34273 c 2.91192,-1.05143 2.78204,-6.26089 -0.22522,-9.03289 -1.53076,-1.411 -2.72884,-1.86917 -4.88781,-1.86917 -1.54773,0 -2.05834,0.13523 -3.73801,0.99 -3.77836,1.92276 -8.55558,7.418 -10.94545,12.59057 -0.97715,2.11491 -1.98016,5.4432 -1.98016,6.57076 0,0.91691 -0.72013,1.16375 -1.92562,0.66007 -1.13121,-0.47265 -1.85025,-1.4663 -2.5268,-3.49182 -1.05079,-3.14598 -1.18128,-5.21784 -0.9851,-15.64118 0.22385,-11.89276 0.26032,-11.73256 -2.67131,-11.73256 -2.77932,0 -3.00367,0.62846 -3.00367,8.41407 0,3.3274 -0.0703,6.12011 -0.15621,6.20603 -0.0859,0.0859 -0.65146,-0.0299 -1.25677,-0.25741 -0.70317,-0.26428 -2.06019,-0.42418 -3.75818,-0.44285 -2.56393,-0.0282 -2.72839,0.006 -4.66508,0.96197 -2.66373,1.31521 -4.83912,3.61153 -6.27031,6.61889 -1.357,2.85147 -1.73001,4.52159 -1.72771,7.73575 0.004,5.93933 2.74361,10.381 7.11864,11.5423 1.57415,0.41784 4.35735,0.0438 6.11593,-0.82195 z m -4.80614,-5.40397 c -2.08485,-0.9081 -3.15048,-3.46322 -2.97348,-7.1297 0.25636,-5.31069 3.1951,-8.06838 7.81884,-7.33715 2.41504,0.38192 3.64802,0.75115 4.02494,1.2053 0.67617,0.81475 -0.96794,7.41227 -2.49701,10.02004 -0.35479,0.60507 -1.09753,1.53953 -1.65054,2.07657 -1.56992,1.5246 -3.05566,1.89108 -4.72275,1.16494 z m 26.21193,-2.26808 c -0.39154,-0.43265 -0.45093,-0.84365 -0.34198,-2.36649 0.21815,-3.04894 2.54365,-7.38696 5.73376,-10.69584 2.31566,-2.40188 3.73437,-3.22356 5.37539,-3.11331 0.51455,0.0346 1.79548,1.7785 1.79548,2.44446 0,0.24842 -0.28905,0.51161 -0.6657,0.60614 -0.54741,0.13739 -0.98675,0.83953 -2.47259,3.95165 -2.48124,5.197 -4.2518,7.66485 -6.64402,9.26059 -0.89503,0.59703 -2.1981,0.55617 -2.78034,-0.0872 z m -38.15381,6.84261 c 1.08326,-0.55398 1.49202,-1.34113 1.49527,-2.87945 0.004,-1.75993 -0.77329,-6.91243 -1.83206,-12.14858 -1.86305,-9.21369 -3.64591,-13.10397 -6.50595,-14.19623 -1.1069,-0.42273 -1.24919,-0.42292 -2.34816,-0.003 -1.72273,0.65792 -2.67788,2.0326 -3.87585,5.57824 -0.81578,2.41447 -0.82525,2.40041 -1.2756,-1.89323 -0.3635,-3.46555 -0.6276,-4.05989 -1.80409,-4.05989 -1.06894,0 -2.09108,0.49239 -2.96578,1.42868 l -0.64013,0.68522 0.45053,5.62378 c 0.57223,7.1428 0.95241,13.91247 0.9622,17.13315 0.004,1.45734 0.14497,2.78271 0.33446,3.15411 0.45185,0.8856 1.59043,1.22039 2.85842,0.84049 1.7469,-0.52338 2.00777,-1.18633 2.62292,-6.66554 0.88063,-7.84384 1.94473,-12.96065 2.94628,-14.16745 1.65436,-1.99338 3.44233,3.62795 5.52407,17.36756 0.43773,2.88898 0.64693,3.6604 1.09425,4.03489 0.62688,0.52483 2.09769,0.60807 2.95922,0.16747 z"
         id="path64" />
      <path
         style="fill:#cfd0d1;stroke-width:0.264583"
         d="m 92.35848,173.44787 c 0,-0.0549 0.20836,-0.2633 0.463021,-0.46302 0.419645,-0.32911 0.429003,-0.31975 0.0999,0.0999 -0.345644,0.44073 -0.562917,0.58088 -0.562917,0.36312 z m -6.119166,-5.65479 c -0.329108,-0.41965 -0.319749,-0.429 0.0999,-0.0999 0.254661,0.19972 0.46302,0.40808 0.46302,0.46302 0,0.21777 -0.217273,0.0776 -0.562916,-0.36312 z m -71.139164,0.0985 c 0,-0.0549 0.20836,-0.2633 0.463021,-0.46302 0.419645,-0.32911 0.429003,-0.31975 0.0999,0.0999 -0.345644,0.44073 -0.562917,0.58088 -0.562917,0.36312 z m 20.042187,-6.9545 c 0.181901,-0.0734 0.479557,-0.0734 0.661458,0 0.181901,0.0734 0.03307,0.13345 -0.330729,0.13345 -0.363802,0 -0.51263,-0.06 -0.330729,-0.13345 z m 1.124479,-0.983 c 0,-0.0549 0.208359,-0.2633 0.463021,-0.46302 0.419645,-0.32911 0.429003,-0.31975 0.0999,0.0999 -0.345644,0.44073 -0.562917,0.58088 -0.562917,0.36312 z m -5.060833,-0.62771 c -0.329108,-0.41964 -0.319749,-0.429 0.0999,-0.0999 0.254661,0.19972 0.46302,0.40808 0.46302,0.46302 0,0.21776 -0.217273,0.0776 -0.562916,-0.36313 z m 7.706666,0.36313 c 0,-0.0549 0.20836,-0.2633 0.463021,-0.46302 0.419645,-0.32911 0.429003,-0.31975 0.0999,0.0999 -0.345644,0.44073 -0.562917,0.58089 -0.562917,0.36313 z m -5.870442,-0.61001 c 0.190994,-0.0764 0.419198,-0.067 0.507119,0.0209 0.08792,0.0879 -0.06835,0.15046 -0.347266,0.13897 -0.308226,-0.0127 -0.370919,-0.0754 -0.159853,-0.15985 z M 30.941399,156.416 c -0.329107,-0.41965 -0.319749,-0.42901 0.0999,-0.0999 0.254662,0.19972 0.463021,0.40808 0.463021,0.46302 0,0.21776 -0.217273,0.0776 -0.562917,-0.36312 z m 62.760887,-0.22049 c 0.0127,-0.30823 0.07539,-0.37092 0.15985,-0.15985 0.07643,0.19099 0.06703,0.41919 -0.02088,0.50712 -0.08792,0.0879 -0.150453,-0.0684 -0.138965,-0.34727 z m -52.719405,-0.81779 c 0.112906,-0.55376 0.179438,-0.62029 0.256543,-0.25654 0.05726,0.27012 -0.01135,0.60657 -0.15244,0.74767 -0.165666,0.16566 -0.202541,-0.008 -0.104103,-0.49113 z m 52.983988,-1.56346 c 0.0127,-0.30823 0.07539,-0.37092 0.159851,-0.15985 0.07643,0.19099 0.06703,0.41919 -0.02088,0.50712 -0.08792,0.0879 -0.150453,-0.0684 -0.138964,-0.34727 z m 4.7625,-0.26458 c 0.0127,-0.30823 0.07539,-0.37092 0.15985,-0.15986 0.07643,0.191 0.06703,0.4192 -0.02088,0.50712 -0.08792,0.0879 -0.150453,-0.0684 -0.138965,-0.34726 z m -67.447861,-0.37483 c 0,-0.3638 0.06006,-0.51263 0.133453,-0.33073 0.0734,0.1819 0.0734,0.47956 0,0.66146 -0.0734,0.1819 -0.133453,0.0331 -0.133453,-0.33073 z m 104.204052,0.42927 c 0,-0.0549 0.20836,-0.2633 0.46302,-0.46302 0.41965,-0.32911 0.42901,-0.31975 0.0999,0.0999 -0.34565,0.44073 -0.56292,0.58088 -0.56292,0.36312 z m -96.287439,-0.58361 c 0.0127,-0.30823 0.07539,-0.37092 0.159851,-0.15985 0.07643,0.19099 0.06703,0.41919 -0.02088,0.50712 -0.08792,0.0879 -0.150452,-0.0684 -0.138964,-0.34727 z m 33.052027,0.31903 c 0,-0.0549 0.208359,-0.2633 0.463021,-0.46302 0.419645,-0.32911 0.429003,-0.31975 0.0999,0.0999 -0.345644,0.44073 -0.562917,0.58089 -0.562917,0.36313 z m 59.342342,-1.88448 c 0.002,-0.72761 0.0534,-0.99386 0.11418,-0.59168 0.0608,0.40219 0.0592,0.9975 -0.004,1.32292 -0.0628,0.32542 -0.11256,-0.004 -0.11057,-0.73124 z m 62.36599,0.56156 c 0,-0.0549 0.20836,-0.2633 0.46302,-0.46302 0.41964,-0.32911 0.429,-0.31975 0.0999,0.0999 -0.34564,0.44073 -0.56291,0.58088 -0.56291,0.36312 z M 57.962648,151.19047 c 0.341776,-0.3638 0.68094,-0.66145 0.7537,-0.66145 0.07276,0 -0.147341,0.29765 -0.489116,0.66145 -0.341776,0.36381 -0.68094,0.66146 -0.7537,0.66146 -0.07276,0 0.147341,-0.29765 0.489116,-0.66146 z m -18.554582,-0.0661 c -0.329108,-0.41965 -0.319749,-0.429 0.0999,-0.0999 0.254661,0.19972 0.46302,0.40808 0.46302,0.46302 0,0.21777 -0.217273,0.0776 -0.562916,-0.36312 z m -28.475103,0.002 c 0.982265,-0.0509 2.589609,-0.0509 3.571875,0 0.982265,0.0509 0.178593,0.0925 -1.785938,0.0925 -1.964531,0 -2.7682027,-0.0417 -1.785937,-0.0925 z m 8.863541,-5.3e-4 c 1.200547,-0.049 3.165078,-0.049 4.365625,0 1.200547,0.049 0.218281,0.0891 -2.182812,0.0891 -2.401094,0 -3.38336,-0.0401 -2.182813,-0.0891 z m 8.73125,0.005 c 0.472942,-0.0587 1.246849,-0.0587 1.719791,0 0.472943,0.0587 0.08599,0.10671 -0.859895,0.10671 -0.945886,0 -1.332839,-0.048 -0.859896,-0.10671 z m 65.73439,-0.47006 c 0.0054,-0.43656 0.06469,-0.58313 0.131773,-0.3257 0.06708,0.25744 0.06267,0.61462 -0.0098,0.79375 -0.07248,0.17913 -0.127362,-0.0315 -0.12197,-0.46805 z m 42.567226,-0.022 c 0.0127,-0.30823 0.0754,-0.37092 0.15985,-0.15985 0.0764,0.19099 0.067,0.41919 -0.0209,0.50711 -0.0879,0.0879 -0.15045,-0.0683 -0.13896,-0.34726 z m -37.804726,-0.50713 c 0.0054,-0.43656 0.06469,-0.58312 0.131773,-0.32569 0.06708,0.25743 0.06267,0.61462 -0.0098,0.79375 -0.07248,0.17913 -0.127363,-0.0315 -0.12197,-0.46806 z m 111.928546,-0.39687 c 0,-0.50933 0.0545,-0.71769 0.121,-0.46302 0.0666,0.25466 0.0666,0.67138 0,0.92604 -0.0665,0.25466 -0.121,0.0463 -0.121,-0.46302 z m -65.39257,-0.41893 c 0.0127,-0.30822 0.0754,-0.37092 0.15985,-0.15985 0.0764,0.191 0.067,0.4192 -0.0209,0.50712 -0.0879,0.0879 -0.15045,-0.0684 -0.13896,-0.34727 z m 20.61661,0.0545 c 0,-0.0549 0.20836,-0.2633 0.46302,-0.46302 0.41964,-0.32911 0.429,-0.31975 0.0999,0.0999 -0.34564,0.44073 -0.56291,0.58089 -0.56291,0.36313 z M 45.338322,147.48631 c 0.0021,-0.72761 0.05337,-0.99386 0.114187,-0.59168 0.06082,0.40219 0.05919,0.9975 -0.0036,1.32292 -0.0628,0.32542 -0.112559,-0.004 -0.110574,-0.73124 z m 91.755628,0.50712 c 0.0127,-0.30823 0.0754,-0.37092 0.15985,-0.15986 0.0764,0.191 0.067,0.4192 -0.0209,0.50712 -0.0879,0.0879 -0.15046,-0.0683 -0.13897,-0.34726 z m -57.733803,-0.57327 c -0.329107,-0.41964 -0.319749,-0.429 0.0999,-0.0999 0.254662,0.19972 0.463021,0.40808 0.463021,0.46302 0,0.21776 -0.217273,0.0776 -0.562917,-0.36313 z m 113.143123,-0.85989 c 0.26339,-0.29105 0.53842,-0.52917 0.61118,-0.52917 0.0728,0 -0.0832,0.23812 -0.3466,0.52917 -0.26339,0.29104 -0.53842,0.52916 -0.61118,0.52916 -0.0728,0 0.0832,-0.23812 0.3466,-0.52916 z m -41.91557,-0.15434 c 0.0127,-0.30823 0.0754,-0.37092 0.15985,-0.15986 0.0764,0.191 0.067,0.4192 -0.0209,0.50712 -0.0879,0.0879 -0.15045,-0.0683 -0.13896,-0.34726 z m 36.81758,-0.37483 c 0,-0.50932 0.0545,-0.71768 0.121,-0.46302 0.0665,0.25466 0.0665,0.67138 0,0.92604 -0.0666,0.25466 -0.121,0.0463 -0.121,-0.46302 z M 73.125884,144.84047 c 0.0016,-0.87312 0.05088,-1.19841 0.109765,-0.72286 0.05889,0.47555 0.05767,1.18992 -0.0027,1.5875 -0.06037,0.39758 -0.10855,0.008 -0.107066,-0.86464 z m 26.178485,0.52917 c 0.0029,-0.58208 0.05712,-0.78905 0.120407,-0.45993 0.06329,0.32911 0.06088,0.80536 -0.0053,1.05833 -0.06622,0.25296 -0.118004,-0.0163 -0.115067,-0.5984 z m 53.990261,-0.52917 c 0.002,-0.87312 0.0509,-1.19841 0.10977,-0.72286 0.0589,0.47555 0.0577,1.18992 -0.003,1.5875 -0.0604,0.39758 -0.10855,0.008 -0.10707,-0.86464 z m 20.02635,1.20625 c 0,-0.13694 0.1177,-0.32172 0.26155,-0.41062 0.14998,-0.0927 0.19434,0.0135 0.10398,0.24897 -0.17589,0.45837 -0.36553,0.54223 -0.36553,0.16165 z m -35.96245,-0.43454 c 0.0127,-0.30823 0.0754,-0.37092 0.15985,-0.15986 0.0764,0.191 0.067,0.4192 -0.0209,0.50712 -0.0879,0.0879 -0.15045,-0.0684 -0.13897,-0.34726 z m -6.03958,-0.77171 c 0.003,-0.58208 0.0571,-0.78905 0.12041,-0.45993 0.0633,0.32912 0.0609,0.80537 -0.005,1.05833 -0.0662,0.25297 -0.118,-0.0163 -0.11506,-0.5984 z m 27.26465,-1.19062 c 0,-0.80036 0.0496,-1.12779 0.11022,-0.7276 0.0606,0.40018 0.0606,1.05502 0,1.4552 -0.0606,0.40019 -0.11022,0.0728 -0.11022,-0.7276 z m -80.470844,0.52917 c 0,-0.36381 0.06005,-0.51263 0.133453,-0.33073 0.0734,0.1819 0.0734,0.47955 0,0.66146 -0.0734,0.1819 -0.133453,0.0331 -0.133453,-0.33073 z m 59.510364,-0.68351 c 0.0127,-0.30823 0.0754,-0.37092 0.15985,-0.15985 0.0764,0.19099 0.067,0.4192 -0.0209,0.50712 -0.0879,0.0879 -0.15045,-0.0684 -0.13896,-0.34727 z m -35.43328,-0.63941 c 0,-0.3638 0.06,-0.51263 0.13345,-0.33073 0.0734,0.1819 0.0734,0.47956 0,0.66146 -0.0734,0.1819 -0.13345,0.0331 -0.13345,-0.33073 z m -35.739636,-0.41892 c 0.0127,-0.30823 0.07539,-0.37092 0.15985,-0.15986 0.07643,0.191 0.06703,0.4192 -0.02088,0.50712 -0.08792,0.0879 -0.150453,-0.0683 -0.138965,-0.34726 z m 136.810466,-0.63941 c 0,-0.36381 0.06,-0.51263 0.13345,-0.33073 0.0734,0.1819 0.0734,0.47955 0,0.66146 -0.0734,0.1819 -0.13345,0.0331 -0.13345,-0.33073 z m -72.22144,-1.98438 c 0.005,-0.43656 0.0647,-0.58312 0.13177,-0.32569 0.0671,0.25743 0.0627,0.61462 -0.01,0.79375 -0.0725,0.17913 -0.12736,-0.0315 -0.12197,-0.46806 z m 39.6568,-1.08038 c 0.0127,-0.30823 0.0754,-0.37092 0.15985,-0.15985 0.0764,0.19099 0.067,0.4192 -0.0209,0.50712 -0.0879,0.0879 -0.15046,-0.0684 -0.13897,-0.34727 z m 6.08542,0 c 0.0127,-0.30823 0.0754,-0.37092 0.15985,-0.15985 0.0764,0.19099 0.067,0.4192 -0.0209,0.50712 -0.0879,0.0879 -0.15045,-0.0684 -0.13896,-0.34727 z M 17.502289,138.46843 c 0.0127,-0.30823 0.07539,-0.37092 0.159851,-0.15986 0.07643,0.191 0.06703,0.4192 -0.02088,0.50712 -0.08792,0.0879 -0.150453,-0.0683 -0.138965,-0.34726 z m 48.714023,-1.03629 c 0.0054,-0.43656 0.06469,-0.58312 0.131773,-0.32569 0.06708,0.25743 0.06267,0.61462 -0.0098,0.79375 -0.07248,0.17913 -0.127363,-0.0315 -0.12197,-0.46806 z m 33.393019,-3.43958 c 2.64e-4,-2.32834 0.04081,-3.24542 0.08995,-2.03796 0.04914,1.20746 0.04886,3.11246 -5.29e-4,4.23333 -0.04947,1.12088 -0.08967,0.13296 -0.08934,-2.19537 z m -83.220014,2.05052 c -0.329108,-0.41965 -0.319749,-0.429 0.0999,-0.0999 0.440729,0.34565 0.580887,0.56292 0.363124,0.56292 -0.05494,0 -0.2633,-0.20836 -0.46302,-0.46302 z m 114.385323,-0.19844 c 0.005,-0.43656 0.0647,-0.58312 0.13178,-0.32569 0.0671,0.25743 0.0627,0.61462 -0.01,0.79375 -0.0725,0.17913 -0.12736,-0.0315 -0.12197,-0.46806 z m 45.81672,-2.51354 c 0,-1.38245 0.0446,-1.94799 0.0991,-1.25677 0.0545,0.69122 0.0545,1.82232 0,2.51354 -0.0545,0.69122 -0.0991,0.12568 -0.0991,-1.25677 z m -190.644985,1.67134 c 0.190996,-0.0764 0.4192,-0.067 0.507118,0.0209 0.08792,0.0879 -0.06835,0.15045 -0.347265,0.13896 -0.308225,-0.0127 -0.370919,-0.0754 -0.159853,-0.15985 z m 28.310416,0 c 0.190995,-0.0764 0.419198,-0.067 0.507119,0.0209 0.08792,0.0879 -0.06835,0.15045 -0.347266,0.13896 -0.308226,-0.0127 -0.370919,-0.0754 -0.159853,-0.15985 z m 179.437099,-0.7453 c 0.49366,-0.50932 0.95709,-0.92604 1.02985,-0.92604 0.0728,0 -0.27161,0.41672 -0.76526,0.92604 -0.49366,0.50932 -0.95709,0.92604 -1.02985,0.92604 -0.0728,0 0.27161,-0.41672 0.76526,-0.92604 z m -63.19364,-1.71979 c 0,-0.3638 0.0601,-0.51263 0.13346,-0.33073 0.0734,0.1819 0.0734,0.47956 0,0.66146 -0.0734,0.1819 -0.13346,0.0331 -0.13346,-0.33073 z m 5.02709,-2.38125 c 0,-0.3638 0.06,-0.51263 0.13345,-0.33073 0.0734,0.1819 0.0734,0.47956 0,0.66146 -0.0734,0.1819 -0.13345,0.0331 -0.13345,-0.33073 z m -5.31256,-0.41892 c 0.0127,-0.30823 0.0754,-0.37092 0.15985,-0.15986 0.0764,0.191 0.067,0.4192 -0.0209,0.50712 -0.0879,0.0879 -0.15045,-0.0684 -0.13897,-0.34726 z M 0.74650494,129.16645 c 0.90950516,-0.0517 2.39778636,-0.0517 3.30729156,0 0.9095051,0.0517 0.1653645,0.0939 -1.6536458,0.0939 -1.81901034,0 -2.56315093,-0.0423 -1.65364576,-0.0939 z m 7.81486796,9e-5 c 0.8420576,-0.0527 2.1517451,-0.0522 2.9104161,0.001 0.758672,0.0533 0.06972,0.0964 -1.5310136,0.0958 -1.6007291,-6.1e-4 -2.2214601,-0.0442 -1.3794025,-0.0968 z m 86.7075241,0.0959 c 0,-0.0549 0.208359,-0.26331 0.463021,-0.46303 0.419645,-0.3291 0.429003,-0.31974 0.0999,0.0999 -0.345644,0.44073 -0.562917,0.58089 -0.562917,0.36313 z m -97.9295783,-0.8923 c -0.3291076,-0.41964 -0.3197493,-0.429 0.099895,-0.0999 0.2546615,0.19972 0.4630208,0.40808 0.4630208,0.46302 0,0.21776 -0.2172721,0.0776 -0.5629155,-0.36313 z m 16.4379153,0.36313 c 0,-0.0549 0.208359,-0.2633 0.46302,-0.46302 0.419645,-0.32911 0.429004,-0.31975 0.0999,0.0999 -0.345643,0.44073 -0.562916,0.58089 -0.562916,0.36313 z M 0.62521677,127.5784 c 0.98831763,-0.0511 2.53613013,-0.0507 3.43958323,8.4e-4 0.9034533,0.0515 0.09483,0.0933 -1.796941,0.0928 -1.89177071,-4.5e-4 -2.63095963,-0.0426 -1.64264223,-0.0936 z m 7.93615613,6.3e-4 c 0.8420576,-0.0527 2.1517451,-0.0522 2.9104161,10e-4 0.758672,0.0533 0.06972,0.0964 -1.5310136,0.0958 -1.6007291,-6.1e-4 -2.2214601,-0.0442 -1.3794025,-0.0968 z M 138.92514,126.61662 c 0,-0.0549 0.20836,-0.2633 0.46303,-0.46302 0.41964,-0.32911 0.429,-0.31975 0.0999,0.0999 -0.34564,0.44072 -0.56292,0.58088 -0.56292,0.36312 z M 1.4159465,126.25713 c 0.6956147,-0.0547 1.7671772,-0.054 2.3812499,10e-4 0.6140728,0.0555 0.044933,0.10023 -1.264754,0.0994 -1.3096875,-8e-4 -1.81211057,-0.0462 -1.1164959,-0.10089 z m 6.2758706,0.0315 c 1.553456,-0.19733 3.6452839,-0.21814 3.5316079,-0.0351 -0.06779,0.10914 -1.038963,0.18059 -2.1581611,0.15879 -1.1191981,-0.0218 -1.7372488,-0.0774 -1.3734468,-0.12367 z m 169.1408029,-1.4242 c 0,-0.65484 0.0516,-0.92273 0.11466,-0.59531 0.0631,0.32742 0.0631,0.8632 0,1.19063 -0.0631,0.32742 -0.11466,0.0595 -0.11466,-0.59532 z m -165.961752,-0.0661 c -0.0033,-0.38273 0.213894,-0.45531 1.25272,-0.41855 1.244793,0.0441 1.246719,0.0455 0.201872,0.15201 -0.580197,0.0591 -1.143921,0.24748 -1.25272,0.41854 -0.130781,0.20562 -0.199192,0.1541 -0.201872,-0.152 z m 6.01522,-0.39529 c 1.200546,-0.049 3.165078,-0.049 4.365624,0 1.200547,0.049 0.218282,0.0891 -2.182812,0.0891 -2.401094,0 -3.383359,-0.0401 -2.182812,-0.0891 z m 9.657291,6.4e-4 c 0.982265,-0.0509 2.589609,-0.0509 3.571875,0 0.982265,0.0509 0.178593,0.0926 -1.785938,0.0926 -1.964531,0 -2.768203,-0.0417 -1.785937,-0.0926 z M 3.4088746,122.83161 c 0.1909961,-0.0764 0.4191992,-0.067 0.5071181,0.0209 0.087919,0.0879 -0.068351,0.15045 -0.3472656,0.13896 -0.3082245,-0.0127 -0.3709193,-0.0754 -0.1598525,-0.15985 z M 171.2252,118.09551 c 0.0127,-0.30822 0.0754,-0.37092 0.15985,-0.15985 0.0764,0.19099 0.067,0.4192 -0.0209,0.50712 -0.0879,0.0879 -0.15045,-0.0684 -0.13896,-0.34727 z M 5.0975642,117.32381 c 0.00539,-0.43656 0.06469,-0.58313 0.1317736,-0.3257 0.067083,0.25744 0.062672,0.61462 -0.0098,0.79375 -0.072476,0.17914 -0.127363,-0.0315 -0.1219708,-0.46805 z m 0.5443098,-0.26459 c 0.00294,-0.58208 0.05712,-0.78905 0.120406,-0.45993 0.063287,0.32912 0.060884,0.80537 -0.00534,1.05833 -0.066223,0.25297 -0.1180033,-0.0163 -0.115066,-0.5984 z m -3.2417233,-1.02593 c 0,-0.0549 0.2083594,-0.2633 0.4630208,-0.46302 0.419644,-0.32911 0.4290023,-0.31975 0.099895,0.0999 -0.3456435,0.44073 -0.5629156,0.58089 -0.5629156,0.36313 z m 22.7541653,-7.67292 c 0,-0.0549 0.20836,-0.2633 0.463021,-0.46302 0.419645,-0.32911 0.429004,-0.31975 0.0999,0.0999 -0.345643,0.44072 -0.562917,0.58088 -0.562917,0.36312 z"
         id="path62" />
      <path
         style="fill:#b3e2ce;stroke-width:0.264583"
         d="m 5.6898617,142.98839 c -1.616e-4,-3.63802 0.037103,-5.163 0.082809,-3.38884 0.045707,1.77416 0.045839,4.75072 2.911e-4,6.61458 -0.045545,1.86387 -0.082942,0.41228 -0.083103,-3.22574 z m 1.322307,-0.26458 c 1.747e-4,-3.4925 0.037822,-4.88466 0.083664,-3.09368 0.045842,1.79097 0.045702,4.64847 -2.646e-4,6.35 -0.046064,1.70152 -0.083571,0.23618 -0.083399,-3.25632 z m 28.3063493,5.68854 c 0.02381,-0.32929 0.591343,-0.39913 3.33277,-0.41015 l 3.304069,-0.0133 -3.223286,0.0874 c -2.233012,0.0606 -3.256923,0.18657 -3.332768,0.41015 -0.06022,0.1775 -0.09657,0.14413 -0.08079,-0.0742 z m -5.590479,-0.4604 c 0.842057,-0.0527 2.151745,-0.0522 2.910416,10e-4 0.758672,0.0533 0.06972,0.0964 -1.531014,0.0958 -1.600729,-5.3e-4 -2.22146,-0.0442 -1.379402,-0.0968 z m 0,-1.5875 c 0.842057,-0.0527 2.151745,-0.0522 2.910416,0.001 0.758672,0.0533 0.06972,0.0964 -1.531014,0.0958 -1.600729,-5.3e-4 -2.22146,-0.0442 -1.379402,-0.0968 z m 5.594281,-0.15375 c -0.07378,-0.19226 -0.09496,-1.53171 -0.04707,-2.97656 l 0.08707,-2.627 0.05537,2.83613 0.05538,2.83613 3.241146,0.0832 3.241145,0.0832 -3.249448,0.0572 c -2.490168,0.0438 -3.280793,-0.0245 -3.383589,-0.29236 z m 2.64e-4,-13.27648 c 1.75e-4,-3.4925 0.03782,-4.88465 0.08366,-3.09368 0.04584,1.79098 0.0457,4.64848 -2.64e-4,6.35 -0.04601,1.70153 -0.08352,0.23618 -0.08335,-3.25632 z M 5.6741225,132.14047 c 6.085e-4,-1.60072 0.044175,-2.22146 0.09684,-1.3794 0.052665,0.84206 0.052177,2.15175 -0.00108,2.91042 -0.053263,0.75867 -0.096353,0.0697 -0.095756,-1.53102 z m 1.3229174,0 c 5.291e-4,-1.60072 0.044175,-2.22146 0.09684,-1.3794 0.052665,0.84206 0.052176,2.15175 -0.00106,2.91042 -0.053263,0.75867 -0.096353,0.0697 -0.095755,-1.53102 z M 5.616927,126.9811 c 0,-0.3638 0.060053,-0.51263 0.1334521,-0.33073 0.073399,0.1819 0.073399,0.47956 0,0.66146 -0.073399,0.1819 -0.1334521,0.0331 -0.1334521,-0.33073 z m 1.302029,0.11024 c 0.0127,-0.30822 0.07539,-0.37092 0.1598507,-0.15985 0.07643,0.191 0.067032,0.4192 -0.020876,0.50712 -0.087921,0.0879 -0.1504527,-0.0683 -0.1389645,-0.34727 z"
         id="path60" />
      <path
         style="fill:#8ce1b7;stroke-width:0.264583"
         d="m 31.554844,162.76685 c 1.846802,-0.0454 4.942427,-0.0455 6.879166,-2.6e-4 1.936742,0.0453 0.425722,0.0824 -3.357819,0.0826 -3.783542,1.6e-4 -5.368147,-0.0369 -3.521347,-0.0823 z m 12.500167,-7.34304 c 1.51e-4,-3.78354 0.03731,-5.29456 0.08258,-3.35782 0.04527,1.93674 0.04514,5.03236 -2.64e-4,6.87917 -0.04542,1.8468 -0.08246,0.26219 -0.0823,-3.52135 z m -10.117864,-6.61459 c 0.0054,-0.43656 0.06469,-0.58312 0.131773,-0.32569 0.06708,0.25743 0.06267,0.61462 -0.0098,0.79375 -0.07248,0.17913 -0.127363,-0.0315 -0.121971,-0.46806 z m 0.04739,-5.29166 c 5.29e-4,-1.60073 0.04418,-2.22146 0.09684,-1.3794 0.05267,0.84205 0.05218,2.15174 -0.0011,2.91041 -0.05326,0.75867 -0.09635,0.0697 -0.09576,-1.53101 z m 0.01545,-10.71563 c 0,-3.56526 0.03745,-5.02377 0.08323,-3.24114 0.04577,1.78263 0.04577,4.69966 0,6.48229 -0.04578,1.78263 -0.08323,0.32411 -0.08323,-3.24115 z"
         id="path58" />
      <path
         style="fill:#a2adc9;stroke-width:0.264583"
         d="m 28.383887,140.5435 c 0.975899,-0.0508 2.642774,-0.0511 3.704166,-8e-4 1.061392,0.0504 0.26293,0.0919 -1.774362,0.0923 -2.037291,5.3e-4 -2.905704,-0.0408 -1.929804,-0.0915 z m 9.668866,-0.002 c 1.63711,-0.0464 4.316016,-0.0464 5.953125,0 1.637109,0.0464 0.297656,0.0844 -2.976562,0.0844 -3.274219,0 -4.613672,-0.038 -2.976563,-0.0844 z m 14.952596,0.008 c 0.402183,-0.0608 0.997495,-0.0592 1.322917,0.004 0.325421,0.0628 -0.0037,0.11256 -0.731242,0.11058 -0.727605,-0.002 -0.993857,-0.0534 -0.591675,-0.11419 z m -28.678533,-1.06689 c -0.329107,-0.41964 -0.319749,-0.429 0.0999,-0.0999 0.254662,0.19972 0.463021,0.40808 0.463021,0.46302 0,0.21776 -0.217273,0.0776 -0.562917,-0.36313 z m 31.254582,-0.69521 c 0,-0.0549 0.20836,-0.2633 0.463021,-0.46302 0.419645,-0.3291 0.429004,-0.31975 0.0999,0.0999 -0.345643,0.44073 -0.562917,0.58089 -0.562917,0.36312 z m -32.164161,-7.8376 c 0,-3.71078 0.03721,-5.22883 0.0827,-3.37344 0.04548,1.85539 0.04548,4.89149 0,6.74688 -0.04548,1.85539 -0.0827,0.33734 -0.0827,-3.37344 z m 34.637859,4.49792 c 0,-1.23693 0.04558,-1.74295 0.101283,-1.12448 0.0557,0.61846 0.0557,1.63049 0,2.24896 -0.05571,0.61846 -0.101283,0.11244 -0.101283,-1.12448 z m 0.02633,-17.5948 c 9.6e-5,-4.9477 0.03579,-6.93438 0.07931,-4.41483 0.04353,2.51955 0.04345,6.56768 -1.75e-4,8.99584 -0.04362,2.42815 -0.07924,0.3667 -0.07914,-4.58101 z m -34.663373,-1.85208 c -1.43e-4,-3.92906 0.03668,-5.57329 0.08182,-3.65384 0.04515,1.91945 0.04526,5.13414 2.57e-4,7.14375 -0.04501,2.00961 -0.08194,0.43915 -0.08208,-3.48991 z"
         id="path56" />
      <path
         style="fill:#e79898;stroke-width:0.264583"
         d="m -7.0587031,169.64534 c 4.038203,-0.0411 10.6461715,-0.0411 14.6843744,0 4.0382027,0.0411 0.7342187,0.0747 -7.34218718,0.0747 -8.07640592,0 -11.38039012,-0.0336 -7.34218722,-0.0747 z m 0.396875,-1.3229 c 3.8199217,-0.0413 10.0707027,-0.0413 13.8906244,0 3.8199217,0.0413 0.6945313,0.0751 -6.94531218,0.0751 -7.63984342,0 -10.76523412,-0.0338 -6.94531222,-0.0751 z M -17.055516,152.51339 c -4e-5,-8.00364 0.03359,-11.31606 0.07472,-7.36092 0.04114,3.95514 0.04117,10.50358 7.3e-5,14.55209 -0.0411,4.0485 -0.07476,0.81248 -0.0748,-7.19117 z m 1.322536,-0.13229 c 0,-7.63984 0.03381,-10.76523 0.07512,-6.94531 0.04132,3.81992 0.04132,10.0707 0,13.89062 -0.04132,3.81992 -0.07512,0.69453 -0.07512,-6.94531 z m 33.329659,7.01146 c 1.51e-4,-3.78354 0.03731,-5.29456 0.08258,-3.35782 0.04527,1.93674 0.04514,5.03236 -2.64e-4,6.87917 -0.04542,1.8468 -0.08245,0.26219 -0.0823,-3.52135 z m -0.0011,-14.2875 c 1.74e-4,-3.4925 0.03782,-4.88466 0.08366,-3.09368 0.04584,1.79097 0.0457,4.64847 -2.65e-4,6.35 -0.04601,1.70152 -0.08352,0.23618 -0.08335,-3.25632 z m -2.264519,-8.00365 c -0.329107,-0.41964 -0.319749,-0.429 0.0999,-0.0999 0.254662,0.19972 0.463021,0.40808 0.463021,0.46302 0,0.21776 -0.217273,0.0776 -0.562917,-0.36313 z m -31.716367,-0.69521 c 0,-0.0549 0.208359,-0.2633 0.463021,-0.46302 0.419644,-0.3291 0.429002,-0.31975 0.09989,0.0999 -0.345643,0.44073 -0.562915,0.58089 -0.562915,0.36312 z m 7.7563668,-1.42115 c 2.7380331,-0.043 7.1433454,-0.043 9.7895829,1.5e-4 2.6462375,0.0431 0.4060285,0.0783 -4.9782421,0.0782 -5.3842706,-9e-5 -7.5493736,-0.0354 -4.8113408,-0.0784 z m 17.4451945,0.002 c 0.9822655,-0.0509 2.5896097,-0.0509 3.5718747,0 0.982266,0.0509 0.178594,0.0926 -1.785937,0.0926 -1.9645315,0 -2.7682033,-0.0417 -1.7859377,-0.0926 z"
         id="path54" />
      <path
         style="fill:#adaeb0;stroke-width:0.264583"
         d="m 82.146884,171.89412 -0.504028,-0.59531 0.595312,0.50403 c 0.559446,0.47366 0.715762,0.68659 0.504029,0.68659 -0.05021,0 -0.318098,-0.26789 -0.595313,-0.59531 z M 50.625496,154.579 c 0.257432,-0.0671 0.614619,-0.0627 0.79375,0.01 0.179131,0.0725 -0.03149,0.12736 -0.468056,0.12197 -0.436562,-0.005 -0.583125,-0.0647 -0.325694,-0.13177 z m 57.587954,-0.54425 -0.64143,-0.72761 0.72761,0.64143 c 0.40018,0.35279 0.7276,0.68022 0.7276,0.72761 0,0.20751 -0.21426,0.0386 -0.81378,-0.64143 z m 79.20162,0.54425 c 0.25744,-0.0671 0.61462,-0.0627 0.79375,0.01 0.17913,0.0725 -0.0315,0.12736 -0.46805,0.12197 -0.43656,-0.005 -0.58313,-0.0647 -0.3257,-0.13177 z m -53.8312,-0.52656 c 0.19099,-0.0764 0.4192,-0.067 0.50712,0.0209 0.0879,0.0879 -0.0684,0.15045 -0.34727,0.13896 -0.30822,-0.0127 -0.37092,-0.0754 -0.15985,-0.15985 z m 50.42759,-0.94374 -0.50403,-0.59531 0.59532,0.50403 c 0.32742,0.27721 0.59531,0.54511 0.59531,0.59531 0,0.21174 -0.21293,0.0554 -0.6866,-0.50403 z m -14.65923,0.23084 c 0,-0.0549 0.20836,-0.2633 0.46302,-0.46302 0.41964,-0.32911 0.429,-0.31975 0.0999,0.0999 -0.34564,0.44073 -0.56291,0.58089 -0.56291,0.36313 z m -93.696249,-1.15688 c -0.329108,-0.41964 -0.319749,-0.429 0.0999,-0.0999 0.440729,0.34564 0.580887,0.56291 0.363124,0.56291 -0.05494,0 -0.2633,-0.20836 -0.46302,-0.46302 z m 14.585833,-1.52135 c 0.493654,-0.50932 0.957085,-0.92604 1.029845,-0.92604 0.07276,0 -0.271608,0.41672 -0.765262,0.92604 -0.493654,0.50932 -0.957085,0.92604 -1.029846,0.92604 -0.07276,0 0.271608,-0.41672 0.765263,-0.92604 z m 41.316776,-0.92604 c 0,-0.36381 0.06,-0.51263 0.13345,-0.33073 0.0734,0.1819 0.0734,0.47955 0,0.66146 -0.0734,0.1819 -0.13345,0.0331 -0.13345,-0.33073 z m -20.04296,-0.33073 -0.50403,-0.59532 0.59532,0.50403 c 0.32742,0.27722 0.59531,0.54511 0.59531,0.59532 0,0.21173 -0.21293,0.0554 -0.6866,-0.50403 z m 48.80701,-0.13229 c -0.3291,-0.41965 -0.31975,-0.42901 0.0999,-0.0999 0.44073,0.34564 0.58089,0.56292 0.36312,0.56292 -0.0549,0 -0.2633,-0.20836 -0.46302,-0.46302 z m -61.328688,-0.22049 c 0.0127,-0.30823 0.07539,-0.37092 0.159851,-0.15985 0.07643,0.19099 0.06703,0.41919 -0.02088,0.50712 -0.08792,0.0879 -0.150452,-0.0684 -0.138964,-0.34727 z m -4.497916,-1.85208 c 0.0127,-0.30823 0.07539,-0.37092 0.15985,-0.15986 0.07643,0.191 0.06703,0.4192 -0.02087,0.50712 -0.08792,0.0879 -0.150453,-0.0684 -0.138965,-0.34726 z m -39.443804,0.0716 c 0,-0.0455 0.386953,-0.43249 0.859896,-0.8599 l 0.859895,-0.77711 -0.777105,0.8599 c -0.724371,0.80155 -0.942686,0.98151 -0.942686,0.77711 z m 33.072915,-1.63701 c 0.341776,-0.3638 0.68094,-0.66145 0.7537,-0.66145 0.07276,0 -0.147341,0.29765 -0.489117,0.66145 -0.341775,0.36381 -0.680939,0.66146 -0.7537,0.66146 -0.07276,0 0.147342,-0.29765 0.489117,-0.66146 z m 11.16408,-1.85208 c 0.0054,-0.43656 0.06469,-0.58312 0.131773,-0.32569 0.06708,0.25743 0.06267,0.61462 -0.0098,0.79375 -0.07248,0.17913 -0.127362,-0.0315 -0.12197,-0.46806 z m 2.879723,-0.022 c 0.0127,-0.30822 0.0754,-0.37092 0.15985,-0.15985 0.0764,0.19099 0.067,0.4192 -0.0209,0.50712 -0.0879,0.0879 -0.15046,-0.0684 -0.13897,-0.34727 z m 29.12505,-0.37483 c 0,-0.36381 0.0601,-0.51263 0.13346,-0.33073 0.0734,0.1819 0.0734,0.47955 0,0.66146 -0.0734,0.1819 -0.13346,0.0331 -0.13346,-0.33073 z m -65.077688,-4.63021 c 0.0054,-0.43656 0.06469,-0.58313 0.131773,-0.3257 0.06708,0.25744 0.06267,0.61462 -0.0098,0.79375 -0.07248,0.17913 -0.127363,-0.0315 -0.12197,-0.46805 z m 64.792218,-0.022 c 0.0127,-0.30823 0.0754,-0.37092 0.15985,-0.15985 0.0764,0.19099 0.067,0.41919 -0.0209,0.50711 -0.0879,0.0879 -0.15045,-0.0683 -0.13897,-0.34726 z m 71.98755,-1.16859 c 0,-0.3638 0.0601,-0.51263 0.13346,-0.33073 0.0734,0.18191 0.0734,0.47956 0,0.66146 -0.0734,0.1819 -0.13346,0.0331 -0.13346,-0.33073 z m -26.47921,-1.47725 c 0.0127,-0.30823 0.0754,-0.37092 0.15985,-0.15986 0.0764,0.191 0.067,0.4192 -0.0209,0.50712 -0.0879,0.0879 -0.15045,-0.0683 -0.13896,-0.34726 z m -99.239639,-2.06223 c 0,-0.0549 0.208359,-0.2633 0.463021,-0.46302 0.419645,-0.3291 0.429003,-0.31975 0.0999,0.0999 -0.345644,0.44073 -0.562917,0.58089 -0.562917,0.36312 z m 31.485419,-0.79375 c 0,-0.0549 0.20836,-0.2633 0.46302,-0.46302 0.41964,-0.3291 0.429,-0.31975 0.0999,0.0999 -0.34564,0.44073 -0.56291,0.58089 -0.56291,0.36312 z M 51.877232,132.173 c 0,-0.0549 0.208359,-0.2633 0.463021,-0.46302 0.419645,-0.32911 0.429003,-0.31975 0.0999,0.0999 -0.345644,0.44073 -0.562917,0.58088 -0.562917,0.36312 z m 137.054158,-0.26458 c 0,-0.0549 0.20836,-0.2633 0.46302,-0.46302 0.41965,-0.32911 0.42901,-0.31975 0.0999,0.0999 -0.34564,0.44073 -0.56292,0.58089 -0.56292,0.36313 z m -12.37403,-1.75219 c 0,-0.50932 0.0545,-0.71768 0.121,-0.46302 0.0666,0.25466 0.0666,0.67138 0,0.92604 -0.0666,0.25466 -0.121,0.0463 -0.121,-0.46302 z m -5.24067,-6.08542 c 0,-3.12869 0.0383,-4.40862 0.085,-2.84427 0.0468,1.56435 0.0468,4.1242 0,5.68854 -0.0468,1.56435 -0.085,0.28443 -0.085,-2.84427 z m -83.78377,4.57537 c 0.329117,-0.0633 0.805367,-0.0609 1.058333,0.005 0.252965,0.0662 -0.01632,0.11801 -0.598398,0.11507 -0.582083,-0.003 -0.789053,-0.0571 -0.459935,-0.12041 z m -90.5729485,-8.27953 c 0,-4.00183 0.036775,-5.63894 0.081723,-3.63802 0.044948,2.00091 0.044948,5.27513 0,7.27604 -0.044947,2.00091 -0.081723,0.3638 -0.081723,-3.63802 z m 17.6956975,5.55625 c 0,-0.94589 0.04802,-1.33284 0.106714,-0.8599 0.05869,0.47294 0.05869,1.24685 0,1.71979 -0.05869,0.47295 -0.106714,0.086 -0.106714,-0.85989 z m -9.6592945,0.34842 c 0.1909961,-0.0764 0.4191993,-0.067 0.5071182,0.0209 0.087919,0.0879 -0.068351,0.15045 -0.3472656,0.13897 -0.3082245,-0.0127 -0.3709194,-0.0754 -0.1598526,-0.15986 z M 176.78145,123.38718 c 0.0127,-0.30823 0.0754,-0.37092 0.15985,-0.15986 0.0764,0.191 0.067,0.4192 -0.0209,0.50712 -0.0879,0.0879 -0.15045,-0.0684 -0.13896,-0.34726 z M 14.681733,117.98527 c 0,-2.83766 0.03892,-3.99852 0.0865,-2.57969 0.04757,1.41883 0.04757,3.74055 0,5.15937 -0.04757,1.41883 -0.0865,0.25797 -0.0865,-2.57968 z m -6.7749419,1.93592 c 0.1909948,-0.0764 0.4191979,-0.067 0.5071189,0.0209 0.087918,0.0879 -0.068352,0.15045 -0.3472656,0.13897 -0.3082263,-0.0127 -0.3709194,-0.0754 -0.1598533,-0.15986 z m -5.5727862,-7.16076 c 1.9281509,-0.0452 5.083307,-0.0452 7.011458,0 1.9281511,0.0452 0.3505729,0.0822 -3.505729,0.0822 -3.8563019,0 -5.43387999,-0.037 -3.505729,-0.0822 z"
         id="path52" />
      <path
         style="fill:#66db9f;stroke-width:0.264583"
         d="M 8.3909918,152.37364 C 7.9751727,152.24903 7.3974364,151.93212 7.107133,151.6694 5.909994,150.586 5.8397339,150.11282 5.8397339,143.13382 c 0,-6.39688 0.017987,-6.62772 0.5164402,-6.62772 0.4966837,0 0.5194538,0.25894 0.5953125,6.77018 l 0.078872,6.77019 0.7423573,0.63815 c 0.7104989,0.61076 0.9063831,0.63815 4.5640621,0.63815 h 3.821705 v 0.66145 0.66146 l -3.505729,-0.0227 c -1.928151,-0.0125 -3.8459432,-0.1247 -4.2617624,-0.24931 z m 9.3549912,-0.38942 v -0.66145 h 4.233334 4.233333 v 0.66145 0.66146 h -4.233333 -4.233334 z m 10.054167,0 c 0,-0.63277 0.06951,-0.66145 1.603115,-0.66145 0.922039,0 1.538444,0.10464 1.450893,0.2463 -0.08373,0.13546 -0.03122,0.32108 0.116676,0.41249 0.672703,0.41575 0.130096,0.66412 -1.450893,0.66412 -1.658056,0 -1.719791,-0.0237 -1.719791,-0.66146 z m 4.947083,-0.91861 c 0.742707,-0.31257 1.487252,-1.74105 1.331669,-2.55492 -0.09883,-0.51699 -0.0099,-0.62751 0.504812,-0.62751 0.517798,0 0.624769,0.13591 0.624769,0.79375 0,0.43657 -0.09444,0.79375 -0.209868,0.79375 -0.11543,0 -0.323789,0.38696 -0.463021,0.8599 -0.2262,0.76834 -0.365836,0.86627 -1.311486,0.91981 -0.860039,0.0487 -0.949389,0.0141 -0.476875,-0.18478 z m 1.347634,-14.09636 c 0.04236,-5.2752 0.0047,-9.99153 -0.08368,-10.48073 -0.08838,-0.4892 -0.445042,-1.17381 -0.792586,-1.52136 l -0.631896,-0.63189 H 21.726759 c -6.405393,0 -10.859942,-0.0995 -10.859942,-0.24254 0,-0.13339 -0.506016,-0.4241 -1.1244791,-0.64602 -1.0337509,-0.37094 -0.152191,-0.3994 10.9260901,-0.35278 13.380399,0.0563 12.888642,-0.009 14.02253,1.85102 0.487841,0.80009 0.515598,1.40362 0.516535,11.23042 l 9.9e-4,10.3849 -0.595313,1.3e-4 -0.595312,1.3e-4 z M 5.8397339,130.68527 c 0,-4.05695 0.022048,-4.23334 0.5291666,-4.23334 0.5071189,0 0.5291667,0.17639 0.5291667,4.23334 0,4.05694 -0.02204,4.23333 -0.5291667,4.23333 -0.5071181,0 -0.5291666,-0.17639 -0.5291666,-4.23333 z m 1.9757442,-6.43393 c -0.1079235,-0.26758 -0.062965,-0.61177 0.1013804,-0.77612 0.4355835,-0.43558 0.6154023,-0.10237 0.3363092,0.6232 -0.2192523,0.56999 -0.2632683,0.58537 -0.4376896,0.15292 z"
         id="path50" />
      <path
         style="fill:#dc6666;stroke-width:0.264583"
         d="m -15.380212,169.12163 c -1.605019,-0.9955 -1.570761,-0.60112 -1.482442,-17.06631 l 0.08051,-15.01016 0.864847,-0.86484 0.864848,-0.86485 15.01015165,-0.0688 c 14.68709835,-0.0673 15.02900035,-0.0572 15.88597035,0.46882 1.652029,1.01403 1.637723,0.86725 1.637723,16.80251 0,15.69765 0.03465,15.31263 -1.485604,16.50846 -0.69379,0.54573 -0.886597,0.55244 -15.68184749,0.54549 -13.54394551,-0.006 -15.04791551,-0.0495 -15.69416051,-0.45035 z m 30.900306,-1.4756 0.638389,-0.74236 V 152.35432 137.80496 L 15.50905,137.15553 14.85962,136.5061 H 0.31026472 -14.23909 l -0.742359,0.63855 -0.742358,0.63855 v 14.55367 14.55368 l 0.628193,0.66868 c 0.345507,0.36778 0.881288,0.72032 1.190625,0.78343 0.309338,0.0631 6.9128906,0.0992 14.6745619,0.0802 l 14.1121291,-0.0345 z"
         id="path48" />
      <path
         style="fill:#8b8b8c;stroke-width:0.264583"
         d="m 162.01004,156.43205 c 0.25466,-0.0666 0.67138,-0.0666 0.92604,0 0.25466,0.0666 0.0463,0.121 -0.46302,0.121 -0.50932,0 -0.71768,-0.0545 -0.46302,-0.121 z m -5.25066,-2.26501 -0.50403,-0.59532 0.59531,0.50403 c 0.55945,0.47367 0.71577,0.6866 0.50403,0.6866 -0.0502,0 -0.31809,-0.26789 -0.59531,-0.59531 z m 23.11003,-1.432 c 0.18191,-0.0734 0.47956,-0.0734 0.66146,0 0.1819,0.0734 0.0331,0.13345 -0.33073,0.13345 -0.3638,0 -0.51263,-0.0601 -0.33073,-0.13345 z M 17.532981,151.98422 c 0.0054,-0.43656 0.06469,-0.58312 0.131773,-0.32569 0.06708,0.25743 0.06267,0.61462 -0.0098,0.79375 -0.07248,0.17913 -0.127363,-0.0315 -0.121971,-0.46806 z m 114.035409,-3.43958 c 0.005,-0.43656 0.0647,-0.58312 0.13178,-0.32569 0.0671,0.25743 0.0627,0.61462 -0.01,0.79375 -0.0725,0.17913 -0.12736,-0.0315 -0.12197,-0.46806 z m -79.476184,-0.0484 c 0.190995,-0.0764 0.4192,-0.067 0.507119,0.0209 0.08792,0.0879 -0.06835,0.15045 -0.347266,0.13896 -0.308226,-0.0127 -0.370919,-0.0754 -0.159853,-0.15985 z m 136.789574,0 c 0.191,-0.0764 0.4192,-0.067 0.50712,0.0209 0.0879,0.0879 -0.0684,0.15045 -0.34726,0.13896 -0.30823,-0.0127 -0.37092,-0.0754 -0.15986,-0.15985 z m -94.385744,-0.50276 c 0.0127,-0.30823 0.07539,-0.37092 0.15985,-0.15986 0.07643,0.191 0.06703,0.4192 -0.02087,0.50712 -0.08792,0.0879 -0.150453,-0.0683 -0.138965,-0.34726 z m 4.793191,-5.53421 c 0.0054,-0.43656 0.06469,-0.58312 0.131773,-0.32569 0.06708,0.25743 0.06267,0.61462 -0.0098,0.79375 -0.07248,0.17913 -0.127362,-0.0315 -0.12197,-0.46806 z m 31.983893,-0.022 c 0.0127,-0.30823 0.0754,-0.37092 0.15985,-0.15986 0.0764,0.191 0.067,0.4192 -0.0209,0.50712 -0.0879,0.0879 -0.15045,-0.0683 -0.13896,-0.34726 z m -65.056808,-2.35922 c 0.0054,-0.43656 0.06469,-0.58312 0.131773,-0.32569 0.06708,0.25743 0.06267,0.61462 -0.0098,0.79375 -0.07248,0.17913 -0.127363,-0.0315 -0.12197,-0.46806 z m 136.789578,-1.32291 c 0.005,-0.43656 0.0647,-0.58313 0.13177,-0.3257 0.0671,0.25744 0.0627,0.61462 -0.01,0.79375 -0.0725,0.17913 -0.12737,-0.0315 -0.12197,-0.46805 z m -77.28902,-0.022 c 0.0127,-0.30823 0.0754,-0.37092 0.15985,-0.15985 0.0764,0.19099 0.067,0.41919 -0.0209,0.50711 -0.0879,0.0879 -0.15045,-0.0683 -0.13896,-0.34726 z m 50.8,-1.85208 c 0.0127,-0.30823 0.0754,-0.37092 0.15985,-0.15986 0.0764,0.191 0.067,0.4192 -0.0209,0.50712 -0.0879,0.0879 -0.15045,-0.0683 -0.13896,-0.34726 z M 6.0381714,135.00795 c 0.181901,-0.0734 0.4795573,-0.0734 0.6614583,0 0.181901,0.0734 0.033073,0.13346 -0.3307292,0.13346 -0.363802,0 -0.5126302,-0.0601 -0.3307291,-0.13346 z m 80.9655816,-0.27648 c 0.329118,-0.0633 0.805368,-0.0609 1.058333,0.005 0.252966,0.0662 -0.01632,0.118 -0.598397,0.11506 -0.582084,-0.003 -0.789054,-0.0571 -0.459936,-0.1204 z m -8.932772,-1.50027 c 0,-0.0549 0.208359,-0.2633 0.463021,-0.46302 0.419645,-0.3291 0.429003,-0.31975 0.0999,0.0999 -0.345644,0.44073 -0.562917,0.58089 -0.562917,0.36312 z m 31.882289,-1.22302 c 0.26339,-0.29104 0.53842,-0.52916 0.61118,-0.52916 0.0728,0 -0.0832,0.23812 -0.3466,0.52916 -0.26339,0.29104 -0.53842,0.52917 -0.61118,0.52917 -0.0728,0 0.0832,-0.23813 0.3466,-0.52917 z m 25.55318,-0.41892 c 0.0127,-0.30823 0.0754,-0.37092 0.15985,-0.15985 0.0764,0.19099 0.067,0.4192 -0.0209,0.50712 -0.0879,0.0879 -0.15046,-0.0684 -0.13897,-0.34727 z m 54.21869,-0.47472 c 0,-0.0549 0.20836,-0.2633 0.46302,-0.46302 0.41965,-0.32911 0.42901,-0.31975 0.0999,0.0999 -0.34564,0.44073 -0.56292,0.58089 -0.56292,0.36313 z m 1.32292,-1.32292 c 0,-0.0549 0.20836,-0.2633 0.46302,-0.46302 0.41965,-0.32911 0.429,-0.31975 0.0999,0.0999 -0.34565,0.44073 -0.56292,0.58088 -0.56292,0.36312 z m -14.5005,-1.09073 c 0.005,-0.43656 0.0647,-0.58312 0.13177,-0.32569 0.0671,0.25743 0.0627,0.61462 -0.01,0.79375 -0.0725,0.17913 -0.12735,-0.0315 -0.12195,-0.46806 z M 3.1277548,123.1017 c 0.1819011,-0.0734 0.4795573,-0.0734 0.6614583,0 0.1819011,0.0734 0.033073,0.13346 -0.3307291,0.13346 -0.3638021,0 -0.5126302,-0.0601 -0.3307292,-0.13346 z M 176.80234,122.48318 c 0,-0.3638 0.0601,-0.51263 0.13345,-0.33073 0.0734,0.18191 0.0734,0.47956 0,0.66146 -0.0734,0.1819 -0.13345,0.0331 -0.13345,-0.33073 z"
         id="path46" />
      <path
         style="fill:#738a9b;stroke-width:0.264583"
         d="m 34.677922,160.05065 c -0.388911,-0.93892 -1.347891,-1.27187 -2.258931,-0.7843 -0.506476,0.27106 -0.711311,0.27249 -1.03098,0.007 -0.355293,-0.29487 -0.354397,-0.41719 0.0082,-1.11838 0.367622,-0.71091 0.366622,-0.84912 -0.01032,-1.42439 -0.229592,-0.35041 -0.713592,-0.71143 -1.075552,-0.80228 -0.950693,-0.23861 -0.868429,-1.12035 0.137234,-1.47093 0.978836,-0.34122 1.284843,-1.29204 0.702066,-2.18147 -0.377431,-0.57604 -0.374232,-0.66541 0.03715,-1.0377 0.32675,-0.29571 0.57859,-0.3355 0.918704,-0.14516 0.257707,0.14422 0.852946,0.22509 1.32275,0.17973 0.706165,-0.0682 0.898065,-0.2315 1.107348,-0.94238 0.182208,-0.61892 0.409802,-0.8599 0.812146,-0.8599 0.376634,0 0.682464,0.28053 0.937472,0.8599 0.413133,0.93863 1.383379,1.2518 2.321986,0.74947 0.779319,-0.41707 1.299826,0.29951 0.8407,1.15739 -0.496414,0.92756 -0.154903,1.8921 0.786072,2.22012 1.05991,0.36949 1.02761,1.11759 -0.07028,1.62771 -0.931749,0.43292 -1.242039,1.40932 -0.743749,2.34038 0.416613,0.77845 -0.289603,1.28333 -1.209091,0.86438 -0.805336,-0.36693 -1.786842,0.11647 -2.074092,1.02152 -0.255966,0.80648 -1.077584,0.65954 -1.458841,-0.2609 z m 1.672433,-2.95027 c 1.379871,-0.73492 1.647106,-2.21894 0.589945,-3.2761 -1.727243,-1.72724 -4.461709,0.39099 -3.302021,2.55789 0.483877,0.90413 1.738952,1.2365 2.712076,0.71821 z M 24.095983,107.30204 c 0,-0.0549 0.208359,-0.2633 0.463021,-0.46302 0.419645,-0.32911 0.429003,-0.31975 0.0999,0.0999 -0.345644,0.44073 -0.562917,0.58089 -0.562917,0.36313 z m 9.874345,-0.0984 c 3.902921,-0.0413 10.213234,-0.0412 14.022916,8e-5 3.809682,0.0413 0.616384,0.0751 -7.09622,0.075 -7.712604,-5e-5 -10.829618,-0.0338 -6.926696,-0.0751 z m -0.283199,-1.32288 c 3.892682,-0.0412 10.262525,-0.0412 14.155207,0 3.892682,0.0412 0.707761,0.075 -7.077604,0.075 -7.785364,0 -10.970286,-0.0337 -7.077603,-0.075 z"
         id="path44" />
      <path
         style="fill:#a6b418;stroke-width:0.264583"
         d="m 5.9100249,119.98612 c 0.045602,-0.37708 -0.1479396,-0.55782 -0.7317493,-0.68334 -3.5779365,-0.76926 -3.7851983,-3.58013 -0.3325363,-4.50984 2.7979819,-0.75342 5.7259617,1.13957 4.7071437,3.04325 -0.3432783,0.64142 -1.8235083,1.47199 -2.6233595,1.47199 -0.2638663,0 -0.6151509,0.26789 -0.7806293,0.59532 -0.255756,0.50604 -0.2915732,0.51843 -0.2388693,0.0826 z m -0.5994577,-2.66231 c 0,-0.41158 -0.1499306,-0.66146 -0.3968749,-0.66146 -0.2469444,0 -0.396875,0.24988 -0.396875,0.66146 0,0.41157 0.1499306,0.66146 0.396875,0.66146 0.2469443,0 0.3968749,-0.24989 0.3968749,-0.66146 z m 1.0583333,-0.26459 c 0,-0.64675 -0.1196922,-0.92604 -0.396875,-0.92604 -0.2771825,0 -0.3968749,0.27929 -0.3968749,0.92604 0,0.64676 0.1196924,0.92605 0.3968749,0.92605 0.2771828,0 0.396875,-0.27929 0.396875,-0.92605 z m 1.3229166,-0.39687 c 0,-0.99954 -0.097015,-1.32292 -0.3968749,-1.32292 -0.2998603,0 -0.396875,0.32338 -0.396875,1.32292 0,0.99954 0.097015,1.32292 0.396875,1.32292 0.2998602,0 0.3968749,-0.32338 0.3968749,-1.32292 z"
         id="path42" />
      <path
         style="fill:#3e9d84;stroke-width:0.264583"
         d="m 26.322936,157.54047 c 2.54e-4,-2.76489 0.03946,-3.86004 0.08713,-2.43365 0.04766,1.42639 0.04746,3.68858 -5.29e-4,5.02708 -0.04792,1.33851 -0.08692,0.17147 -0.08666,-2.59343 z m 1.322454,-0.13229 c 0,-2.69213 0.03929,-3.79346 0.08731,-2.44739 0.04802,1.34606 0.04802,3.54872 0,4.89479 -0.04802,1.34607 -0.08731,0.24474 -0.08731,-2.4474 z m -1.350754,-7.54062 c 0.0016,-0.87313 0.05088,-1.19842 0.109765,-0.72287 0.05889,0.47555 0.05767,1.18993 -0.0027,1.5875 -0.06037,0.39758 -0.10855,0.008 -0.107066,-0.86463 z m 1.320215,0.13229 c 0,-0.80036 0.0496,-1.12779 0.110223,-0.7276 0.06062,0.40018 0.06062,1.05502 0,1.4552 -0.06062,0.40019 -0.110223,0.0728 -0.110223,-0.7276 z m 7.645212,-10.18646 c 0.0054,-0.43656 0.06469,-0.58312 0.131773,-0.32569 0.06708,0.25743 0.06267,0.61462 -0.0098,0.79375 -0.07248,0.17913 -0.127362,-0.0315 -0.12197,-0.46806 z M 5.6267308,128.43631 c 0.00539,-0.43656 0.06469,-0.58313 0.1317736,-0.3257 0.067083,0.25744 0.062672,0.61462 -0.0098,0.79375 -0.072477,0.17914 -0.127363,-0.0315 -0.1219708,-0.46805 z m 1.3229169,0 c 0.0054,-0.43656 0.064691,-0.58313 0.1317731,-0.3257 0.067082,0.25744 0.062672,0.61462 -0.00979,0.79375 -0.07249,0.17914 -0.1273757,-0.0315 -0.1219831,-0.46805 z M 6.0381714,126.2767 c 0.181901,-0.0734 0.4795573,-0.0734 0.6614583,0 0.181901,0.0734 0.033073,0.13346 -0.3307292,0.13346 -0.363802,0 -0.5126302,-0.0601 -0.3307291,-0.13346 z"
         id="path40" />
      <path
         style="fill:#6e6f6f;stroke-width:0.264583"
         d="m 126.48973,152.54579 c 0,-0.0549 0.20836,-0.2633 0.46302,-0.46302 0.41964,-0.32911 0.429,-0.31975 0.0999,0.0999 -0.34565,0.44073 -0.56292,0.58089 -0.56292,0.36313 z m -27.760361,-0.8482 c 0.0127,-0.30822 0.07539,-0.37092 0.15985,-0.15985 0.07643,0.191 0.06703,0.4192 -0.02088,0.50712 -0.08792,0.0879 -0.150453,-0.0684 -0.138965,-0.34727 z m 77.732861,-0.57326 c -0.32911,-0.41965 -0.31975,-0.429 0.0999,-0.0999 0.44073,0.34565 0.58089,0.56292 0.36313,0.56292 -0.0549,0 -0.2633,-0.20836 -0.46302,-0.46302 z m -81.966194,-2.33715 c 0.0127,-0.30823 0.07539,-0.37092 0.15985,-0.15986 0.07643,0.191 0.06703,0.4192 -0.02087,0.50712 -0.08792,0.0879 -0.150453,-0.0684 -0.138965,-0.34726 z m 4.497916,-1.05834 c 0.0127,-0.30822 0.07539,-0.37092 0.159851,-0.15985 0.07643,0.191 0.06703,0.4192 -0.02088,0.50712 -0.08792,0.0879 -0.150452,-0.0684 -0.138964,-0.34727 z m 32.564638,-0.37482 c 0,-0.36381 0.06,-0.51263 0.13345,-0.33073 0.0734,0.1819 0.0734,0.47955 0,0.66146 -0.0734,0.1819 -0.13345,0.0331 -0.13345,-0.33073 z m -0.28547,-5.71059 c 0.0127,-0.30823 0.0754,-0.37092 0.15985,-0.15986 0.0764,0.191 0.067,0.4192 -0.0209,0.50712 -0.0879,0.0879 -0.15045,-0.0684 -0.13896,-0.34726 z m -31.97409,-0.63941 c 0,-0.50933 0.05445,-0.71769 0.121002,-0.46302 0.06655,0.25466 0.06655,0.67138 0,0.92604 -0.06655,0.25466 -0.121002,0.0463 -0.121002,-0.46302 z m 103.70686,-0.92605 c 0.005,-0.43656 0.0647,-0.58312 0.13177,-0.32569 0.0671,0.25743 0.0627,0.61462 -0.01,0.79375 -0.0725,0.17913 -0.12737,-0.0315 -0.12197,-0.46806 z m -77.28902,-2.13871 c 0.0127,-0.30823 0.0754,-0.37092 0.15985,-0.15985 0.0764,0.19099 0.067,0.4192 -0.0209,0.50712 -0.0879,0.0879 -0.15045,-0.0684 -0.13896,-0.34727 z m 45.24375,-0.26458 c 0.0127,-0.30823 0.0754,-0.37092 0.15985,-0.15986 0.0764,0.191 0.067,0.4192 -0.0209,0.50712 -0.0879,0.0879 -0.15045,-0.0684 -0.13896,-0.34726 z m -39.95209,-0.26459 c 0.0127,-0.30822 0.0754,-0.37092 0.15985,-0.15985 0.0764,0.191 0.067,0.4192 -0.0209,0.50712 -0.0879,0.0879 -0.15045,-0.0684 -0.13897,-0.34727 z m -63.256299,-1.26847 c 0,-0.0549 0.20836,-0.2633 0.463021,-0.46302 0.419645,-0.32911 0.429003,-0.31975 0.0999,0.0999 -0.345644,0.44073 -0.562917,0.58088 -0.562917,0.36312 z m 89.958329,-2.91042 c 0,-0.0549 0.20836,-0.2633 0.46302,-0.46302 0.41965,-0.3291 0.429,-0.31975 0.0999,0.0999 -0.34565,0.44073 -0.56292,0.58089 -0.56292,0.36312 z M 52.935565,131.11454 c 0,-0.0549 0.20836,-0.2633 0.463021,-0.46302 0.419645,-0.32911 0.429003,-0.31975 0.0999,0.0999 -0.345644,0.44073 -0.562917,0.58089 -0.562917,0.36313 z m 77.279215,-3.22945 c 0.0127,-0.30822 0.0754,-0.37092 0.15985,-0.15985 0.0764,0.191 0.067,0.4192 -0.0209,0.50712 -0.0879,0.0879 -0.15045,-0.0684 -0.13897,-0.34727 z m 46.32297,-0.37482 c 0,-0.36381 0.0601,-0.51263 0.13345,-0.33073 0.0734,0.1819 0.0734,0.47955 0,0.66146 -0.0734,0.1819 -0.13345,0.0331 -0.13345,-0.33073 z M 13.583831,124.4165 c 0.257432,-0.0671 0.614619,-0.0627 0.79375,0.01 0.179131,0.0725 -0.03149,0.12736 -0.468056,0.12197 -0.436562,-0.005 -0.583126,-0.0647 -0.325694,-0.13178 z m 163.197619,-2.88141 c 0.0127,-0.30822 0.0754,-0.37092 0.15985,-0.15985 0.0764,0.191 0.067,0.4192 -0.0209,0.50712 -0.0879,0.0879 -0.15045,-0.0684 -0.13896,-0.34727 z"
         id="path38" />
      <path
         style="fill:#455b95;stroke-width:0.264583"
         d="m 25.233308,139.95639 c -1.590127,-0.96955 -1.666492,-1.37644 -1.666492,-8.87951 v -6.77842 l 0.595313,0.0845 0.595312,0.0846 0.07058,6.7973 0.07058,6.79731 0.692706,0.54488 c 0.626348,0.49269 1.056796,0.54488 4.493482,0.54488 h 3.800776 v 0.66146 0.66146 l -3.902604,-0.001 c -3.40388,-7.9e-4 -4.01085,-0.067 -4.749654,-0.51747 z m 10.239758,-0.143 v -0.66146 h 5.953125 c 3.438855,0 5.953124,0.10261 5.953124,0.24295 0,1.06115 -0.106545,1.07997 -6.113724,1.07997 h -5.792525 z m 17.246057,0 c 0.254775,-0.55917 0.480793,-0.66146 1.461563,-0.66146 1.78834,0 2.459046,-0.81404 2.459046,-2.98456 0,-1.45598 0.09014,-1.77038 0.661458,-2.3071 l 0.661458,-0.62141 v 2.30822 c 0,3.64061 -1.050263,4.92484 -4.029223,4.92678 l -1.515681,0.001 0.301379,-0.66146 z m 3.920609,-21.64361 v -9.61727 L 55.9569,107.91107 55.274069,107.26964 H 40.764624 26.255179 l -0.682723,0.64143 -0.682723,0.64144 v 7.22992 7.22992 h -0.673076 -0.673076 l 0.07776,-7.56132 0.07776,-7.56132 0.988301,-0.90535 0.988303,-0.90534 H 40.72516 c 14.860925,0 15.058251,0.007 15.751878,0.55252 1.466741,1.15374 1.485603,1.29567 1.485603,11.17787 v 9.11083 l -0.661458,0.4334 -0.661458,0.43341 z"
         id="path36" />
      <path
         style="fill:#556376;stroke-width:0.264583"
         d="m 34.511062,157.09873 c -1.221226,-0.59133 -1.484175,-2.2955 -0.50523,-3.27445 0.739987,-0.73999 1.860691,-0.84734 2.701047,-0.25873 1.179589,0.82622 0.977503,2.9443 -0.338103,3.54373 -0.780307,0.35553 -1.105488,0.35368 -1.857714,-0.0106 z m 1.745205,-1.13304 c 0.702855,-0.84689 -0.329467,-2.14783 -1.246222,-1.5705 -0.916075,0.5769 -0.589711,1.95466 0.463021,1.95466 0.255405,0 0.607846,-0.17287 0.783201,-0.38416 z M -1.7497403,128.83134 c -0.317909,-0.12809 -0.7048621,-0.46991 -0.8598958,-0.75959 -0.3038686,-0.56778 -0.4112836,-14.73307 -0.1175255,-15.49859 0.4105828,-1.06996 1.3546867,-1.20248 8.5668955,-1.20248 7.2122081,0 8.1563131,0.13252 8.5668961,1.20248 0.0904,0.23557 0.164354,2.68075 0.164354,5.43375 v 5.00544 h -0.655746 -0.655744 l -0.07186,-5.09323 -0.07186,-5.09323 H 5.8397339 -1.4363075 v 7.40833 7.40834 l 3.505729,0.0738 3.5057291,0.0738 v 0.65378 0.65378 L 2.2017132,129.081 c -1.85539054,-0.009 -3.6335447,-0.12158 -3.9514535,-0.24966 z m 8.9123908,-0.36421 v -0.67495 l 2.9765625,-0.0748 2.976562,-0.0748 0.07935,-1.52136 c 0.07388,-1.41653 0.124015,-1.52135 0.727604,-1.52135 0.614569,0 0.648256,0.081 0.648256,1.55819 0,1.13909 -0.135883,1.72619 -0.505214,2.18281 -0.472126,0.58371 -0.714735,0.63041 -3.704167,0.71293 l -3.1989525,0.0883 z m -0.5938044,-3.53655 c -0.3174047,-1.10814 -0.3114013,-1.27804 0.050768,-1.43661 0.6976612,-0.30547 0.778248,-0.24579 0.9573683,0.709 0.2128731,1.13471 0.5434568,1.19239 0.775626,0.13533 0.2156195,-0.98171 0.3228948,-1.03984 1.386369,-0.75125 0.6290626,0.17071 0.8990916,0.42389 1.0167786,0.95335 0.08813,0.3965 0.216733,0.92927 0.285773,1.18393 0.111938,0.41288 -0.103947,0.46302 -1.9935877,0.46302 H 6.928825 Z m 0.4711621,-2.70132 c -0.6530631,-0.72163 -0.3532928,-1.79962 0.5644991,-2.02997 0.8923655,-0.22397 1.5205921,0.17106 1.6230282,1.02055 0.1593135,1.32114 -1.2971912,1.99323 -2.1875273,1.00942 z"
         id="path34" />
      <path
         style="fill:#288e70;stroke-width:0.264583"
         d="m 26.26423,151.98422 c 0.0054,-0.43656 0.06469,-0.58312 0.131773,-0.32569 0.06708,0.25743 0.06267,0.61462 -0.0098,0.79375 -0.07248,0.17913 -0.127362,-0.0315 -0.12197,-0.46806 z m 1.322917,0 c 0.0054,-0.43656 0.06469,-0.58312 0.131773,-0.32569 0.06708,0.25743 0.06267,0.61462 -0.0098,0.79375 -0.07248,0.17913 -0.127363,-0.0315 -0.12197,-0.46806 z"
         id="path32" />
      <path
         style="fill:#4d4e4e;stroke-width:0.264583"
         d="m 89.97723,168.1562 c 0,-0.0549 0.20836,-0.2633 0.463021,-0.46302 0.419645,-0.3291 0.429003,-0.31975 0.0999,0.0999 -0.345644,0.44073 -0.562917,0.58089 -0.562917,0.36312 z m 61.17033,-16.17198 c 0.005,-0.43656 0.0647,-0.58312 0.13177,-0.32569 0.0671,0.25743 0.0627,0.61462 -0.01,0.79375 -0.0725,0.17913 -0.12737,-0.0315 -0.12197,-0.46806 z m -56.651524,-2.40329 c 0.0127,-0.30823 0.07539,-0.37092 0.15985,-0.15986 0.07643,0.191 0.06703,0.4192 -0.02087,0.50712 -0.08792,0.0879 -0.150453,-0.0684 -0.138965,-0.34726 z m -24.941331,-1.08474 c 0.190995,-0.0764 0.419201,-0.067 0.507119,0.0209 0.08792,0.0879 -0.06835,0.15045 -0.347266,0.13896 -0.308226,-0.0127 -0.370919,-0.0754 -0.159853,-0.15985 z m 12.291623,-0.003 c 0.257432,-0.0671 0.614619,-0.0627 0.79375,0.01 0.179131,0.0725 -0.03149,0.12737 -0.468056,0.12197 -0.436562,-0.005 -0.583125,-0.0647 -0.325694,-0.13177 z m 124.497952,0.003 c 0.191,-0.0764 0.4192,-0.067 0.50712,0.0209 0.0879,0.0879 -0.0684,0.15045 -0.34726,0.13896 -0.30823,-0.0127 -0.37092,-0.0754 -0.15986,-0.15985 z M 99.014838,146.82485 c 0,-0.3638 0.06006,-0.51263 0.133454,-0.33073 0.0734,0.1819 0.0734,0.47956 0,0.66146 -0.0734,0.1819 -0.133454,0.0331 -0.133454,-0.33073 z m -48.673525,-0.66146 c 0.0054,-0.43656 0.06469,-0.58312 0.131773,-0.32569 0.06708,0.25743 0.06267,0.61462 -0.0098,0.79375 -0.07248,0.17913 -0.127363,-0.0315 -0.121971,-0.46806 z m 81.217277,0.13229 c 0,-0.3638 0.06,-0.51263 0.13345,-0.33073 0.0734,0.18191 0.0734,0.47956 0,0.66146 -0.0734,0.1819 -0.13345,0.0331 -0.13345,-0.33073 z m 21.93953,0.11025 c 0.0127,-0.30823 0.0754,-0.37092 0.15985,-0.15986 0.0764,0.191 0.067,0.4192 -0.0209,0.50712 -0.0879,0.0879 -0.15045,-0.0683 -0.13896,-0.34726 z m -29.91881,-3.38514 c 0,-0.0549 0.20836,-0.2633 0.46302,-0.46302 0.41965,-0.32911 0.42901,-0.31975 0.0999,0.0999 -0.34564,0.44073 -0.56292,0.58089 -0.56292,0.36313 z m -57.39369,-1.37736 c 0.0127,-0.30823 0.07539,-0.37092 0.159851,-0.15986 0.07643,0.191 0.06703,0.4192 -0.02088,0.50712 -0.08792,0.0879 -0.150452,-0.0684 -0.138964,-0.34726 z m 136.78958,-0.52917 c 0.0127,-0.30823 0.0754,-0.37092 0.15985,-0.15985 0.0764,0.19099 0.067,0.4192 -0.0209,0.50712 -0.0879,0.0879 -0.15045,-0.0684 -0.13896,-0.34727 z m -71.70208,-0.26458 c 0.0127,-0.30823 0.0754,-0.37092 0.15985,-0.15986 0.0764,0.191 0.067,0.4192 -0.0209,0.50712 -0.0879,0.0879 -0.15045,-0.0684 -0.13896,-0.34726 z m -27.32258,-0.55557 c 0.19099,-0.0764 0.4192,-0.067 0.50712,0.0209 0.0879,0.0879 -0.0684,0.15045 -0.34727,0.13896 -0.30823,-0.0127 -0.37092,-0.0754 -0.15985,-0.15985 z m -4.640831,-1.14218 c 0,-0.65484 0.0516,-0.92273 0.114662,-0.59531 0.06307,0.32742 0.06307,0.8632 0,1.19063 -0.06306,0.32742 -0.114662,0.0595 -0.114662,-0.59532 z m -18.328312,-1.71979 c 0.341776,-0.3638 0.68094,-0.66146 0.7537,-0.66146 0.07276,0 -0.147341,0.29766 -0.489116,0.66146 -0.341776,0.3638 -0.68094,0.66146 -0.7537,0.66146 -0.07276,0 0.147341,-0.29766 0.489116,-0.66146 z m 79.374993,0.0324 c 0,-0.0549 0.20836,-0.2633 0.46302,-0.46302 0.41965,-0.32911 0.42901,-0.31975 0.0999,0.0999 -0.34564,0.44073 -0.56292,0.58089 -0.56292,0.36313 z m 44.18542,-1.32292 c 0,-0.0549 0.20836,-0.2633 0.46302,-0.46302 0.41964,-0.32911 0.429,-0.31975 0.0999,0.0999 -0.34565,0.44073 -0.56292,0.58088 -0.56292,0.36312 z M 55.845982,135.08329 c 0,-0.0549 0.208359,-0.2633 0.463021,-0.46302 0.419645,-0.32911 0.429003,-0.31975 0.0999,0.0999 -0.345644,0.44073 -0.562917,0.58089 -0.562917,0.36313 z m 60.523438,-0.33992 c 0.1819,-0.0734 0.47955,-0.0734 0.66146,0 0.1819,0.0734 0.0331,0.13345 -0.33073,0.13345 -0.36381,0 -0.51263,-0.0601 -0.33073,-0.13345 z m 76.79531,-0.18925 c 0,-0.0549 0.20836,-0.2633 0.46302,-0.46302 0.41964,-0.32911 0.429,-0.31975 0.0999,0.0999 -0.34564,0.44073 -0.56291,0.58088 -0.56291,0.36312 z m 12.72088,-1.90653 c 0.0127,-0.30822 0.0754,-0.37092 0.15985,-0.15985 0.0764,0.191 0.067,0.4192 -0.0209,0.50712 -0.0879,0.0879 -0.15045,-0.0683 -0.13897,-0.34727 z m -40.3037,-3.19589 c 0.18191,-0.0734 0.47956,-0.0734 0.66146,0 0.1819,0.0734 0.0331,0.13346 -0.33073,0.13346 -0.3638,0 -0.51263,-0.0601 -0.33073,-0.13346 z m 10.95584,-2.99977 c 0,-0.3638 0.0601,-0.51263 0.13345,-0.33073 0.0734,0.18191 0.0734,0.47956 0,0.66146 -0.0734,0.1819 -0.13345,0.0331 -0.13345,-0.33073 z m 0.3048,-6.74687 c 0.002,-0.87313 0.0509,-1.19842 0.10976,-0.72287 0.0589,0.47555 0.0577,1.18993 -0.003,1.5875 -0.0604,0.39758 -0.10855,0.008 -0.10706,-0.86463 z"
         id="path30" />
      <path
         style="fill:#007d5c;stroke-width:0.264583"
         d="m 27.619008,164.02092 c -0.317908,-0.12809 -0.704861,-0.4699 -0.859896,-0.75958 -0.180168,-0.33665 -0.281879,-3.19558 -0.281879,-7.92312 0,-6.88624 0.03486,-7.4395 0.505428,-8.02104 0.505354,-0.62453 0.50645,-0.62463 7.604368,-0.70345 3.904417,-0.0434 7.37094,-0.0106 7.703383,0.0729 0.332447,0.0834 0.839544,0.38681 1.126885,0.67415 0.495958,0.49596 0.522009,0.90123 0.514022,7.99691 -0.009,8.04735 -0.02151,8.12321 -1.419434,8.65471 -0.885455,0.33664 -14.059781,0.34421 -14.892877,0.009 z m 14.865516,-8.59711 v -7.40834 l -7.111357,-0.0705 c -5.025151,-0.0498 -7.21788,0.0179 -7.474479,0.23084 -0.497858,0.41318 -0.536728,13.98005 -0.04147,14.4753 0.240199,0.2402 2.132909,0.30385 7.474479,0.25136 l 7.15283,-0.0703 z"
         id="path28" />
      <path
         style="fill:#2a313a;stroke-width:0.264583"
         d="m 86.80223,174.63111 c -3.433153,-1.08881 -6.876303,-4.87909 -7.310601,-8.04763 -0.13167,-0.96064 -0.05032,-1.38434 0.408228,-2.12629 0.739982,-1.19732 2.286178,-2.55109 2.913693,-2.55109 0.506507,0 1.206047,1.23259 1.877001,3.30729 0.473512,1.46417 1.474981,2.90877 2.266522,3.26943 4.187843,1.9081 6.918322,-4.96556 7.683714,-19.34287 0.173675,-3.26235 0.162075,-3.37343 -0.352293,-3.37343 -0.368107,0 -0.843494,0.50918 -1.543884,1.65364 -1.259813,2.05858 -3.812521,4.59967 -5.572907,5.54754 -2.513307,1.35329 -5.658596,1.85851 -7.824719,1.25688 -1.635,-0.45411 -3.452616,-1.86017 -4.35144,-3.36615 l -0.829826,-1.39039 -0.287674,1.14245 c -0.660132,2.62163 -4.424396,4.93168 -6.773129,4.15653 -0.973418,-0.32126 -2.241965,-1.5951 -2.947871,-2.96017 -0.236548,-0.45743 -0.695587,-1.91434 -1.020088,-3.23757 -0.393237,-1.60353 -0.72381,-2.43192 -0.991227,-2.48395 -0.246822,-0.048 -0.829593,0.57941 -1.51435,1.63042 -1.544468,2.37054 -3.894101,4.66099 -5.883876,5.73567 -1.488445,0.80391 -1.907775,0.90757 -3.683706,0.91062 -1.805151,0.003 -2.103752,-0.0725 -3.008524,-0.76202 -2.505731,-1.90947 -3.095577,-6.28416 -1.519965,-11.27309 1.459153,-4.62017 4.311999,-9.04992 8.196244,-12.72668 2.980425,-2.82122 4.949089,-3.80836 7.596721,-3.80919 1.544484,-4.8e-4 2.057577,0.12021 3.089376,0.72676 2.498576,1.46879 3.812508,3.96208 3.604368,6.8396 -0.09201,1.27204 -0.253971,1.7089 -0.873167,2.3552 -0.440354,0.45963 -1.033468,0.79348 -1.409684,0.79348 h -0.649478 l 0.135599,3.50573 c 0.219572,5.67679 1.364868,8.50635 3.443038,8.50635 0.515816,0 1.427078,-0.22061 2.025026,-0.49025 1.060156,-0.47806 1.100809,-0.47791 1.635577,0.006 0.545415,0.4936 0.547211,0.49202 0.330121,-0.29027 -0.120052,-0.43261 -0.201668,-1.85813 -0.181367,-3.16782 0.09404,-6.0671 3.703971,-11.70335 9.266766,-14.46835 1.908001,-0.94838 2.432624,-1.0885 4.497917,-1.20135 2.092298,-0.11433 2.602129,-0.042 4.851532,0.6882 l 2.513541,0.81594 0.836383,-0.90992 c 1.413036,-1.53728 3.203604,-1.5106 3.833532,0.0571 0.328011,0.81633 -0.100539,18.08527 -0.572961,23.08815 -0.941401,9.96927 -2.700972,16.5406 -5.244989,19.58806 -1.486423,1.78058 -4.818461,2.9805 -6.657173,2.39736 z M 53.861607,148.18072 c 2.221828,-1.01733 4.504753,-4.11311 7.153198,-9.70014 1.379077,-2.90924 1.769491,-3.51946 2.34397,-3.66364 0.420915,-0.10565 0.68929,-0.35706 0.68929,-0.64573 0,-0.49391 -1.079386,-2.10951 -1.652463,-2.47336 -0.676683,-0.42963 -1.97639,-0.20031 -3.124383,0.55125 -3.715885,2.43271 -7.463146,7.73591 -8.598963,12.16943 -0.466971,1.82277 -0.331179,2.98683 0.438166,3.75618 0.626597,0.62659 1.392192,0.62827 2.751185,0.006 z m 31.791983,-0.57944 c 2.751756,-1.327 5.470196,-4.77297 7.157047,-9.07247 l 0.715502,-1.8237 -0.70772,-0.60875 c -0.955421,-0.82182 -4.309388,-1.556 -6.211496,-1.35968 -4.287168,0.44247 -8.218022,4.53971 -8.492614,8.85207 -0.285051,4.47668 2.97683,6.21271 7.539281,4.01253 z m 27.3511,9.11876 c -1.71187,-0.46006 -3.64921,-1.64626 -4.76587,-2.91807 -1.09689,-1.24929 -2.3164,-3.73949 -2.75768,-5.63108 -0.45725,-1.96007 -0.57023,-2.13979 -1.34511,-2.13979 -0.36746,0 -0.8651,-0.30095 -1.20317,-0.7276 -0.49653,-0.62664 -0.55454,-0.94149 -0.41805,-2.26894 0.20784,-2.02138 0.42322,-2.34835 1.76488,-2.6792 0.61866,-0.15256 1.2165,-0.45598 1.32852,-0.67426 0.11203,-0.21828 0.75455,-1.56463 1.42783,-2.99189 1.49891,-3.17746 3.84843,-5.74197 6.35681,-6.93846 2.09596,-0.99977 5.14689,-1.09112 7.05794,-0.21133 2.96447,1.36475 4.97167,4.31792 5.18466,7.62814 0.16858,2.61996 -0.26629,3.97429 -1.75376,5.46175 -1.47944,1.47945 -1.82461,1.58185 -8.20822,2.4352 -3.1906,0.42651 -4.94087,0.77276 -5.08918,1.00678 -0.64636,1.01993 0.11186,2.84237 1.66156,3.99367 3.18034,2.36272 8.13219,1.40151 12.20067,-2.36829 0.83444,-0.77318 1.45492,-1.14288 1.82554,-1.0877 0.85905,0.1279 1.59933,1.34178 1.74541,2.86204 l 0.13093,1.36267 -1.69307,1.65196 c -2.09347,2.04263 -4.54202,3.43835 -7.2446,4.12955 -2.40989,0.61635 -4.19079,0.64643 -6.20604,0.10485 z m 2.50483,-17.19869 c 3.63348,-0.58813 4.43336,-0.88177 4.73413,-1.73797 0.51959,-1.47913 -1.34294,-2.97363 -3.67897,-2.95204 -1.57467,0.0145 -3.27366,0.7919 -4.68143,2.14191 -1.70412,1.63421 -1.54105,3.40153 0.28544,3.09356 0.38225,-0.0645 1.88562,-0.30991 3.34083,-0.54546 z m 44.12577,16.40644 c -2.41376,-0.88834 -4.54408,-3.53383 -5.51926,-6.85398 -0.61879,-2.10674 -0.63104,-6.28441 -0.0252,-8.59896 1.14618,-4.37897 4.08425,-8.29624 7.45621,-9.94119 2.01764,-0.98427 5.31407,-1.20697 7.68091,-0.51891 0.83008,0.24131 1.67388,0.37557 1.8751,0.29835 0.29679,-0.11389 0.36586,-1.29239 0.36586,-6.24261 0,-6.71378 0.17841,-7.71645 1.45964,-8.20357 1.34132,-0.50997 3.03645,-0.138 3.48675,0.76512 0.11714,0.23495 0.21312,5.6064 0.21328,11.93656 2.6e-4,10.24815 0.0517,11.68334 0.46976,13.09687 1.05329,3.5617 2.52604,5.26508 4.41444,5.10576 0.89347,-0.0754 0.93996,-0.13051 1.10792,-1.31405 1.091,-7.68791 8.33744,-17.41516 14.46101,-19.41172 2.51885,-0.82126 5.18025,-0.0918 6.92805,1.8988 1.48344,1.68954 1.97748,3.25865 1.88062,5.97294 -0.0343,0.96139 -1.48146,2.5889 -2.302,2.5889 -0.61465,0 -0.63405,0.0629 -0.63405,2.05746 0,5.13657 1.01403,8.87266 2.6358,9.71131 0.86516,0.44739 1.30411,0.40046 2.99942,-0.32069 0.96984,-0.41255 1.02541,-0.40713 1.5875,0.15497 0.80696,0.80696 0.78253,2.48916 -0.0558,3.84102 -1.10902,1.7884 -4.15921,3.31452 -5.87249,2.93822 -1.91008,-0.41953 -3.55223,-2.93839 -4.3569,-6.68294 -0.35114,-1.63406 -0.57359,-2.17435 -0.89523,-2.17435 -0.23605,0 -0.95451,0.80096 -1.60199,1.78594 -1.57225,2.39178 -4.05303,4.78666 -5.9514,5.74532 -2.97124,1.50045 -5.98612,1.13602 -7.59355,-0.91788 -0.62953,-0.8044 -0.63988,-0.80701 -1.60391,-0.40421 -1.09373,0.45699 -2.74832,0.52753 -3.7188,0.15855 -1.75298,-0.66648 -3.85253,-3.60771 -4.30941,-6.03699 -0.25461,-1.35377 -0.77173,-1.0136 -1.40775,0.92604 -1.20611,3.67825 -3.40978,6.54656 -6.153,8.0088 -1.43005,0.76227 -1.97456,0.90123 -3.78687,0.96643 -1.42807,0.0514 -2.48038,-0.0577 -3.23465,-0.33531 z m 5.90328,-5.86934 c 1.0284,-0.55039 2.81369,-2.75997 3.56017,-4.40629 0.80703,-1.77987 1.70561,-5.02404 1.98421,-7.16368 0.14336,-1.101 0.0883,-1.40111 -0.32575,-1.77583 -0.66382,-0.60075 -3.53286,-1.25612 -5.52021,-1.26097 -3.02908,-0.007 -5.44724,1.849 -6.34458,4.87066 -0.44577,1.5011 -0.50974,4.86333 -0.11927,6.26905 0.9167,3.30021 4.06374,4.91296 6.76543,3.46706 z m 25.11892,-1.87676 c 0.58555,-0.266 1.81745,-1.30518 2.73755,-2.3093 1.36962,-1.49466 2.06404,-2.62669 3.83016,-6.24378 1.73809,-3.55968 2.29861,-4.4784 2.88484,-4.72845 0.40018,-0.17069 0.7276,-0.4902 0.7276,-0.71003 0,-0.57479 -1.0201,-2.14287 -1.59375,-2.44988 -2.45399,-1.31333 -7.60652,3.37567 -10.6274,9.67135 -0.91015,1.89681 -1.14942,2.70573 -1.23185,4.16456 -0.0905,1.60158 -0.0324,1.88496 0.50376,2.45564 0.72035,0.76679 1.33753,0.80019 2.76909,0.14989 z m -43.74579,6.2429 c -0.15417,-0.18577 -0.59126,-2.35866 -0.97131,-4.82865 -1.74863,-11.36453 -3.37937,-17.05859 -4.88547,-17.05859 -1.64923,0 -2.84014,4.40064 -3.9755,14.69015 -0.34254,3.10434 -0.68916,5.14211 -0.93971,5.5245 -0.75713,1.15552 -2.85847,1.62031 -3.66756,0.81122 -0.54971,-0.5497 -0.60948,-1.11424 -0.92357,-8.72275 -0.15019,-3.63802 -0.47778,-9.08499 -0.72799,-12.10438 l -0.45493,-5.48979 0.64172,-0.69587 c 0.65555,-0.71085 2.02716,-1.42141 2.74379,-1.42141 0.73147,0 1.18367,1.17582 1.47753,3.84187 0.43382,3.93589 0.52497,4.40313 0.83856,4.2986 0.15771,-0.0526 0.66477,-1.18307 1.12678,-2.51223 1.39868,-4.02381 2.85255,-5.56682 4.97677,-5.2819 2.68134,0.35964 4.36181,3.11925 6.15011,10.09951 1.08052,4.21761 2.77813,14.17518 2.76664,16.22816 -0.009,1.5756 -0.27093,2.1402 -1.23096,2.65152 -0.77121,0.41075 -2.59453,0.3922 -2.9449,-0.03 z M 0.65865878,125.0728 c 0.0980226,-0.613 0.20583709,-1.14216 0.23958787,-1.17591 0.0337508,-0.0337 0.62361125,-0.21174 1.31080105,-0.39554 1.0069634,-0.26932 1.4933326,-0.26917 2.5062071,7.7e-4 1.5224442,0.40574 1.5657406,0.44658 1.794793,1.69305 l 0.182327,0.99219 H 3.5864055 0.48043572 l 0.17822306,-1.11455 z m 1.88343192,-2.84354 c -0.6530631,-0.72163 -0.3532926,-1.79962 0.5644991,-2.02997 0.9202663,-0.23097 1.5218171,0.17719 1.631363,1.10691 0.1540666,1.30756 -1.2961852,1.91719 -2.1958621,0.92306 z"
         id="path26" />
    </g>
  </g>
</svg>
